<svg width="187" height="64" viewBox="0 0 187 64" fill="none" xmlns="http://www.w3.org/2000/svg">
<path d="M172.108 0.000207999H14.8999C14.3269 0.000207999 13.7607 0.000207999 13.1892 0.00340799C12.7108 0.00660798 12.2361 0.0159039 11.7531 0.0237279C10.7038 0.0363708 9.65692 0.13089 8.62162 0.306463C7.58777 0.485859 6.5863 0.82407 5.6511 1.30966C4.71703 1.79936 3.86355 2.43567 3.12162 3.19551C2.37579 3.95321 1.75408 4.82902 1.2804 5.78925C0.80542 6.74756 0.476064 7.77448 0.303712 8.83455C0.129722 9.89327 0.036096 10.9642 0.023675 12.0377C0.0091731 12.5283 0.00764164 13.0205 0 13.5111V50.4938C0.00764164 50.9906 0.0091731 51.4719 0.023675 51.9688C0.0360998 53.0423 0.129726 54.1132 0.303712 55.1719C0.475588 56.2325 0.804964 57.2601 1.2804 58.2187C1.75387 59.1759 2.37566 60.0481 3.12162 60.8016C3.86074 61.5648 4.71477 62.2016 5.6511 62.6875C6.5863 63.1744 7.58765 63.5146 8.62162 63.6968C9.6571 63.871 10.7039 63.9655 11.7531 63.9797C12.2361 63.9906 12.7108 63.9968 13.1892 63.9968C13.7607 64 14.3269 64 14.8999 64H172.108C172.67 64 173.241 64 173.802 63.9968C174.279 63.9968 174.767 63.9906 175.243 63.9797C176.29 63.9663 177.335 63.8717 178.369 63.6968C179.406 63.5134 180.411 63.1732 181.35 62.6875C182.286 62.2013 183.139 61.5646 183.878 60.8016C184.622 60.0452 185.245 59.1735 185.724 58.2187C186.196 57.2594 186.522 56.2319 186.692 55.1719C186.866 54.113 186.963 53.0424 186.982 51.9688C186.988 51.4719 186.988 50.9906 186.988 50.4938C187 49.9125 187 49.3344 187 48.7437V15.258C187 14.672 187 14.0908 186.988 13.5111C186.988 13.0205 186.988 12.5283 186.982 12.0377C186.963 10.964 186.866 9.89335 186.692 8.83448C186.522 7.77503 186.196 6.74819 185.724 5.78918C184.76 3.86451 183.23 2.29784 181.35 1.30952C180.411 0.825113 179.406 0.486991 178.369 0.306319C177.335 0.129972 176.29 0.0354203 175.243 0.0235039C174.767 0.0156959 174.279 0.00631998 173.802 0.00319999C173.241 0 172.67 0 172.108 0V0.000207999Z" fill="#A6A6A6"/>
<path d="M13.1967 62.6002C12.7206 62.6002 12.256 62.594 11.7836 62.5831C10.805 62.57 9.82869 62.4828 8.86268 62.3221C7.96192 62.1633 7.08933 61.8678 6.27368 61.4455C5.46551 61.0266 4.7284 60.4774 4.09058 59.8189C3.44352 59.1682 2.90482 58.4134 2.49582 57.5845C2.08231 56.7503 1.79613 55.8561 1.64727 54.933C1.4865 53.9412 1.39952 52.9383 1.38707 51.933C1.37717 51.5956 1.3642 50.4721 1.3642 50.4721V13.5113C1.3642 13.5113 1.37801 12.405 1.38715 12.08C1.39907 11.0763 1.48554 10.075 1.64583 9.08473C1.79497 8.15917 2.08137 7.26237 2.4951 6.42538C2.9026 5.59709 3.43831 4.84176 4.08147 4.18867C4.7239 3.52938 5.46337 2.97735 6.27291 2.55272C7.08669 2.13174 7.95763 1.83836 8.85657 1.68242C9.82576 1.52013 10.8055 1.43238 11.7874 1.41993L13.1975 1.40039H173.795L175.222 1.42071C176.195 1.43255 177.166 1.51951 178.126 1.68085C179.034 1.83875 179.914 2.13417 180.737 2.55741C182.359 3.41316 183.678 4.76704 184.511 6.42929C184.918 7.2605 185.2 8.14998 185.347 9.06755C185.509 10.0659 185.6 11.0751 185.619 12.0871C185.623 12.5402 185.623 13.0269 185.623 13.5113C185.636 14.1113 185.636 14.6824 185.636 15.2582V48.7439C185.636 49.3252 185.636 49.8924 185.623 50.4642C185.623 50.9846 185.623 51.4612 185.617 51.9518C185.599 52.9456 185.51 53.9368 185.35 54.9173C185.204 55.847 184.92 56.7482 184.506 57.5893C184.094 58.4092 183.559 59.1574 182.919 59.8064C182.281 60.4685 181.542 61.0209 180.732 61.4424C179.912 61.868 179.033 62.1646 178.126 62.3221C177.16 62.4837 176.183 62.5709 175.205 62.5831C174.747 62.594 174.268 62.6002 173.802 62.6002L172.108 62.6034L13.1967 62.6002Z" fill="black"/>
<path d="M38.7065 32.4814C38.7233 31.146 39.0697 29.8366 39.7136 28.675C40.3575 27.5135 41.2778 26.5376 42.3891 25.8381C41.6831 24.8059 40.7519 23.9564 39.6692 23.3571C38.5865 22.7578 37.3822 22.4253 36.1521 22.3859C33.5279 22.1039 30.9839 23.9936 29.6467 23.9936C28.2836 23.9936 26.2247 22.4139 24.0076 22.4606C22.5736 22.508 21.176 22.935 19.951 23.6999C18.726 24.4648 17.7155 25.5415 17.0178 26.8252C13.9955 32.1826 16.2498 40.0563 19.1449 44.3868C20.5934 46.5074 22.2862 48.8761 24.5013 48.7921C26.6689 48.7 27.4784 47.3769 30.0949 47.3769C32.687 47.3769 33.4465 48.7921 35.7065 48.7387C38.0324 48.7 39.4979 46.6087 40.8955 44.4681C41.9363 42.9571 42.7371 41.2871 43.2684 39.5201C41.9171 38.9349 40.7639 37.9554 39.9527 36.7038C39.1415 35.4521 38.708 33.9836 38.7065 32.4814Z" fill="white"/>
<path d="M34.4377 19.5381C35.7059 17.9794 36.3306 15.9759 36.1793 13.9531C34.2419 14.1615 32.4521 15.1096 31.1668 16.6085C30.5384 17.3408 30.0571 18.1927 29.7504 19.1155C29.4437 20.0383 29.3177 21.014 29.3796 21.9867C30.3486 21.9969 31.3074 21.7819 32.1835 21.3577C33.0597 20.9336 33.8304 20.3114 34.4377 19.5381Z" fill="white"/>
<path d="M66.106 43.4242H58.7091L56.9327 48.7945H53.7997L60.8059 28.9258H64.0611L71.0673 48.7945H67.8808L66.106 43.4242ZM59.4752 40.9461H65.3385L62.4481 32.2305H62.3672L59.4752 40.9461Z" fill="white"/>
<path d="M86.1983 41.5523C86.1983 46.0538 83.8451 48.946 80.2939 48.946C79.3944 48.9942 78.4997 48.782 77.7124 48.3338C76.9251 47.8856 76.2771 47.2194 75.8424 46.4116H75.7752V53.5866H72.871V34.3085H75.6821V36.7179H75.7355C76.1902 35.914 76.8492 35.2513 77.6425 34.8003C78.4358 34.3494 79.3336 34.127 80.2405 34.157C83.8313 34.157 86.1983 37.0632 86.1983 41.5523ZM83.2133 41.5523C83.2133 38.6195 81.733 36.6913 79.4744 36.6913C77.2555 36.6913 75.763 38.6601 75.763 41.5523C75.763 44.471 77.2555 46.4257 79.4744 46.4257C81.733 46.4257 83.2133 44.5116 83.2133 41.5523Z" fill="white"/>
<path d="M101.771 41.5523C101.771 46.0538 99.4174 48.946 95.8662 48.946C94.9666 48.9942 94.072 48.782 93.2847 48.3338C92.4974 47.8856 91.8493 47.2194 91.4146 46.4116H91.3474V53.5866H88.4433V34.3085H91.2543V36.7179H91.3077C91.7624 35.9139 92.4215 35.2512 93.2147 34.8003C94.008 34.3493 94.9059 34.127 95.8128 34.157C99.4037 34.157 101.771 37.0632 101.771 41.5523ZM98.7856 41.5523C98.7856 38.6195 97.3053 36.6913 95.0467 36.6913C92.8278 36.6913 91.3353 38.6601 91.3353 41.5523C91.3353 44.471 92.8278 46.4257 95.0467 46.4257C97.3053 46.4257 98.7856 44.5116 98.7856 41.5523H98.7856Z" fill="white"/>
<path d="M112.063 43.2586C112.278 45.2289 114.147 46.5226 116.702 46.5226C119.15 46.5226 120.911 45.2288 120.911 43.4523C120.911 41.9101 119.849 40.9867 117.334 40.3538L114.819 39.7335C111.255 38.8523 109.601 37.146 109.601 34.3773C109.601 30.9492 112.519 28.5945 116.662 28.5945C120.763 28.5945 123.574 30.9492 123.668 34.3773H120.737C120.561 32.3945 118.96 31.1976 116.621 31.1976C114.281 31.1976 112.681 32.4085 112.681 34.171C112.681 35.5757 113.703 36.4023 116.204 37.035L118.342 37.5725C122.324 38.5366 123.978 40.1741 123.978 43.0803C123.978 46.7975 121.086 49.1256 116.487 49.1256C112.183 49.1256 109.277 46.8522 109.09 43.2584L112.063 43.2586Z" fill="white"/>
<path d="M130.246 30.8804V34.3085H132.936V36.6632H130.246V44.6491C130.246 45.8897 130.784 46.4678 131.967 46.4678C132.287 46.4621 132.605 46.4392 132.923 46.399V48.7396C132.391 48.8414 131.85 48.8874 131.309 48.8771C128.445 48.8771 127.328 47.7756 127.328 44.9662V36.6632H125.271V34.3085H127.328V30.8804H130.246Z" fill="white"/>
<path d="M134.494 41.5522C134.494 36.9944 137.116 34.1304 141.205 34.1304C145.307 34.1304 147.916 36.9944 147.916 41.5522C147.916 46.1225 145.32 48.9741 141.205 48.9741C137.09 48.9741 134.494 46.1225 134.494 41.5522ZM144.957 41.5522C144.957 38.4257 143.558 36.5804 141.205 36.5804C138.851 36.5804 137.453 38.4397 137.453 41.5522C137.453 44.6913 138.851 46.5225 141.205 46.5225C143.558 46.5225 144.957 44.6913 144.957 41.5522H144.957Z" fill="white"/>
<path d="M150.311 34.3084H153.081V36.774H153.148C153.335 36.0039 153.776 35.3234 154.395 34.8468C155.015 34.3702 155.776 34.1265 156.551 34.1568C156.886 34.1556 157.219 34.1928 157.546 34.2678V37.049C157.123 36.9168 156.683 36.8561 156.241 36.8693C155.819 36.8518 155.399 36.928 155.008 37.0926C154.618 37.2572 154.267 37.5064 153.979 37.823C153.692 38.1396 153.474 38.5162 153.343 38.9269C153.211 39.3375 153.167 39.7726 153.215 40.2021V48.7943H150.311L150.311 34.3084Z" fill="white"/>
<path d="M170.936 44.5397C170.545 47.1694 168.044 48.9741 164.843 48.9741C160.728 48.9741 158.173 46.1506 158.173 41.621C158.173 37.0772 160.741 34.1304 164.721 34.1304C168.636 34.1304 171.097 36.8835 171.097 41.2757V42.2944H161.105V42.4741C161.058 43.0072 161.124 43.5443 161.296 44.0496C161.468 44.555 161.743 45.017 162.103 45.4051C162.463 45.7932 162.9 46.0984 163.384 46.3005C163.868 46.5026 164.388 46.5969 164.911 46.5772C165.597 46.643 166.286 46.4803 166.874 46.1132C167.463 45.7461 167.92 45.1942 168.178 44.5397L170.936 44.5397ZM161.118 40.2163H168.192C168.218 39.7369 168.147 39.2572 167.983 38.8073C167.82 38.3574 167.567 37.9469 167.241 37.6017C166.915 37.2565 166.523 36.9839 166.09 36.8012C165.656 36.6184 165.19 36.5294 164.721 36.5397C164.248 36.5368 163.78 36.6299 163.342 36.8135C162.904 36.9971 162.507 37.2676 162.172 37.6094C161.837 37.9512 161.571 38.3575 161.39 38.805C161.21 39.2524 161.117 39.7321 161.118 40.2163V40.2163Z" fill="white"/>
<path d="M59.1113 13.9698C59.7201 13.9251 60.3311 14.0193 60.9001 14.2456C61.4691 14.4718 61.982 14.8246 62.4017 15.2784C62.8214 15.7322 63.1375 16.2757 63.3272 16.8698C63.517 17.4638 63.5755 18.0935 63.4988 18.7135C63.4988 21.7635 61.8888 23.5167 59.1113 23.5167H55.7432V13.9698H59.1113ZM57.1915 22.1666H58.9495C59.3846 22.1932 59.82 22.1202 60.224 21.9528C60.628 21.7854 60.9905 21.5279 61.2851 21.199C61.5796 20.8701 61.7988 20.4781 61.9268 20.0515C62.0547 19.6249 62.0881 19.1745 62.0246 18.733C62.0835 18.2933 62.0467 17.8456 61.9168 17.4222C61.7869 16.9987 61.5671 16.6099 61.2733 16.2836C60.9794 15.9573 60.6186 15.7016 60.2169 15.5349C59.8151 15.3681 59.3824 15.2944 58.9495 15.3189H57.1915V22.1666Z" fill="white"/>
<path d="M65.1347 19.9115C65.0905 19.4381 65.1434 18.9604 65.29 18.509C65.4367 18.0577 65.6738 17.6428 65.9863 17.2908C66.2987 16.9389 66.6796 16.6576 67.1044 16.4652C67.5292 16.2727 67.9886 16.1733 68.4532 16.1733C68.9177 16.1733 69.3771 16.2727 69.802 16.4652C70.2268 16.6576 70.6076 16.9389 70.9201 17.2908C71.2325 17.6428 71.4697 18.0577 71.6163 18.509C71.763 18.9604 71.8159 19.4381 71.7716 19.9115C71.8167 20.3855 71.7645 20.8639 71.6182 21.3159C71.4719 21.7679 71.2349 22.1836 70.9224 22.5363C70.6099 22.889 70.2287 23.1708 69.8035 23.3636C69.3782 23.5565 68.9183 23.6561 68.4532 23.6561C67.9881 23.6561 67.5281 23.5565 67.1029 23.3636C66.6776 23.1708 66.2965 22.889 65.984 22.5363C65.6714 22.1836 65.4344 21.7679 65.2882 21.3159C65.1419 20.8639 65.0896 20.3855 65.1347 19.9115ZM70.3432 19.9115C70.3432 18.3498 69.658 17.4365 68.4555 17.4365C67.2483 17.4365 66.5693 18.3498 66.5693 19.9115C66.5693 21.4858 67.2484 22.392 68.4555 22.392C69.658 22.392 70.3432 21.4795 70.3432 19.9115H70.3432Z" fill="white"/>
<path d="M80.594 23.5169H79.1534L77.699 18.2107H77.5892L76.1409 23.5169H74.714L72.7744 16.3123H74.1829L75.4435 21.8098H75.5473L76.994 16.3123H78.3263L79.773 21.8098H79.8829L81.1373 16.3123H82.526L80.594 23.5169Z" fill="white"/>
<path d="M84.1574 16.3119H85.4942V17.4565H85.598C85.774 17.0454 86.0709 16.7008 86.4474 16.4707C86.8238 16.2406 87.2609 16.1365 87.6979 16.1729C88.0403 16.1465 88.384 16.1994 88.7038 16.3275C89.0235 16.4557 89.311 16.6558 89.5449 16.9132C89.7788 17.1705 89.9532 17.4785 90.055 17.8142C90.1569 18.1499 90.1837 18.5048 90.1335 18.8525V23.5165H88.7448V19.2096C88.7448 18.0518 88.2534 17.476 87.2263 17.476C86.9938 17.4649 86.7618 17.5054 86.546 17.5947C86.3303 17.6841 86.136 17.8201 85.9764 17.9935C85.8168 18.1669 85.6957 18.3736 85.6214 18.5994C85.5472 18.8253 85.5215 19.0648 85.5461 19.3018V23.5166H84.1573L84.1574 16.3119Z" fill="white"/>
<path d="M92.3463 13.4995H93.735V23.5167H92.3463V13.4995Z" fill="white"/>
<path d="M95.6655 19.9114C95.6213 19.4379 95.6742 18.9602 95.8209 18.5089C95.9676 18.0575 96.2048 17.6426 96.5173 17.2906C96.8297 16.9386 97.2106 16.6574 97.6355 16.4649C98.0603 16.2725 98.5198 16.1731 98.9844 16.1731C99.4489 16.1731 99.9084 16.2725 100.333 16.4649C100.758 16.6574 101.139 16.9386 101.451 17.2906C101.764 17.6426 102.001 18.0575 102.148 18.5089C102.294 18.9602 102.347 19.4379 102.303 19.9114C102.348 20.3854 102.296 20.8638 102.15 21.3158C102.003 21.7678 101.766 22.1835 101.454 22.5362C101.141 22.8888 100.76 23.1706 100.335 23.3635C99.9094 23.5563 99.4495 23.656 98.9844 23.656C98.5192 23.656 98.0593 23.5563 97.634 23.3635C97.2087 23.1706 96.8276 22.8888 96.515 22.5362C96.2025 22.1835 95.9654 21.7678 95.8191 21.3158C95.6728 20.8638 95.6205 20.3854 95.6655 19.9114ZM100.874 19.9114C100.874 18.3497 100.189 17.4364 98.9863 17.4364C97.7791 17.4364 97.1001 18.3497 97.1001 19.9114C97.1001 21.4857 97.7792 22.3919 98.9863 22.3919C100.189 22.3919 100.874 21.4794 100.874 19.9114H100.874Z" fill="white"/>
<path d="M103.765 21.4793C103.765 20.1824 104.708 19.4348 106.382 19.3285L108.288 19.216V18.5942C108.288 17.8332 107.797 17.4036 106.848 17.4036C106.073 17.4036 105.535 17.695 105.381 18.2043H104.037C104.179 16.9668 105.316 16.1731 106.912 16.1731C108.676 16.1731 109.671 17.0723 109.671 18.5942V23.5168H108.334V22.5043H108.224C108.001 22.8675 107.688 23.1636 107.317 23.3623C106.946 23.5611 106.529 23.6553 106.111 23.6355C105.815 23.667 105.517 23.6347 105.234 23.5408C104.952 23.4469 104.692 23.2934 104.471 23.0902C104.25 22.8871 104.073 22.6388 103.951 22.3613C103.83 22.0839 103.766 21.7834 103.765 21.4793ZM108.288 20.8637V20.2614L106.57 20.3739C105.601 20.4403 105.162 20.7778 105.162 21.4129C105.162 22.0613 105.711 22.4387 106.466 22.4387C106.688 22.4616 106.911 22.4387 107.124 22.3714C107.336 22.304 107.534 22.1936 107.704 22.0467C107.874 21.8997 108.013 21.7193 108.113 21.516C108.214 21.3128 108.273 21.091 108.288 20.8637Z" fill="white"/>
<path d="M111.496 19.9112C111.496 17.6347 112.639 16.1925 114.417 16.1925C114.857 16.1717 115.293 16.2796 115.676 16.5034C116.058 16.7273 116.37 17.0578 116.575 17.4565H116.679V13.4995H118.068V23.5167H116.737V22.3784H116.627C116.406 22.7744 116.083 23.1008 115.693 23.3224C115.304 23.544 114.862 23.6522 114.417 23.6354C112.627 23.6355 111.496 22.1933 111.496 19.9112ZM112.931 19.9112C112.931 21.4394 113.634 22.3589 114.811 22.3589C115.981 22.3589 116.705 21.4261 116.705 19.9175C116.705 18.4159 115.974 17.4698 114.811 17.4698C113.642 17.4698 112.931 18.3956 112.931 19.9112H112.931Z" fill="white"/>
<path d="M123.813 19.9115C123.769 19.4381 123.822 18.9604 123.969 18.509C124.115 18.0577 124.352 17.6428 124.665 17.2908C124.977 16.9389 125.358 16.6576 125.783 16.4652C126.208 16.2727 126.667 16.1733 127.132 16.1733C127.596 16.1733 128.056 16.2727 128.481 16.4652C128.905 16.6576 129.286 16.9389 129.599 17.2908C129.911 17.6428 130.148 18.0577 130.295 18.509C130.442 18.9604 130.494 19.4381 130.45 19.9115C130.495 20.3855 130.443 20.8639 130.297 21.3159C130.151 21.7679 129.914 22.1836 129.601 22.5363C129.288 22.889 128.907 23.1708 128.482 23.3636C128.057 23.5565 127.597 23.6561 127.132 23.6561C126.667 23.6561 126.207 23.5565 125.781 23.3636C125.356 23.1708 124.975 22.889 124.663 22.5363C124.35 22.1836 124.113 21.7679 123.967 21.3159C123.82 20.8639 123.768 20.3855 123.813 19.9115ZM129.022 19.9115C129.022 18.3498 128.337 17.4365 127.134 17.4365C125.927 17.4365 125.248 18.3498 125.248 19.9115C125.248 21.4858 125.927 22.392 127.134 22.392C128.337 22.392 129.022 21.4795 129.022 19.9115Z" fill="white"/>
<path d="M132.314 16.3119H133.65V17.4565H133.754C133.93 17.0454 134.227 16.7008 134.604 16.4707C134.98 16.2406 135.417 16.1365 135.854 16.1729C136.197 16.1465 136.54 16.1994 136.86 16.3275C137.18 16.4557 137.467 16.6558 137.701 16.9132C137.935 17.1705 138.109 17.4785 138.211 17.8142C138.313 18.1499 138.34 18.5048 138.29 18.8525V23.5165H136.901V19.2096C136.901 18.0518 136.41 17.476 135.383 17.476C135.15 17.4649 134.918 17.5054 134.702 17.5947C134.487 17.6841 134.292 17.8201 134.133 17.9935C133.973 18.1669 133.852 18.3736 133.778 18.5994C133.703 18.8253 133.678 19.0648 133.702 19.3018V23.5166H132.314V16.3119Z" fill="white"/>
<path d="M146.137 14.5183V16.3449H147.661V17.5425H146.137V21.2472C146.137 22.0019 146.44 22.3323 147.132 22.3323C147.309 22.3318 147.486 22.3208 147.661 22.2995V23.4839C147.412 23.5296 147.159 23.5539 146.906 23.5566C145.362 23.5566 144.746 23.0003 144.746 21.6112V17.5425H143.629V16.3448H144.746V14.5183H146.137Z" fill="white"/>
<path d="M149.558 13.4995H150.935V17.4698H151.045C151.229 17.0549 151.534 16.7084 151.918 16.4774C152.302 16.2465 152.746 16.1423 153.19 16.1792C153.531 16.1602 153.871 16.2184 154.188 16.3497C154.504 16.481 154.788 16.6821 155.019 16.9386C155.251 17.1951 155.424 17.5008 155.527 17.8338C155.629 18.1668 155.659 18.519 155.614 18.8651V23.5167H154.224V19.2159C154.224 18.0651 153.7 17.4823 152.719 17.4823C152.48 17.4623 152.24 17.4959 152.015 17.5807C151.791 17.6656 151.587 17.7997 151.418 17.9737C151.249 18.1477 151.12 18.3573 151.038 18.588C150.957 18.8186 150.926 19.0646 150.947 19.3089V23.5166H149.558L149.558 13.4995Z" fill="white"/>
<path d="M163.711 21.5716C163.523 22.2301 163.114 22.7997 162.556 23.1807C161.999 23.5617 161.328 23.73 160.662 23.656C160.199 23.6685 159.738 23.5776 159.312 23.3896C158.886 23.2015 158.505 22.9208 158.196 22.567C157.887 22.2132 157.656 21.7947 157.521 21.3406C157.386 20.8865 157.348 20.4076 157.412 19.9373C157.35 19.4655 157.388 18.9856 157.523 18.5301C157.658 18.0746 157.887 17.6542 158.195 17.2973C158.503 16.9404 158.882 16.6553 159.306 16.4614C159.731 16.2674 160.191 16.1692 160.656 16.1732C162.614 16.1732 163.795 17.5428 163.795 19.8052V20.3013H158.826V20.381C158.805 20.6454 158.837 20.9115 158.922 21.1623C159.006 21.4131 159.141 21.6431 159.317 21.8374C159.494 22.0317 159.708 22.1862 159.946 22.2908C160.184 22.3954 160.441 22.448 160.7 22.445C161.032 22.4858 161.369 22.4246 161.667 22.2691C161.965 22.1135 162.211 21.8708 162.374 21.5716L163.711 21.5716ZM158.826 19.2498H162.38C162.398 19.008 162.366 18.7651 162.286 18.5367C162.207 18.3084 162.081 18.0996 161.918 17.9238C161.755 17.7481 161.558 17.6092 161.339 17.5161C161.12 17.423 160.885 17.3778 160.648 17.3834C160.408 17.3803 160.17 17.4265 159.947 17.5192C159.725 17.6119 159.523 17.7493 159.353 17.9232C159.183 18.0971 159.049 18.3041 158.959 18.532C158.868 18.7598 158.823 19.0039 158.826 19.2498H158.826Z" fill="white"/>
</svg>
