<svg width="526" height="186" viewBox="0 0 526 186" fill="none" xmlns="http://www.w3.org/2000/svg">
<circle cx="256" cy="111" r="41" fill="#22CE8C"/>
<path d="M242.477 109.292L251.493 117.834L269.525 100.75" stroke="white" stroke-width="5.125" stroke-miterlimit="10" stroke-linecap="round" stroke-linejoin="round"/>
<path d="M91.3192 93.2832L81.8045 96.5424C80.2174 97.086 79.3743 98.8124 79.9214 100.398C80.4686 101.984 82.1987 102.829 83.7858 102.285L93.3005 99.0263C94.8876 98.4826 95.7307 96.7563 95.1836 95.1704C94.6364 93.5845 92.9063 92.7396 91.3192 93.2832Z" fill="#50E9B2"/>
<path d="M129.282 0.984664L119.767 4.24382C118.18 4.78746 117.337 6.51378 117.884 8.09968C118.431 9.68557 120.162 10.5305 121.749 9.98685L131.263 6.72769C132.851 6.18405 133.694 4.45773 133.146 2.87183C132.599 1.28594 130.869 0.441025 129.282 0.984664Z" fill="#50E9B2"/>
<path d="M382.3 73.3243L373.875 67.8314C372.469 66.9151 370.59 67.3133 369.677 68.7206C368.764 70.1279 369.163 72.0116 370.568 72.9278L378.993 78.4207C380.398 79.3369 382.278 78.9388 383.191 77.5315C384.104 76.1241 383.705 74.2405 382.3 73.3243Z" fill="#73E5FF"/>
<path d="M420.483 144.132L411.309 148.242C409.777 148.929 409.095 150.725 409.785 152.254C410.476 153.784 412.277 154.467 413.808 153.781L422.982 149.671C424.514 148.985 425.195 147.189 424.505 145.659C423.815 144.13 422.014 143.446 420.483 144.132Z" fill="#50E9B2"/>
<path d="M523.514 151.077L515.947 144.512C514.677 143.411 512.757 143.549 511.658 144.82C510.559 146.092 510.697 148.015 511.967 149.117L519.534 155.682C520.803 156.783 522.723 156.645 523.822 155.374C524.922 154.102 524.783 152.179 523.514 151.077Z" fill="#FE87A6"/>
<path d="M462.294 130.283L454.281 136.327C452.94 137.338 452.677 139.241 453.692 140.579C454.708 141.916 456.618 142.18 457.959 141.169L465.973 135.126C467.313 134.115 467.577 132.211 466.561 130.874C465.545 129.537 463.635 129.272 462.294 130.283Z" fill="#FE87A6"/>
<path d="M423.253 82.4713L415.24 88.5146C413.899 89.5257 413.636 91.4293 414.651 92.7665C415.667 94.1037 417.577 94.3681 418.918 93.3571L426.932 87.3137C428.272 86.3026 428.536 84.399 427.52 83.0618C426.504 81.7246 424.594 81.4602 423.253 82.4713Z" fill="#50E9B2"/>
<path d="M366.406 1.83063L358.392 7.874C357.051 8.88505 356.788 10.7887 357.804 12.1259C358.819 13.4631 360.729 13.7275 362.07 12.7164L370.084 6.67307C371.425 5.66201 371.688 3.75837 370.672 2.42117C369.657 1.08397 367.746 0.819572 366.406 1.83063Z" fill="#FE87A6"/>
<path d="M154.724 103.427L146.71 109.47C145.37 110.481 145.106 112.385 146.122 113.722C147.138 115.059 149.048 115.323 150.388 114.312L158.402 108.269C159.743 107.258 160.006 105.354 158.991 104.017C157.975 102.68 156.065 102.416 154.724 103.427Z" fill="#FFBA00"/>
<path d="M13.5826 101.511L6.47199 94.4432C5.28053 93.2589 3.34879 93.2589 2.15733 94.4432C0.96587 95.6276 0.96587 97.5477 2.15733 98.7321L9.26789 105.8C10.4594 106.984 12.3911 106.984 13.5826 105.8C14.774 104.616 14.774 102.696 13.5826 101.511Z" fill="#FE87A6"/>
<path d="M46.8241 78.9211C49.0407 78.9211 50.8376 77.1242 50.8376 74.9076C50.8376 72.691 49.0407 70.894 46.8241 70.894C44.6075 70.894 42.8105 72.691 42.8105 74.9076C42.8105 77.1242 44.6075 78.9211 46.8241 78.9211Z" fill="#FE87A6"/>
<path d="M302.014 41.7279C304.23 41.7279 306.027 39.931 306.027 37.7144C306.027 35.4978 304.23 33.7009 302.014 33.7009C299.797 33.7009 298 35.4978 298 37.7144C298 39.931 299.797 41.7279 302.014 41.7279Z" fill="#FE87A6"/>
<path d="M408.506 185.964C410.722 185.964 412.519 184.167 412.519 181.951C412.519 179.734 410.722 177.937 408.506 177.937C406.289 177.937 404.492 179.734 404.492 181.951C404.492 184.167 406.289 185.964 408.506 185.964Z" fill="#73E5FF"/>
<path d="M38.8983 165.778C41.1149 165.778 42.9118 163.981 42.9118 161.764C42.9118 159.548 41.1149 157.751 38.8983 157.751C36.6817 157.751 34.8848 159.548 34.8848 161.764C34.8848 163.981 36.6817 165.778 38.8983 165.778Z" fill="#50E9B2"/>
<path d="M516.271 90.9906C518.488 90.9906 520.285 89.1937 520.285 86.9771C520.285 84.7605 518.488 82.9636 516.271 82.9636C514.055 82.9636 512.258 84.7605 512.258 86.9771C512.258 89.1937 514.055 90.9906 516.271 90.9906Z" fill="#50E9B2"/>
<path d="M479.949 33.6401C482.166 33.6401 483.963 31.8431 483.963 29.6265C483.963 27.4099 482.166 25.613 479.949 25.613C477.732 25.613 475.936 27.4099 475.936 29.6265C475.936 31.8431 477.732 33.6401 479.949 33.6401Z" fill="#50E9B2"/>
<path d="M484.636 163.587C484.705 163.444 484.81 163.323 484.941 163.238C485.071 163.154 485.222 163.109 485.376 163.109C485.529 163.109 485.68 163.154 485.811 163.238C485.941 163.323 486.047 163.444 486.115 163.587L486.721 164.877C486.781 165.002 486.868 165.109 486.976 165.191C487.084 165.273 487.209 165.326 487.341 165.347L488.71 165.554C488.863 165.577 489.006 165.644 489.123 165.747C489.241 165.85 489.328 165.986 489.376 166.138C489.423 166.29 489.429 166.453 489.392 166.609C489.355 166.764 489.277 166.906 489.166 167.017L488.177 168.02C488.082 168.117 488.01 168.236 487.969 168.368C487.928 168.5 487.918 168.64 487.94 168.777L488.173 170.195C488.199 170.352 488.182 170.515 488.124 170.663C488.067 170.811 487.97 170.939 487.846 171.033C487.721 171.127 487.574 171.183 487.421 171.195C487.268 171.206 487.115 171.173 486.978 171.099L485.755 170.431C485.637 170.366 485.505 170.331 485.371 170.331C485.238 170.331 485.106 170.366 484.988 170.431L483.764 171.099C483.628 171.173 483.475 171.206 483.322 171.195C483.168 171.183 483.021 171.127 482.897 171.033C482.773 170.939 482.676 170.811 482.618 170.663C482.56 170.515 482.543 170.353 482.569 170.195L482.803 168.777C482.824 168.64 482.813 168.499 482.771 168.367C482.729 168.235 482.656 168.116 482.56 168.02L481.578 167.015C481.467 166.903 481.389 166.761 481.352 166.606C481.315 166.45 481.321 166.287 481.369 166.135C481.416 165.982 481.504 165.847 481.622 165.744C481.739 165.641 481.883 165.574 482.035 165.551L483.403 165.344C483.535 165.324 483.66 165.27 483.768 165.189C483.876 165.107 483.963 164.999 484.023 164.875L484.636 163.587Z" fill="#FFBA00"/>
<path d="M82.4914 143.349C82.556 143.211 82.6563 143.094 82.781 143.013C82.9057 142.932 83.0497 142.888 83.1967 142.888C83.3436 142.888 83.4876 142.932 83.6123 143.013C83.737 143.094 83.8373 143.211 83.9019 143.349L85.3761 146.468C85.4323 146.587 85.5156 146.691 85.6187 146.769C85.7218 146.848 85.8416 146.899 85.9678 146.918L89.2613 147.418C89.4067 147.44 89.5432 147.504 89.6555 147.603C89.7679 147.702 89.8514 147.832 89.8967 147.978C89.942 148.124 89.9473 148.281 89.912 148.43C89.8766 148.579 89.8021 148.715 89.6967 148.822L87.3135 151.251C87.2227 151.344 87.1547 151.458 87.1154 151.585C87.0761 151.711 87.0666 151.846 87.0877 151.977L87.6505 155.405C87.6757 155.557 87.6599 155.712 87.6047 155.855C87.5495 155.997 87.4572 156.121 87.3383 156.211C87.2194 156.302 87.0786 156.355 86.932 156.366C86.7853 156.377 86.6387 156.345 86.5087 156.273L83.5638 154.654C83.4509 154.592 83.325 154.559 83.1972 154.559C83.0695 154.559 82.9436 154.592 82.8307 154.654L79.8858 156.273C79.7558 156.345 79.6092 156.377 79.4625 156.366C79.3159 156.355 79.1751 156.302 79.0562 156.211C78.9373 156.121 78.845 155.997 78.7898 155.855C78.7346 155.712 78.7188 155.557 78.744 155.405L79.3068 151.977C79.3274 151.845 79.317 151.711 79.2767 151.584C79.2364 151.457 79.1672 151.343 79.0752 151.251L76.692 148.822C76.587 148.714 76.5129 148.579 76.4778 148.43C76.4428 148.281 76.4483 148.124 76.4937 147.978C76.5391 147.832 76.6226 147.703 76.7348 147.604C76.8469 147.505 76.9833 147.44 77.1285 147.418L80.422 146.918C80.5483 146.899 80.6682 146.848 80.7713 146.77C80.8745 146.691 80.9577 146.588 81.0138 146.468L82.4914 143.349Z" fill="#FFBA00"/>
<path d="M478.667 90.687C478.725 90.5761 478.815 90.4826 478.928 90.4172C479.04 90.3518 479.17 90.3171 479.303 90.3171C479.436 90.3171 479.566 90.3518 479.678 90.4172C479.791 90.4826 479.881 90.5761 479.939 90.687L481.267 93.1839C481.318 93.2786 481.393 93.3603 481.486 93.422C481.579 93.4838 481.687 93.5238 481.8 93.5385L484.766 93.9393C484.897 93.9571 485.02 94.0085 485.121 94.0878C485.222 94.167 485.297 94.2709 485.338 94.3878C485.378 94.5046 485.383 94.6297 485.352 94.7489C485.32 94.8681 485.253 94.9767 485.158 95.0624L483.013 97.0049C482.93 97.0795 482.869 97.1717 482.833 97.2735C482.798 97.3752 482.789 97.4835 482.809 97.5889L483.318 100.332C483.34 100.453 483.326 100.577 483.276 100.691C483.226 100.805 483.143 100.903 483.036 100.975C482.929 101.048 482.802 101.091 482.671 101.099C482.539 101.108 482.407 101.083 482.29 101.026L479.636 99.7311C479.535 99.681 479.422 99.6548 479.307 99.6548C479.192 99.6548 479.079 99.681 478.977 99.7311L476.314 101.03C476.197 101.085 476.067 101.109 475.937 101.099C475.807 101.089 475.683 101.046 475.578 100.975C475.472 100.904 475.39 100.807 475.341 100.695C475.291 100.583 475.275 100.461 475.296 100.341L475.805 97.5983C475.824 97.493 475.816 97.3848 475.78 97.283C475.745 97.1813 475.683 97.0891 475.601 97.0143L473.454 95.0719C473.359 94.9861 473.293 94.8774 473.261 94.7581C473.229 94.6388 473.234 94.5136 473.275 94.3968C473.316 94.2799 473.391 94.176 473.492 94.0969C473.594 94.0177 473.716 93.9664 473.847 93.9488L476.814 93.548C476.927 93.533 477.034 93.493 477.127 93.4313C477.22 93.3695 477.295 93.2879 477.347 93.1933L478.667 90.687Z" fill="#FFBA00"/>
<path d="M116.935 48.9119C116.994 48.7967 117.086 48.6998 117.199 48.632C117.312 48.5642 117.442 48.5283 117.575 48.5283C117.708 48.5283 117.838 48.5642 117.951 48.632C118.064 48.6998 118.156 48.7967 118.215 48.9119L120.368 53.131C120.419 53.2316 120.495 53.3186 120.588 53.3845C120.682 53.4503 120.791 53.4931 120.905 53.509L125.72 54.1868C125.851 54.2055 125.975 54.2594 126.077 54.3424C126.179 54.4254 126.254 54.5343 126.296 54.6568C126.337 54.7793 126.342 54.9104 126.31 55.0355C126.278 55.1605 126.211 55.2745 126.116 55.3646L122.631 58.6488C122.547 58.7262 122.485 58.8222 122.448 58.9284C122.411 59.0347 122.402 59.148 122.421 59.2585L123.244 63.8973C123.266 64.0242 123.251 64.1546 123.2 64.2737C123.15 64.3929 123.066 64.4961 122.959 64.5718C122.851 64.6474 122.724 64.6926 122.591 64.7022C122.459 64.7117 122.326 64.6853 122.208 64.6259L117.901 62.4351C117.798 62.383 117.684 62.3558 117.568 62.3558C117.452 62.3558 117.338 62.383 117.236 62.4351L112.929 64.6259C112.811 64.6855 112.678 64.712 112.545 64.7024C112.412 64.6929 112.285 64.6477 112.178 64.572C112.07 64.4963 111.986 64.393 111.936 64.2738C111.886 64.1546 111.871 64.0242 111.894 63.8973L112.716 59.2585C112.735 59.148 112.726 59.0348 112.689 58.9286C112.653 58.8223 112.59 58.7263 112.506 58.6488L109.023 55.3646C108.927 55.2747 108.86 55.1607 108.828 55.0355C108.796 54.9104 108.8 54.779 108.842 54.6564C108.883 54.5338 108.959 54.4248 109.061 54.3418C109.163 54.2588 109.287 54.2051 109.419 54.1868L114.232 53.509C114.347 53.4932 114.456 53.4505 114.55 53.3846C114.643 53.3187 114.719 53.2317 114.77 53.131L116.935 48.9119Z" fill="#FFBA00"/>
</svg>
