<svg width="115" height="24" viewBox="0 0 115 24" fill="none" xmlns="http://www.w3.org/2000/svg">
<path d="M41.7969 18.1875C44.3906 18.1875 46.1562 16.8203 46.5859 14.4922H44.8438C44.4922 15.8516 43.375 16.6562 41.8047 16.6562C39.7344 16.6562 38.4219 14.9922 38.4219 12.3594C38.4219 9.75 39.75 8.07031 41.7969 8.07031C43.3281 8.07031 44.5312 9.01562 44.8438 10.4609H46.5781C46.2812 8.10938 44.3516 6.53906 41.7969 6.53906C38.6484 6.53906 36.6328 8.78906 36.6328 12.3594C36.6328 15.9531 38.6328 18.1875 41.7969 18.1875ZM47.9609 18H49.6484V13.0781C49.6484 11.9141 50.3203 11.1875 51.4062 11.1875C51.7344 11.1875 52.0312 11.2266 52.1641 11.2812V9.71094C52.0391 9.6875 51.8281 9.64844 51.5859 9.64844C50.6172 9.64844 49.8828 10.2188 49.6094 11.1797H49.5703V9.78125H47.9609V18ZM58.2969 15.5859C58.0703 16.3047 57.3594 16.7891 56.3984 16.7891C55.0469 16.7891 54.1875 15.8438 54.1875 14.4141V14.3125H59.9922V13.7344C59.9922 11.2422 58.5703 9.63281 56.2891 9.63281C53.9688 9.63281 52.4844 11.3516 52.4844 13.9297C52.4844 16.5234 53.9453 18.1562 56.3594 18.1562C58.2422 18.1562 59.6641 17.0859 59.8984 15.5859H58.2969ZM56.2891 10.9922C57.4688 10.9922 58.2656 11.875 58.3047 13.1328H54.1953C54.2812 11.8906 55.1094 10.9922 56.2891 10.9922ZM64.3906 18.1406C65.5859 18.1406 66.5234 17.5391 67.0078 16.6016H67.0391V18H68.6797V6.72656H66.9844V11.1484H66.9531C66.4922 10.2422 65.5547 9.64844 64.375 9.64844C62.3125 9.64844 60.9375 11.2969 60.9375 13.8906C60.9375 16.4844 62.3125 18.1406 64.3906 18.1406ZM64.8359 11.0703C66.1328 11.0703 67 12.1875 67 13.8906C67 15.6094 66.1328 16.7109 64.8359 16.7109C63.5 16.7109 62.6641 15.625 62.6641 13.8906C62.6641 12.1641 63.5 11.0703 64.8359 11.0703ZM71.3125 8.45312C71.8516 8.45312 72.2812 8.01562 72.2812 7.48438C72.2812 6.94531 71.8516 6.51562 71.3125 6.51562C70.7734 6.51562 70.3359 6.94531 70.3359 7.48438C70.3359 8.01562 70.7734 8.45312 71.3125 8.45312ZM70.4688 18H72.1562V9.78125H70.4688V18ZM74.375 7.83594V9.78125H73.1797V11.1172H74.375V15.8359C74.375 17.4219 75.0234 18.0547 76.6875 18.0547C77.0625 18.0547 77.4375 18.0234 77.625 17.9766V16.6406C77.5156 16.6641 77.2422 16.6797 77.0703 16.6797C76.3828 16.6797 76.0703 16.3594 76.0703 15.6484V11.1172H77.6328V9.78125H76.0703V7.83594H74.375ZM87.2344 18.1875C89.8281 18.1875 91.5938 16.8203 92.0234 14.4922H90.2812C89.9297 15.8516 88.8125 16.6562 87.2422 16.6562C85.1719 16.6562 83.8594 14.9922 83.8594 12.3594C83.8594 9.75 85.1875 8.07031 87.2344 8.07031C88.7656 8.07031 89.9688 9.01562 90.2812 10.4609H92.0156C91.7188 8.10938 89.7891 6.53906 87.2344 6.53906C84.0859 6.53906 82.0703 8.78906 82.0703 12.3594C82.0703 15.9531 84.0703 18.1875 87.2344 18.1875ZM95.7891 18.1406C96.8672 18.1406 97.9062 17.5625 98.3828 16.6484H98.4219V18H100.039V12.3359C100.039 10.6875 98.7656 9.63281 96.7734 9.63281C94.7422 9.63281 93.4766 10.7266 93.3828 12.2109H94.9766C95.125 11.4766 95.7344 11.0078 96.7109 11.0078C97.7422 11.0078 98.3594 11.5547 98.3594 12.4688V13.1016L96.1094 13.2344C94.1562 13.3438 93.0547 14.2266 93.0547 15.6641C93.0547 17.1406 94.1797 18.1406 95.7891 18.1406ZM96.2578 16.8047C95.3516 16.8047 94.7578 16.3359 94.7578 15.6172C94.7578 14.9141 95.3281 14.4688 96.3359 14.3984L98.3594 14.2734V14.9219C98.3594 15.9922 97.4375 16.8047 96.2578 16.8047ZM101.68 18H103.367V13.0781C103.367 11.9141 104.039 11.1875 105.125 11.1875C105.453 11.1875 105.75 11.2266 105.883 11.2812V9.71094C105.758 9.6875 105.547 9.64844 105.305 9.64844C104.336 9.64844 103.602 10.2188 103.328 11.1797H103.289V9.78125H101.68V18ZM109.656 18.1406C110.852 18.1406 111.789 17.5391 112.273 16.6016H112.305V18H113.945V6.72656H112.25V11.1484H112.219C111.758 10.2422 110.82 9.64844 109.641 9.64844C107.578 9.64844 106.203 11.2969 106.203 13.8906C106.203 16.4844 107.578 18.1406 109.656 18.1406ZM110.102 11.0703C111.398 11.0703 112.266 12.1875 112.266 13.8906C112.266 15.6094 111.398 16.7109 110.102 16.7109C108.766 16.7109 107.93 15.625 107.93 13.8906C107.93 12.1641 108.766 11.0703 110.102 11.0703Z" fill="#478DFF"/>
<path d="M21.5332 3.93359H2.46666C1.65665 3.93359 1 4.59024 1 5.40025V18.6002C1 19.4102 1.65665 20.0669 2.46666 20.0669H21.5332C22.3433 20.0669 22.9999 19.4102 22.9999 18.6002V5.40025C22.9999 4.59024 22.3433 3.93359 21.5332 3.93359Z" stroke="#478DFF" stroke-width="2" stroke-linecap="round" stroke-linejoin="round"/>
<path d="M1 8.3335H22.9999" stroke="#478DFF" stroke-width="2" stroke-linecap="round" stroke-linejoin="round"/>
<path d="M5.3999 12.7334H13.4665" stroke="#478DFF" stroke-width="2" stroke-linecap="round" stroke-linejoin="round"/>
<path d="M5.3999 15.667H10.5332" stroke="#478DFF" stroke-width="2" stroke-linecap="round" stroke-linejoin="round"/>
</svg>
