<svg width="48" height="48" viewBox="0 0 48 48" fill="none" xmlns="http://www.w3.org/2000/svg">
<path d="M3.99854 11.2722H43.9999M3.99854 18.5452H43.9999M18.5445 33.0911H7.63502C5.62586 33.0911 3.99854 31.4638 3.99854 29.4547V7.63575C3.99854 5.62659 5.62586 3.99927 7.63502 3.99927H40.3634C42.3725 3.99927 43.9999 5.62659 43.9999 7.63575V25.8182M11.2724 25.8182H20.3636M29.4539 31.2729V27.6364C29.4539 25.6363 31.0903 23.9999 33.0904 23.9999C35.0905 23.9999 36.7269 25.6363 36.7269 27.6364V31.2729M33.0913 36.7276V38.5459M25.8174 31.2729H40.3634V44.0006H25.8174V31.2729Z" stroke="#478DFF" stroke-width="3" stroke-miterlimit="10" stroke-linecap="round" stroke-linejoin="round"/>
</svg>
