<svg width="40" height="40" viewBox="0 0 40 40" fill="none" xmlns="http://www.w3.org/2000/svg">
<path fill-rule="evenodd" clip-rule="evenodd" d="M28.1014 26.3681L35.6423 33.909C36.1191 34.3879 36.1191 35.162 35.6423 35.6409C35.4193 35.8773 35.1082 36.0107 34.7832 36.009C34.4548 36.008 34.1404 35.8754 33.9105 35.6409L26.3695 28.0999C20.7008 32.8421 12.3036 32.2822 7.31458 26.8294C2.32554 21.3766 2.51229 12.9629 7.73835 7.73688C12.9644 2.51082 21.3781 2.32408 26.8309 7.31312C32.2837 12.3022 32.8436 20.6993 28.1014 26.3681ZM8.0618 11.1657C5.0509 15.6715 5.64214 21.6767 9.47395 25.5088C11.599 27.6467 14.4914 28.845 17.5058 28.8361C22.925 28.8363 27.5897 25.0085 28.6472 19.6935C29.7046 14.3785 26.8603 9.05662 21.8538 6.98259C16.8472 4.90855 11.0727 6.65997 8.0618 11.1657Z" fill="#478DFF"/>
<path d="M35.6423 33.909L35.8195 33.7326L35.8191 33.7322L35.6423 33.909ZM28.1014 26.3681L27.9096 26.2077L27.7628 26.3831L27.9246 26.5448L28.1014 26.3681ZM35.6423 35.6409L35.4651 35.4644L35.4604 35.4693L35.6423 35.6409ZM34.7832 36.009L34.7845 35.759L34.784 35.759L34.7832 36.009ZM33.9105 35.6409L34.089 35.4658L34.0873 35.4641L33.9105 35.6409ZM26.3695 28.0999L26.5463 27.9231L26.3846 27.7614L26.2091 27.9081L26.3695 28.0999ZM7.31458 26.8294L7.13014 26.9982H7.13014L7.31458 26.8294ZM7.73835 7.73688L7.91512 7.91366L7.73835 7.73688ZM9.47395 25.5088L9.65126 25.3325L9.65073 25.332L9.47395 25.5088ZM8.0618 11.1657L7.85394 11.0268L8.0618 11.1657ZM17.5058 28.8361L17.5058 28.5861L17.5051 28.5861L17.5058 28.8361ZM21.8538 6.98259L21.7581 7.21356V7.21356L21.8538 6.98259ZM35.8191 33.7322L28.2781 26.1913L27.9246 26.5448L35.4655 34.0858L35.8191 33.7322ZM35.8195 35.8172C36.3933 35.2409 36.3933 34.309 35.8195 33.7326L35.4652 34.0854C35.8448 34.4667 35.8448 35.0832 35.4652 35.4645L35.8195 35.8172ZM34.782 36.259C35.1763 36.261 35.5537 36.0992 35.8242 35.8124L35.4604 35.4693C35.285 35.6554 35.0402 35.7603 34.7845 35.759L34.782 36.259ZM33.732 35.8159C34.0087 36.0982 34.3871 36.2578 34.7825 36.259L34.784 35.759C34.5224 35.7582 34.2721 35.6526 34.089 35.4659L33.732 35.8159ZM26.1928 28.2767L33.7337 35.8176L34.0873 35.4641L26.5463 27.9231L26.1928 28.2767ZM7.13014 26.9982C12.2095 32.5497 20.7586 33.1197 26.5299 28.2916L26.2091 27.9081C20.6429 32.5645 12.3978 32.0148 7.49903 26.6607L7.13014 26.9982ZM7.56157 7.56011C2.24093 12.8807 2.05081 21.4467 7.13014 26.9982L7.49903 26.6607C2.60028 21.3066 2.78365 13.0451 7.91512 7.91366L7.56157 7.56011ZM26.9997 7.12867C21.4482 2.04934 12.8822 2.23947 7.56157 7.56011L7.91512 7.91366C13.0466 2.78218 21.308 2.59882 26.6621 7.49756L26.9997 7.12867ZM28.2931 26.5285C33.1211 20.7571 32.5511 12.208 26.9997 7.12867L26.6621 7.49756C32.0162 12.3963 32.566 20.6415 27.9096 26.2077L28.2931 26.5285ZM9.65073 25.332C5.90326 21.5843 5.32503 15.7112 8.26966 11.3046L7.85394 11.0268C4.77677 15.6318 5.38103 21.7691 9.29717 25.6855L9.65073 25.332ZM17.5051 28.5861C14.5575 28.5948 11.7292 27.4231 9.65126 25.3325L9.29664 25.685C11.4687 27.8704 14.4254 29.0952 17.5066 29.0861L17.5051 28.5861ZM28.402 19.6447C27.3678 24.8427 22.8057 28.5863 17.5058 28.5861L17.5058 29.0861C23.0443 29.0863 27.8116 25.1742 28.8924 19.7423L28.402 19.6447ZM21.7581 7.21356C26.6545 9.24194 29.4362 14.4467 28.402 19.6447L28.8924 19.7423C29.9731 14.3103 27.0662 8.8713 21.9494 6.75162L21.7581 7.21356ZM8.26966 11.3046C11.2143 6.89804 16.8617 5.18517 21.7581 7.21356L21.9494 6.75162C16.8327 4.63194 10.9311 6.42191 7.85394 11.0268L8.26966 11.3046Z" fill="#478DFF"/>
</svg>
