<svg width="930" height="192" viewBox="0 0 930 192" fill="none" xmlns="http://www.w3.org/2000/svg">
<g filter="url(#filter0_d)">
<rect x="323" y="22" width="285" height="148" rx="16" fill="white"/>
</g>
<path d="M356.22 118.295H350.138V114.357H355.895V112.723H350.138V109.014H356.22V107.317H348.169V120H356.22V118.295ZM361.476 116.599L363.515 120H365.606L362.609 115.324L365.642 110.754H363.55L361.555 114.103H361.52L359.498 110.754H357.371L360.377 115.386L357.327 120H359.384L361.432 116.599H361.476ZM371.653 110.604C370.317 110.604 369.254 111.281 368.709 112.345H368.674V110.754H366.837V123.059H368.735V118.479H368.779C369.307 119.508 370.361 120.158 371.688 120.158C374.009 120.158 375.547 118.304 375.547 115.377C375.547 112.45 374 110.604 371.653 110.604ZM371.152 118.55C369.693 118.55 368.727 117.302 368.727 115.377C368.727 113.47 369.702 112.204 371.152 112.204C372.655 112.204 373.596 113.443 373.596 115.377C373.596 117.319 372.655 118.55 371.152 118.55ZM377.015 120H378.913V114.463C378.913 113.153 379.669 112.336 380.891 112.336C381.26 112.336 381.594 112.38 381.743 112.441V110.675C381.603 110.648 381.365 110.604 381.093 110.604C380.003 110.604 379.177 111.246 378.869 112.327H378.825V110.754H377.015V120ZM388.643 117.284C388.388 118.093 387.588 118.638 386.507 118.638C384.986 118.638 384.02 117.574 384.02 115.966V115.852H390.55V115.201C390.55 112.397 388.95 110.587 386.384 110.587C383.773 110.587 382.104 112.521 382.104 115.421C382.104 118.339 383.747 120.176 386.463 120.176C388.581 120.176 390.181 118.972 390.444 117.284H388.643ZM386.384 112.116C387.711 112.116 388.607 113.109 388.651 114.524H384.028C384.125 113.127 385.057 112.116 386.384 112.116ZM391.859 113.373C391.859 114.718 392.729 115.562 394.487 115.966L395.99 116.317C397.001 116.546 397.344 116.897 397.344 117.495C397.344 118.251 396.641 118.726 395.498 118.726C394.338 118.726 393.679 118.251 393.503 117.284H391.622C391.798 119.042 393.187 120.176 395.498 120.176C397.678 120.176 399.251 119.016 399.251 117.328C399.251 115.992 398.53 115.254 396.641 114.814L395.138 114.472C394.136 114.243 393.714 113.848 393.714 113.268C393.714 112.529 394.399 112.028 395.428 112.028C396.491 112.028 397.15 112.591 397.256 113.487H399.04C398.979 111.782 397.581 110.587 395.428 110.587C393.301 110.587 391.859 111.721 391.859 113.373ZM400.561 113.373C400.561 114.718 401.431 115.562 403.188 115.966L404.691 116.317C405.702 116.546 406.045 116.897 406.045 117.495C406.045 118.251 405.342 118.726 404.199 118.726C403.039 118.726 402.38 118.251 402.204 117.284H400.323C400.499 119.042 401.888 120.176 404.199 120.176C406.379 120.176 407.952 119.016 407.952 117.328C407.952 115.992 407.231 115.254 405.342 114.814L403.839 114.472C402.837 114.243 402.415 113.848 402.415 113.268C402.415 112.529 403.101 112.028 404.129 112.028C405.192 112.028 405.852 112.591 405.957 113.487H407.741C407.68 111.782 406.282 110.587 404.129 110.587C402.002 110.587 400.561 111.721 400.561 113.373ZM415.555 117.284C415.3 118.093 414.5 118.638 413.419 118.638C411.898 118.638 410.932 117.574 410.932 115.966V115.852H417.462V115.201C417.462 112.397 415.862 110.587 413.296 110.587C410.686 110.587 409.016 112.521 409.016 115.421C409.016 118.339 410.659 120.176 413.375 120.176C415.493 120.176 417.093 118.972 417.356 117.284H415.555ZM413.296 112.116C414.623 112.116 415.52 113.109 415.563 114.524H410.94C411.037 113.127 411.969 112.116 413.296 112.116ZM422.41 120.158C423.755 120.158 424.81 119.481 425.354 118.427H425.39V120H427.235V107.317H425.328V112.292H425.293C424.774 111.272 423.72 110.604 422.393 110.604C420.072 110.604 418.525 112.459 418.525 115.377C418.525 118.295 420.072 120.158 422.41 120.158ZM422.911 112.204C424.37 112.204 425.346 113.461 425.346 115.377C425.346 117.311 424.37 118.55 422.911 118.55C421.408 118.55 420.468 117.328 420.468 115.377C420.468 113.435 421.408 112.204 422.911 112.204ZM432.913 120H434.812V114.656C434.812 113.197 435.673 112.23 437.079 112.23C438.415 112.23 439.101 113.048 439.101 114.41V120H441.008V114.041C441.008 111.949 439.795 110.596 437.765 110.596C436.358 110.596 435.348 111.22 434.838 112.301H434.794V107.317H432.913V120ZM443.855 109.26C444.462 109.26 444.945 108.768 444.945 108.17C444.945 107.563 444.462 107.08 443.855 107.08C443.249 107.08 442.757 107.563 442.757 108.17C442.757 108.768 443.249 109.26 443.855 109.26ZM442.906 120H444.805V110.754H442.906V120ZM450.702 123.48C453.339 123.48 455.044 122.039 455.044 119.833V110.754H453.198V112.336H453.163C452.601 111.264 451.528 110.604 450.219 110.604C447.846 110.604 446.334 112.433 446.334 115.342C446.334 118.225 447.854 120.035 450.175 120.035C451.493 120.035 452.583 119.376 453.102 118.374H453.137V119.895C453.137 121.16 452.258 122.004 450.772 122.004C449.691 122.004 448.848 121.494 448.575 120.721H446.668C446.905 122.32 448.522 123.48 450.702 123.48ZM450.685 118.462C449.226 118.462 448.276 117.284 448.276 115.351C448.276 113.426 449.226 112.204 450.685 112.204C452.17 112.204 453.146 113.452 453.146 115.351C453.146 117.258 452.17 118.462 450.685 118.462ZM456.995 120H458.894V114.656C458.894 113.197 459.755 112.23 461.161 112.23C462.497 112.23 463.183 113.048 463.183 114.41V120H465.09V114.041C465.09 111.949 463.877 110.596 461.847 110.596C460.44 110.596 459.43 111.22 458.92 112.301H458.876V107.317H456.995V120ZM473.053 117.284C472.798 118.093 471.998 118.638 470.917 118.638C469.396 118.638 468.43 117.574 468.43 115.966V115.852H474.96V115.201C474.96 112.397 473.36 110.587 470.794 110.587C468.184 110.587 466.514 112.521 466.514 115.421C466.514 118.339 468.157 120.176 470.873 120.176C472.991 120.176 474.591 118.972 474.854 117.284H473.053ZM470.794 112.116C472.121 112.116 473.018 113.109 473.062 114.524H468.438C468.535 113.127 469.467 112.116 470.794 112.116ZM476.437 120H478.335V114.463C478.335 113.153 479.091 112.336 480.312 112.336C480.682 112.336 481.016 112.38 481.165 112.441V110.675C481.024 110.648 480.787 110.604 480.515 110.604C479.425 110.604 478.599 111.246 478.291 112.327H478.247V110.754H476.437V120ZM493.936 113.936C493.769 112.116 492.318 110.587 489.937 110.587C487.309 110.587 485.586 112.441 485.586 115.377C485.586 118.365 487.309 120.176 489.954 120.176C492.178 120.176 493.751 118.84 493.953 116.871H492.125C491.905 117.943 491.141 118.585 489.972 118.585C488.495 118.585 487.52 117.407 487.52 115.377C487.52 113.391 488.486 112.169 489.954 112.169C491.193 112.169 491.932 112.951 492.125 113.936H493.936ZM499.271 120.176C501.916 120.176 503.656 118.356 503.656 115.377C503.656 112.406 501.907 110.587 499.271 110.587C496.634 110.587 494.885 112.406 494.885 115.377C494.885 118.356 496.625 120.176 499.271 120.176ZM499.271 118.611C497.785 118.611 496.818 117.434 496.818 115.377C496.818 113.329 497.785 112.151 499.271 112.151C500.756 112.151 501.723 113.329 501.723 115.377C501.723 117.434 500.765 118.611 499.271 118.611ZM505.124 120H507.022V114.612C507.022 113.18 507.884 112.23 509.22 112.23C510.538 112.23 511.188 112.995 511.188 114.384V120H513.096V114.015C513.096 111.896 511.927 110.596 509.888 110.596C508.464 110.596 507.479 111.246 506.979 112.301H506.935V110.754H505.124V120ZM515.486 120H517.394V112.257H519.239V110.771H517.367V109.901C517.367 109.084 517.754 108.671 518.58 108.671C518.835 108.671 519.09 108.688 519.274 108.724V107.317C519.028 107.273 518.598 107.229 518.211 107.229C516.33 107.229 515.486 108.073 515.486 109.866V110.771H514.212V112.257H515.486V120ZM521.744 109.26C522.351 109.26 522.834 108.768 522.834 108.17C522.834 107.563 522.351 107.08 521.744 107.08C521.138 107.08 520.646 107.563 520.646 108.17C520.646 108.768 521.138 109.26 521.744 109.26ZM520.795 120H522.693V110.754H520.795V120ZM528.107 120.158C529.452 120.158 530.507 119.481 531.052 118.427H531.087V120H532.933V107.317H531.025V112.292H530.99C530.472 111.272 529.417 110.604 528.09 110.604C525.77 110.604 524.223 112.459 524.223 115.377C524.223 118.295 525.77 120.158 528.107 120.158ZM528.608 112.204C530.067 112.204 531.043 113.461 531.043 115.377C531.043 117.311 530.067 118.55 528.608 118.55C527.105 118.55 526.165 117.328 526.165 115.377C526.165 113.435 527.105 112.204 528.608 112.204ZM541.01 117.284C540.755 118.093 539.955 118.638 538.874 118.638C537.354 118.638 536.387 117.574 536.387 115.966V115.852H542.917V115.201C542.917 112.397 541.317 110.587 538.751 110.587C536.141 110.587 534.471 112.521 534.471 115.421C534.471 118.339 536.114 120.176 538.83 120.176C540.948 120.176 542.548 118.972 542.812 117.284H541.01ZM538.751 112.116C540.078 112.116 540.975 113.109 541.019 114.524H536.396C536.492 113.127 537.424 112.116 538.751 112.116ZM544.394 120H546.292V114.612C546.292 113.18 547.153 112.23 548.489 112.23C549.808 112.23 550.458 112.995 550.458 114.384V120H552.365V114.015C552.365 111.896 551.196 110.596 549.157 110.596C547.733 110.596 546.749 111.246 546.248 112.301H546.204V110.754H544.394V120ZM562.139 113.936C561.972 112.116 560.521 110.587 558.14 110.587C555.512 110.587 553.789 112.441 553.789 115.377C553.789 118.365 555.512 120.176 558.157 120.176C560.381 120.176 561.954 118.84 562.156 116.871H560.328C560.108 117.943 559.344 118.585 558.175 118.585C556.698 118.585 555.723 117.407 555.723 115.377C555.723 113.391 556.689 112.169 558.157 112.169C559.396 112.169 560.135 112.951 560.328 113.936H562.139ZM569.627 117.284C569.372 118.093 568.572 118.638 567.491 118.638C565.971 118.638 565.004 117.574 565.004 115.966V115.852H571.534V115.201C571.534 112.397 569.935 110.587 567.368 110.587C564.758 110.587 563.088 112.521 563.088 115.421C563.088 118.339 564.731 120.176 567.447 120.176C569.565 120.176 571.165 118.972 571.429 117.284H569.627ZM567.368 112.116C568.695 112.116 569.592 113.109 569.636 114.524H565.013C565.109 113.127 566.041 112.116 567.368 112.116ZM348.951 133.26C349.558 133.26 350.041 132.768 350.041 132.17C350.041 131.563 349.558 131.08 348.951 131.08C348.345 131.08 347.853 131.563 347.853 132.17C347.853 132.768 348.345 133.26 348.951 133.26ZM348.002 144H349.9V134.754H348.002V144ZM351.843 144H353.741V138.612C353.741 137.18 354.603 136.23 355.938 136.23C357.257 136.23 357.907 136.995 357.907 138.384V144H359.814V138.015C359.814 135.896 358.646 134.596 356.606 134.596C355.183 134.596 354.198 135.246 353.697 136.301H353.653V134.754H351.843V144ZM365.141 137.373C365.141 138.718 366.011 139.562 367.769 139.966L369.271 140.317C370.282 140.546 370.625 140.897 370.625 141.495C370.625 142.251 369.922 142.726 368.779 142.726C367.619 142.726 366.96 142.251 366.784 141.284H364.903C365.079 143.042 366.468 144.176 368.779 144.176C370.959 144.176 372.532 143.016 372.532 141.328C372.532 139.992 371.812 139.254 369.922 138.814L368.419 138.472C367.417 138.243 366.995 137.848 366.995 137.268C366.995 136.529 367.681 136.028 368.709 136.028C369.772 136.028 370.432 136.591 370.537 137.487H372.321C372.26 135.782 370.862 134.587 368.709 134.587C366.582 134.587 365.141 135.721 365.141 137.373ZM378.825 134.604C377.489 134.604 376.426 135.281 375.881 136.345H375.846V134.754H374.009V147.059H375.907V142.479H375.951C376.479 143.508 377.533 144.158 378.86 144.158C381.181 144.158 382.719 142.304 382.719 139.377C382.719 136.45 381.172 134.604 378.825 134.604ZM378.324 142.55C376.865 142.55 375.898 141.302 375.898 139.377C375.898 137.47 376.874 136.204 378.324 136.204C379.827 136.204 380.768 137.443 380.768 139.377C380.768 141.319 379.827 142.55 378.324 142.55ZM390.312 141.284C390.058 142.093 389.258 142.638 388.177 142.638C386.656 142.638 385.689 141.574 385.689 139.966V139.852H392.22V139.201C392.22 136.397 390.62 134.587 388.054 134.587C385.443 134.587 383.773 136.521 383.773 139.421C383.773 142.339 385.417 144.176 388.133 144.176C390.251 144.176 391.851 142.972 392.114 141.284H390.312ZM388.054 136.116C389.381 136.116 390.277 137.109 390.321 138.524H385.698C385.795 137.127 386.727 136.116 388.054 136.116ZM396.403 144.158C397.616 144.158 398.785 143.508 399.321 142.479H399.365V144H401.185V137.628C401.185 135.773 399.752 134.587 397.511 134.587C395.226 134.587 393.802 135.817 393.696 137.487H395.489C395.656 136.661 396.342 136.134 397.44 136.134C398.601 136.134 399.295 136.749 399.295 137.777V138.489L396.764 138.639C394.566 138.762 393.327 139.755 393.327 141.372C393.327 143.033 394.593 144.158 396.403 144.158ZM396.931 142.655C395.911 142.655 395.243 142.128 395.243 141.319C395.243 140.528 395.885 140.027 397.019 139.948L399.295 139.808V140.537C399.295 141.741 398.258 142.655 396.931 142.655ZM405.017 138.718H404.999V131.317H403.101V144H404.999V140.678L405.79 139.896L408.928 144H411.134L407.152 138.735L410.984 134.754H408.752L405.017 138.718ZM413.129 133.26C413.735 133.26 414.219 132.768 414.219 132.17C414.219 131.563 413.735 131.08 413.129 131.08C412.522 131.08 412.03 131.563 412.03 132.17C412.03 132.768 412.522 133.26 413.129 133.26ZM412.18 144H414.078V134.754H412.18V144ZM416.021 144H417.919V138.612C417.919 137.18 418.78 136.23 420.116 136.23C421.435 136.23 422.085 136.995 422.085 138.384V144H423.992V138.015C423.992 135.896 422.823 134.596 420.784 134.596C419.36 134.596 418.376 135.246 417.875 136.301H417.831V134.754H416.021V144ZM429.784 147.48C432.421 147.48 434.126 146.039 434.126 143.833V134.754H432.28V136.336H432.245C431.683 135.264 430.61 134.604 429.301 134.604C426.928 134.604 425.416 136.433 425.416 139.342C425.416 142.225 426.937 144.035 429.257 144.035C430.575 144.035 431.665 143.376 432.184 142.374H432.219V143.895C432.219 145.16 431.34 146.004 429.854 146.004C428.773 146.004 427.93 145.494 427.657 144.721H425.75C425.987 146.32 427.604 147.48 429.784 147.48ZM429.767 142.462C428.308 142.462 427.358 141.284 427.358 139.351C427.358 137.426 428.308 136.204 429.767 136.204C431.252 136.204 432.228 137.452 432.228 139.351C432.228 141.258 431.252 142.462 429.767 142.462ZM445.789 141.284C445.534 142.093 444.734 142.638 443.653 142.638C442.133 142.638 441.166 141.574 441.166 139.966V139.852H447.696V139.201C447.696 136.397 446.097 134.587 443.53 134.587C440.92 134.587 439.25 136.521 439.25 139.421C439.25 142.339 440.894 144.176 443.609 144.176C445.728 144.176 447.327 142.972 447.591 141.284H445.789ZM443.53 136.116C444.857 136.116 445.754 137.109 445.798 138.524H441.175C441.271 137.127 442.203 136.116 443.53 136.116ZM449.173 144H451.071V138.612C451.071 137.18 451.933 136.23 453.269 136.23C454.587 136.23 455.237 136.995 455.237 138.384V144H457.145V138.015C457.145 135.896 455.976 134.596 453.937 134.596C452.513 134.596 451.528 135.246 451.027 136.301H450.983V134.754H449.173V144ZM462.937 147.48C465.573 147.48 467.278 146.039 467.278 143.833V134.754H465.433V136.336H465.397C464.835 135.264 463.763 134.604 462.453 134.604C460.08 134.604 458.568 136.433 458.568 139.342C458.568 142.225 460.089 144.035 462.409 144.035C463.728 144.035 464.817 143.376 465.336 142.374H465.371V143.895C465.371 145.16 464.492 146.004 463.007 146.004C461.926 146.004 461.082 145.494 460.81 144.721H458.902C459.14 146.32 460.757 147.48 462.937 147.48ZM462.919 142.462C461.46 142.462 460.511 141.284 460.511 139.351C460.511 137.426 461.46 136.204 462.919 136.204C464.404 136.204 465.38 137.452 465.38 139.351C465.38 141.258 464.404 142.462 462.919 142.462ZM469.229 144H471.128V131.317H469.229V144ZM474.09 133.26C474.696 133.26 475.18 132.768 475.18 132.17C475.18 131.563 474.696 131.08 474.09 131.08C473.483 131.08 472.991 131.563 472.991 132.17C472.991 132.768 473.483 133.26 474.09 133.26ZM473.141 144H475.039V134.754H473.141V144ZM476.814 137.373C476.814 138.718 477.685 139.562 479.442 139.966L480.945 140.317C481.956 140.546 482.299 140.897 482.299 141.495C482.299 142.251 481.596 142.726 480.453 142.726C479.293 142.726 478.634 142.251 478.458 141.284H476.577C476.753 143.042 478.142 144.176 480.453 144.176C482.633 144.176 484.206 143.016 484.206 141.328C484.206 139.992 483.485 139.254 481.596 138.814L480.093 138.472C479.091 138.243 478.669 137.848 478.669 137.268C478.669 136.529 479.354 136.028 480.383 136.028C481.446 136.028 482.105 136.591 482.211 137.487H483.995C483.934 135.782 482.536 134.587 480.383 134.587C478.256 134.587 476.814 135.721 476.814 137.373ZM485.753 144H487.651V138.656C487.651 137.197 488.513 136.23 489.919 136.23C491.255 136.23 491.94 137.048 491.94 138.41V144H493.848V138.041C493.848 135.949 492.635 134.596 490.604 134.596C489.198 134.596 488.188 135.22 487.678 136.301H487.634V131.317H485.753V144Z" fill="#121131"/>
<path d="M359.402 86.625C366.727 86.625 371.16 81 371.16 71.6641C371.16 61.3711 365.613 57.1719 359.402 57.1719C353.113 57.1719 348.543 61.332 348.543 67.1719C348.543 72.6602 352.664 76.3711 357.898 76.3711C361.59 76.3711 364.383 74.5352 365.398 71.8008H365.516C365.555 77.8555 363.66 81.957 359.422 81.957C357.059 81.957 355.32 80.8828 354.695 78.8711H348.875C349.617 83.4414 353.875 86.625 359.402 86.625ZM359.422 71.9961C356.473 71.9961 354.285 69.8867 354.285 66.9375C354.285 64.0859 356.57 61.8789 359.48 61.8789C362.371 61.8789 364.656 64.125 364.656 67.0352C364.656 69.9258 362.391 71.9961 359.422 71.9961ZM385.438 86.625C391.902 86.625 396.336 82.582 396.336 76.625C396.336 71.2539 392.488 67.3867 387.117 67.3867C384.266 67.3867 381.941 68.5391 380.77 70.4336H380.652L381.336 62.5039H394.637V57.8164H376.648L375.359 74.3594H380.496C381.453 72.6602 383.211 71.6055 385.477 71.6055C388.562 71.6055 390.711 73.7344 390.711 76.7617C390.711 79.8281 388.562 81.957 385.457 81.957C382.742 81.957 380.652 80.3555 380.32 77.9141H374.871C375.027 83.0312 379.402 86.625 385.438 86.625ZM405.242 72.0938C409.305 72.0938 411.961 69.2422 411.961 64.7109C411.961 60.1406 409.285 57.3867 405.242 57.3867C401.18 57.3867 398.504 60.1406 398.504 64.7305C398.504 69.2617 401.16 72.0938 405.242 72.0938ZM407.684 86L426.785 57.8164H422.566L403.445 86H407.684ZM405.242 68.793C403.68 68.793 402.625 67.4453 402.625 64.7305C402.625 61.9766 403.68 60.707 405.242 60.707C406.805 60.707 407.84 61.9766 407.84 64.7305C407.84 67.4453 406.785 68.793 405.242 68.793ZM425.008 86.4102C429.07 86.4102 431.727 83.5586 431.727 79.0273C431.727 74.4375 429.051 71.6836 425.008 71.6836C420.945 71.6836 418.27 74.457 418.27 79.0273C418.27 83.5781 420.926 86.4102 425.008 86.4102ZM425.008 83.0898C423.445 83.0898 422.391 81.7617 422.391 79.0273C422.391 76.2734 423.445 75.0039 425.008 75.0039C426.57 75.0039 427.605 76.293 427.605 79.0273C427.605 81.7617 426.551 83.0898 425.008 83.0898Z" fill="#FF9518"/>
<g filter="url(#filter1_d)">
<rect x="624" y="22" width="285" height="148" rx="16" fill="white"/>
</g>
<path d="M651.138 132V126.691H656.587V125.03H651.138V121.014H657.088V119.317H649.169V132H651.138ZM664.383 129.284C664.128 130.093 663.328 130.638 662.247 130.638C660.727 130.638 659.76 129.574 659.76 127.966V127.852H666.29V127.201C666.29 124.397 664.69 122.587 662.124 122.587C659.514 122.587 657.844 124.521 657.844 127.421C657.844 130.339 659.487 132.176 662.203 132.176C664.321 132.176 665.921 130.972 666.185 129.284H664.383ZM662.124 124.116C663.451 124.116 664.348 125.109 664.392 126.524H659.769C659.865 125.127 660.797 124.116 662.124 124.116ZM667.837 132H669.735V119.317H667.837V132ZM672.24 120.565V122.754H670.896V124.257H672.24V129.565C672.24 131.35 672.97 132.062 674.842 132.062C675.264 132.062 675.686 132.026 675.896 131.974V130.471C675.773 130.497 675.466 130.515 675.272 130.515C674.499 130.515 674.147 130.154 674.147 129.354V124.257H675.905V122.754H674.147V120.565H672.24ZM681.68 120.565V122.754H680.335V124.257H681.68V129.565C681.68 131.35 682.409 132.062 684.281 132.062C684.703 132.062 685.125 132.026 685.336 131.974V130.471C685.213 130.497 684.905 130.515 684.712 130.515C683.938 130.515 683.587 130.154 683.587 129.354V124.257H685.345V122.754H683.587V120.565H681.68ZM686.979 132H688.878V126.656C688.878 125.197 689.739 124.23 691.146 124.23C692.481 124.23 693.167 125.048 693.167 126.41V132H695.074V126.041C695.074 123.949 693.861 122.596 691.831 122.596C690.425 122.596 689.414 123.22 688.904 124.301H688.86V119.317H686.979V132ZM703.037 129.284C702.782 130.093 701.982 130.638 700.901 130.638C699.381 130.638 698.414 129.574 698.414 127.966V127.852H704.944V127.201C704.944 124.397 703.345 122.587 700.778 122.587C698.168 122.587 696.498 124.521 696.498 127.421C696.498 130.339 698.142 132.176 700.857 132.176C702.976 132.176 704.575 130.972 704.839 129.284H703.037ZM700.778 124.116C702.105 124.116 703.002 125.109 703.046 126.524H698.423C698.52 125.127 699.451 124.116 700.778 124.116ZM707.291 135.445C709.207 135.445 710.121 134.725 710.912 132.483L714.375 122.754H712.371L710.033 130.277H709.998L707.66 122.754H705.604L708.943 132.009C708.943 132.018 708.776 132.562 708.776 132.58C708.486 133.529 708.012 133.898 707.133 133.898C706.975 133.898 706.658 133.898 706.518 133.863V135.401C706.658 135.428 707.133 135.445 707.291 135.445ZM718.98 125.373C718.98 126.718 719.851 127.562 721.608 127.966L723.111 128.317C724.122 128.546 724.465 128.897 724.465 129.495C724.465 130.251 723.762 130.726 722.619 130.726C721.459 130.726 720.8 130.251 720.624 129.284H718.743C718.919 131.042 720.308 132.176 722.619 132.176C724.799 132.176 726.372 131.016 726.372 129.328C726.372 127.992 725.651 127.254 723.762 126.814L722.259 126.472C721.257 126.243 720.835 125.848 720.835 125.268C720.835 124.529 721.521 124.028 722.549 124.028C723.612 124.028 724.271 124.591 724.377 125.487H726.161C726.1 123.782 724.702 122.587 722.549 122.587C720.422 122.587 718.98 123.721 718.98 125.373ZM732.665 122.604C731.329 122.604 730.266 123.281 729.721 124.345H729.686V122.754H727.849V135.059H729.747V130.479H729.791C730.318 131.508 731.373 132.158 732.7 132.158C735.021 132.158 736.559 130.304 736.559 127.377C736.559 124.45 735.012 122.604 732.665 122.604ZM732.164 130.55C730.705 130.55 729.738 129.302 729.738 127.377C729.738 125.47 730.714 124.204 732.164 124.204C733.667 124.204 734.607 125.443 734.607 127.377C734.607 129.319 733.667 130.55 732.164 130.55ZM741.999 132.176C744.645 132.176 746.385 130.356 746.385 127.377C746.385 124.406 744.636 122.587 741.999 122.587C739.362 122.587 737.613 124.406 737.613 127.377C737.613 130.356 739.354 132.176 741.999 132.176ZM741.999 130.611C740.514 130.611 739.547 129.434 739.547 127.377C739.547 125.329 740.514 124.151 741.999 124.151C743.484 124.151 744.451 125.329 744.451 127.377C744.451 129.434 743.493 130.611 741.999 130.611ZM749.839 126.718H749.821V119.317H747.923V132H749.821V128.678L750.612 127.896L753.75 132H755.956L751.975 126.735L755.807 122.754H753.574L749.839 126.718ZM762.627 129.284C762.372 130.093 761.572 130.638 760.491 130.638C758.971 130.638 758.004 129.574 758.004 127.966V127.852H764.534V127.201C764.534 124.397 762.935 122.587 760.368 122.587C757.758 122.587 756.088 124.521 756.088 127.421C756.088 130.339 757.731 132.176 760.447 132.176C762.565 132.176 764.165 130.972 764.429 129.284H762.627ZM760.368 124.116C761.695 124.116 762.592 125.109 762.636 126.524H758.013C758.109 125.127 759.041 124.116 760.368 124.116ZM769.667 132H771.565V126.287C771.565 125.101 772.365 124.222 773.49 124.222C774.562 124.222 775.239 124.898 775.239 125.962V132H777.103V126.226C777.103 125.057 777.885 124.222 779.01 124.222C780.135 124.222 780.776 124.907 780.776 126.103V132H782.684V125.646C782.684 123.809 781.488 122.596 779.66 122.596C778.342 122.596 777.252 123.281 776.777 124.406H776.733C776.364 123.255 775.433 122.596 774.149 122.596C772.901 122.596 771.935 123.281 771.521 124.31H771.478V122.754H769.667V132ZM788.493 132.176C791.139 132.176 792.879 130.356 792.879 127.377C792.879 124.406 791.13 122.587 788.493 122.587C785.856 122.587 784.107 124.406 784.107 127.377C784.107 130.356 785.848 132.176 788.493 132.176ZM788.493 130.611C787.008 130.611 786.041 129.434 786.041 127.377C786.041 125.329 787.008 124.151 788.493 124.151C789.979 124.151 790.945 125.329 790.945 127.377C790.945 129.434 789.987 130.611 788.493 130.611ZM794.347 132H796.245V126.463C796.245 125.153 797.001 124.336 798.223 124.336C798.592 124.336 798.926 124.38 799.075 124.441V122.675C798.935 122.648 798.697 122.604 798.425 122.604C797.335 122.604 796.509 123.246 796.201 124.327H796.157V122.754H794.347V132ZM805.975 129.284C805.72 130.093 804.92 130.638 803.839 130.638C802.318 130.638 801.352 129.574 801.352 127.966V127.852H807.882V127.201C807.882 124.397 806.282 122.587 803.716 122.587C801.105 122.587 799.436 124.521 799.436 127.421C799.436 130.339 801.079 132.176 803.795 132.176C805.913 132.176 807.513 130.972 807.776 129.284H805.975ZM803.716 124.116C805.043 124.116 805.939 125.109 805.983 126.524H801.36C801.457 125.127 802.389 124.116 803.716 124.116ZM820.951 125.936C820.784 124.116 819.334 122.587 816.952 122.587C814.324 122.587 812.602 124.441 812.602 127.377C812.602 130.365 814.324 132.176 816.97 132.176C819.193 132.176 820.767 130.84 820.969 128.871H819.141C818.921 129.943 818.156 130.585 816.987 130.585C815.511 130.585 814.535 129.407 814.535 127.377C814.535 125.391 815.502 124.169 816.97 124.169C818.209 124.169 818.947 124.951 819.141 125.936H820.951ZM822.384 132H824.282V119.317H822.384V132ZM832.359 129.284C832.104 130.093 831.305 130.638 830.224 130.638C828.703 130.638 827.736 129.574 827.736 127.966V127.852H834.267V127.201C834.267 124.397 832.667 122.587 830.101 122.587C827.49 122.587 825.82 124.521 825.82 127.421C825.82 130.339 827.464 132.176 830.18 132.176C832.298 132.176 833.897 130.972 834.161 129.284H832.359ZM830.101 124.116C831.428 124.116 832.324 125.109 832.368 126.524H827.745C827.842 125.127 828.773 124.116 830.101 124.116ZM838.45 132.158C839.663 132.158 840.832 131.508 841.368 130.479H841.412V132H843.231V125.628C843.231 123.773 841.799 122.587 839.558 122.587C837.272 122.587 835.849 123.817 835.743 125.487H837.536C837.703 124.661 838.389 124.134 839.487 124.134C840.647 124.134 841.342 124.749 841.342 125.777V126.489L838.811 126.639C836.613 126.762 835.374 127.755 835.374 129.372C835.374 131.033 836.64 132.158 838.45 132.158ZM838.978 130.655C837.958 130.655 837.29 130.128 837.29 129.319C837.29 128.528 837.932 128.027 839.065 127.948L841.342 127.808V128.537C841.342 129.741 840.305 130.655 838.978 130.655ZM845.077 132H846.976V126.463C846.976 125.153 847.731 124.336 848.953 124.336C849.322 124.336 849.656 124.38 849.806 124.441V122.675C849.665 122.648 849.428 122.604 849.155 122.604C848.065 122.604 847.239 123.246 846.932 124.327H846.888V122.754H845.077V132ZM851.054 132H852.952V119.317H851.054V132ZM855.826 135.445C857.742 135.445 858.656 134.725 859.447 132.483L862.91 122.754H860.906L858.568 130.277H858.533L856.195 122.754H854.139L857.479 132.009C857.479 132.018 857.312 132.562 857.312 132.58C857.021 133.529 856.547 133.898 855.668 133.898C855.51 133.898 855.193 133.898 855.053 133.863V135.401C855.193 135.428 855.668 135.445 855.826 135.445Z" fill="#121131"/>
<path d="M661.359 98.625C667.648 98.625 672.219 94.4648 672.219 88.625C672.219 83.332 668.488 79.4453 663.039 79.4453C659.23 79.4453 656.457 81.3594 655.363 83.9766H655.246C655.227 77.8047 657.258 73.8398 661.359 73.8398C663.684 73.8398 665.363 75.0117 666.027 77.0234H671.848C671.066 72.375 666.848 69.1719 661.379 69.1719C654.055 69.1719 649.602 74.7969 649.602 84.1328C649.602 93.8594 654.621 98.625 661.359 98.625ZM661.281 93.9375C658.391 93.9375 656.125 91.6719 656.125 88.7617C656.125 85.8906 658.352 83.8008 661.34 83.8008C664.289 83.8008 666.477 85.9102 666.477 88.8789C666.457 91.7109 664.172 93.9375 661.281 93.9375ZM686.789 98.625C693.508 98.625 698.215 95.2656 698.215 90.3828C698.215 86.6719 695.5 83.9375 691.652 83.1758V83.0586C694.953 82.2383 697.18 79.8164 697.18 76.7891C697.18 72.375 692.902 69.1914 686.789 69.1914C680.676 69.1914 676.379 72.3945 676.379 76.7695C676.379 79.8359 678.625 82.2578 681.945 83.0586V83.1758C678.098 83.918 675.363 86.6523 675.363 90.3633C675.363 95.2461 680.051 98.625 686.789 98.625ZM686.789 81.2812C684.113 81.2812 682.219 79.6797 682.219 77.375C682.219 75.0508 684.113 73.4492 686.789 73.4492C689.445 73.4492 691.359 75.0508 691.359 77.375C691.359 79.6797 689.445 81.2812 686.789 81.2812ZM686.789 94.3281C683.684 94.3281 681.516 92.4922 681.516 89.9336C681.516 87.4141 683.684 85.5781 686.789 85.5781C689.895 85.5781 692.043 87.3945 692.043 89.9336C692.043 92.4922 689.895 94.3281 686.789 94.3281ZM707.453 84.0938C711.516 84.0938 714.172 81.2422 714.172 76.7109C714.172 72.1406 711.496 69.3867 707.453 69.3867C703.391 69.3867 700.715 72.1406 700.715 76.7305C700.715 81.2617 703.371 84.0938 707.453 84.0938ZM709.895 98L728.996 69.8164H724.777L705.656 98H709.895ZM707.453 80.793C705.891 80.793 704.836 79.4453 704.836 76.7305C704.836 73.9766 705.891 72.707 707.453 72.707C709.016 72.707 710.051 73.9766 710.051 76.7305C710.051 79.4453 708.996 80.793 707.453 80.793ZM727.219 98.4102C731.281 98.4102 733.938 95.5586 733.938 91.0273C733.938 86.4375 731.262 83.6836 727.219 83.6836C723.156 83.6836 720.48 86.457 720.48 91.0273C720.48 95.5781 723.137 98.4102 727.219 98.4102ZM727.219 95.0898C725.656 95.0898 724.602 93.7617 724.602 91.0273C724.602 88.2734 725.656 87.0039 727.219 87.0039C728.781 87.0039 729.816 88.293 729.816 91.0273C729.816 93.7617 728.762 95.0898 727.219 95.0898Z" fill="#00BB13"/>
<g filter="url(#filter2_d)">
<rect x="23" y="22" width="285" height="148" rx="16" fill="white"/>
</g>
<path d="M47.5977 115.52C47.7207 117.778 49.6279 119.211 52.4932 119.211C55.4463 119.211 57.3271 117.708 57.3271 115.317C57.3271 113.472 56.2373 112.408 53.583 111.846L52.1943 111.556C50.5508 111.204 49.9004 110.589 49.9004 109.666C49.9004 108.506 50.9902 107.785 52.4756 107.785C54.0137 107.785 55.0596 108.567 55.1826 109.842H57.0898C57.0283 107.627 55.1914 106.106 52.502 106.106C49.8037 106.106 47.8965 107.601 47.8965 109.771C47.8965 111.6 49.0479 112.777 51.5879 113.313L52.9678 113.604C54.6641 113.973 55.332 114.588 55.332 115.572C55.332 116.706 54.1807 117.532 52.5723 117.532C50.8848 117.532 49.6895 116.776 49.5137 115.52H47.5977ZM61.5811 119.158C62.7939 119.158 63.9629 118.508 64.499 117.479H64.543V119H66.3623V112.628C66.3623 110.773 64.9297 109.587 62.6885 109.587C60.4033 109.587 58.9795 110.817 58.874 112.487H60.667C60.834 111.661 61.5195 111.134 62.6182 111.134C63.7783 111.134 64.4727 111.749 64.4727 112.777V113.489L61.9414 113.639C59.7441 113.762 58.5049 114.755 58.5049 116.372C58.5049 118.033 59.7705 119.158 61.5811 119.158ZM62.1084 117.655C61.0889 117.655 60.4209 117.128 60.4209 116.319C60.4209 115.528 61.0625 115.027 62.1963 114.948L64.4727 114.808V115.537C64.4727 116.741 63.4355 117.655 62.1084 117.655ZM80.3896 109.754H78.5088L76.8213 117.031H76.7773L74.8438 109.754H73.0156L71.0908 117.031H71.0557L69.3682 109.754H67.4697L70.0098 119H71.9697L73.8945 112.074H73.9385L75.8809 119H77.8584L80.3896 109.754ZM87.9131 119.158C89.126 119.158 90.2949 118.508 90.8311 117.479H90.875V119H92.6943V112.628C92.6943 110.773 91.2617 109.587 89.0205 109.587C86.7354 109.587 85.3115 110.817 85.2061 112.487H86.999C87.166 111.661 87.8516 111.134 88.9502 111.134C90.1104 111.134 90.8047 111.749 90.8047 112.777V113.489L88.2734 113.639C86.0762 113.762 84.8369 114.755 84.8369 116.372C84.8369 118.033 86.1025 119.158 87.9131 119.158ZM88.4404 117.655C87.4209 117.655 86.7529 117.128 86.7529 116.319C86.7529 115.528 87.3945 115.027 88.5283 114.948L90.8047 114.808V115.537C90.8047 116.741 89.7676 117.655 88.4404 117.655ZM94.54 119H96.4385V113.612C96.4385 112.18 97.2998 111.23 98.6357 111.23C99.9541 111.23 100.604 111.995 100.604 113.384V119H102.512V113.015C102.512 110.896 101.343 109.596 99.3037 109.596C97.8799 109.596 96.8955 110.246 96.3945 111.301H96.3506V109.754H94.54V119ZM109.016 108.26C109.622 108.26 110.105 107.768 110.105 107.17C110.105 106.563 109.622 106.08 109.016 106.08C108.409 106.08 107.917 106.563 107.917 107.17C107.917 107.768 108.409 108.26 109.016 108.26ZM108.066 119H109.965V109.754H108.066V119ZM111.907 119H113.806V113.287C113.806 112.101 114.605 111.222 115.73 111.222C116.803 111.222 117.479 111.898 117.479 112.962V119H119.343V113.226C119.343 112.057 120.125 111.222 121.25 111.222C122.375 111.222 123.017 111.907 123.017 113.103V119H124.924V112.646C124.924 110.809 123.729 109.596 121.9 109.596C120.582 109.596 119.492 110.281 119.018 111.406H118.974C118.604 110.255 117.673 109.596 116.39 109.596C115.142 109.596 114.175 110.281 113.762 111.31H113.718V109.754H111.907V119ZM131.577 109.604C130.241 109.604 129.178 110.281 128.633 111.345H128.598V109.754H126.761V122.059H128.659V117.479H128.703C129.23 118.508 130.285 119.158 131.612 119.158C133.933 119.158 135.471 117.304 135.471 114.377C135.471 111.45 133.924 109.604 131.577 109.604ZM131.076 117.55C129.617 117.55 128.65 116.302 128.65 114.377C128.65 112.47 129.626 111.204 131.076 111.204C132.579 111.204 133.52 112.443 133.52 114.377C133.52 116.319 132.579 117.55 131.076 117.55ZM136.938 119H138.837V113.463C138.837 112.153 139.593 111.336 140.814 111.336C141.184 111.336 141.518 111.38 141.667 111.441V109.675C141.526 109.648 141.289 109.604 141.017 109.604C139.927 109.604 139.101 110.246 138.793 111.327H138.749V109.754H136.938V119ZM146.413 119.176C149.059 119.176 150.799 117.356 150.799 114.377C150.799 111.406 149.05 109.587 146.413 109.587C143.776 109.587 142.027 111.406 142.027 114.377C142.027 117.356 143.768 119.176 146.413 119.176ZM146.413 117.611C144.928 117.611 143.961 116.434 143.961 114.377C143.961 112.329 144.928 111.151 146.413 111.151C147.898 111.151 148.865 112.329 148.865 114.377C148.865 116.434 147.907 117.611 146.413 117.611ZM159.913 109.754H157.927L155.606 117.146H155.571L153.251 109.754H151.229L154.561 119H156.6L159.913 109.754ZM166.865 116.284C166.61 117.093 165.811 117.638 164.729 117.638C163.209 117.638 162.242 116.574 162.242 114.966V114.852H168.772V114.201C168.772 111.397 167.173 109.587 164.606 109.587C161.996 109.587 160.326 111.521 160.326 114.421C160.326 117.339 161.97 119.176 164.686 119.176C166.804 119.176 168.403 117.972 168.667 116.284H166.865ZM164.606 111.116C165.934 111.116 166.83 112.109 166.874 113.524H162.251C162.348 112.127 163.279 111.116 164.606 111.116ZM170.249 119H172.147V113.287C172.147 112.101 172.947 111.222 174.072 111.222C175.145 111.222 175.821 111.898 175.821 112.962V119H177.685V113.226C177.685 112.057 178.467 111.222 179.592 111.222C180.717 111.222 181.358 111.907 181.358 113.103V119H183.266V112.646C183.266 110.809 182.07 109.596 180.242 109.596C178.924 109.596 177.834 110.281 177.359 111.406H177.315C176.946 110.255 176.015 109.596 174.731 109.596C173.483 109.596 172.517 110.281 172.104 111.31H172.06V109.754H170.249V119ZM191.229 116.284C190.974 117.093 190.174 117.638 189.093 117.638C187.572 117.638 186.605 116.574 186.605 114.966V114.852H193.136V114.201C193.136 111.397 191.536 109.587 188.97 109.587C186.359 109.587 184.689 111.521 184.689 114.421C184.689 117.339 186.333 119.176 189.049 119.176C191.167 119.176 192.767 117.972 193.03 116.284H191.229ZM188.97 111.116C190.297 111.116 191.193 112.109 191.237 113.524H186.614C186.711 112.127 187.643 111.116 188.97 111.116ZM194.612 119H196.511V113.612C196.511 112.18 197.372 111.23 198.708 111.23C200.026 111.23 200.677 111.995 200.677 113.384V119H202.584V113.015C202.584 110.896 201.415 109.596 199.376 109.596C197.952 109.596 196.968 110.246 196.467 111.301H196.423V109.754H194.612V119ZM204.975 107.565V109.754H203.63V111.257H204.975V116.565C204.975 118.35 205.704 119.062 207.576 119.062C207.998 119.062 208.42 119.026 208.631 118.974V117.471C208.508 117.497 208.2 117.515 208.007 117.515C207.233 117.515 206.882 117.154 206.882 116.354V111.257H208.64V109.754H206.882V107.565H204.975ZM214.871 108.26C215.478 108.26 215.961 107.768 215.961 107.17C215.961 106.563 215.478 106.08 214.871 106.08C214.265 106.08 213.772 106.563 213.772 107.17C213.772 107.768 214.265 108.26 214.871 108.26ZM213.922 119H215.82V109.754H213.922V119ZM217.763 119H219.661V113.612C219.661 112.18 220.522 111.23 221.858 111.23C223.177 111.23 223.827 111.995 223.827 113.384V119H225.734V113.015C225.734 110.896 224.565 109.596 222.526 109.596C221.103 109.596 220.118 110.246 219.617 111.301H219.573V109.754H217.763V119ZM52.7568 133.604C51.4209 133.604 50.3574 134.281 49.8125 135.345H49.7773V133.754H47.9404V146.059H49.8389V141.479H49.8828C50.4102 142.508 51.4648 143.158 52.792 143.158C55.1123 143.158 56.6504 141.304 56.6504 138.377C56.6504 135.45 55.1035 133.604 52.7568 133.604ZM52.2559 141.55C50.7969 141.55 49.8301 140.302 49.8301 138.377C49.8301 136.47 50.8057 135.204 52.2559 135.204C53.7588 135.204 54.6992 136.443 54.6992 138.377C54.6992 140.319 53.7588 141.55 52.2559 141.55ZM58.1182 143H60.0166V137.463C60.0166 136.153 60.7725 135.336 61.9941 135.336C62.3633 135.336 62.6973 135.38 62.8467 135.441V133.675C62.7061 133.648 62.4688 133.604 62.1963 133.604C61.1064 133.604 60.2803 134.246 59.9727 135.327H59.9287V133.754H58.1182V143ZM67.5928 143.176C70.2383 143.176 71.9785 141.356 71.9785 138.377C71.9785 135.406 70.2295 133.587 67.5928 133.587C64.9561 133.587 63.207 135.406 63.207 138.377C63.207 141.356 64.9473 143.176 67.5928 143.176ZM67.5928 141.611C66.1074 141.611 65.1406 140.434 65.1406 138.377C65.1406 136.329 66.1074 135.151 67.5928 135.151C69.0781 135.151 70.0449 136.329 70.0449 138.377C70.0449 140.434 69.0869 141.611 67.5928 141.611ZM73.4463 143H75.3447V137.612C75.3447 136.18 76.2061 135.23 77.542 135.23C78.8604 135.23 79.5107 135.995 79.5107 137.384V143H81.418V137.015C81.418 134.896 80.249 133.596 78.21 133.596C76.7861 133.596 75.8018 134.246 75.3008 135.301H75.2568V133.754H73.4463V143ZM91.1826 133.754H89.2842V139.142C89.2842 140.583 88.458 141.532 87.0869 141.532C85.7773 141.532 85.1094 140.776 85.1094 139.37V133.754H83.2109V139.739C83.2109 141.857 84.4414 143.167 86.4541 143.167C87.8691 143.167 88.8096 142.543 89.3193 141.436H89.3633V143H91.1826V133.754ZM93.0635 143H94.9619V137.612C94.9619 136.18 95.8232 135.23 97.1592 135.23C98.4775 135.23 99.1279 135.995 99.1279 137.384V143H101.035V137.015C101.035 134.896 99.8662 133.596 97.8271 133.596C96.4033 133.596 95.4189 134.246 94.918 135.301H94.874V133.754H93.0635V143ZM110.809 136.936C110.642 135.116 109.191 133.587 106.81 133.587C104.182 133.587 102.459 135.441 102.459 138.377C102.459 141.365 104.182 143.176 106.827 143.176C109.051 143.176 110.624 141.84 110.826 139.871H108.998C108.778 140.943 108.014 141.585 106.845 141.585C105.368 141.585 104.393 140.407 104.393 138.377C104.393 136.391 105.359 135.169 106.827 135.169C108.066 135.169 108.805 135.951 108.998 136.936H110.809ZM113.182 132.26C113.788 132.26 114.271 131.768 114.271 131.17C114.271 130.563 113.788 130.08 113.182 130.08C112.575 130.08 112.083 130.563 112.083 131.17C112.083 131.768 112.575 132.26 113.182 132.26ZM112.232 143H114.131V133.754H112.232V143ZM118.78 143.158C119.993 143.158 121.162 142.508 121.698 141.479H121.742V143H123.562V136.628C123.562 134.773 122.129 133.587 119.888 133.587C117.603 133.587 116.179 134.817 116.073 136.487H117.866C118.033 135.661 118.719 135.134 119.817 135.134C120.978 135.134 121.672 135.749 121.672 136.777V137.489L119.141 137.639C116.943 137.762 115.704 138.755 115.704 140.372C115.704 142.033 116.97 143.158 118.78 143.158ZM119.308 141.655C118.288 141.655 117.62 141.128 117.62 140.319C117.62 139.528 118.262 139.027 119.396 138.948L121.672 138.808V139.537C121.672 140.741 120.635 141.655 119.308 141.655ZM125.961 131.565V133.754H124.616V135.257H125.961V140.565C125.961 142.35 126.69 143.062 128.562 143.062C128.984 143.062 129.406 143.026 129.617 142.974V141.471C129.494 141.497 129.187 141.515 128.993 141.515C128.22 141.515 127.868 141.154 127.868 140.354V135.257H129.626V133.754H127.868V131.565H125.961ZM132.201 132.26C132.808 132.26 133.291 131.768 133.291 131.17C133.291 130.563 132.808 130.08 132.201 130.08C131.595 130.08 131.103 130.563 131.103 131.17C131.103 131.768 131.595 132.26 132.201 132.26ZM131.252 143H133.15V133.754H131.252V143ZM139.065 143.176C141.711 143.176 143.451 141.356 143.451 138.377C143.451 135.406 141.702 133.587 139.065 133.587C136.429 133.587 134.68 135.406 134.68 138.377C134.68 141.356 136.42 143.176 139.065 143.176ZM139.065 141.611C137.58 141.611 136.613 140.434 136.613 138.377C136.613 136.329 137.58 135.151 139.065 135.151C140.551 135.151 141.518 136.329 141.518 138.377C141.518 140.434 140.56 141.611 139.065 141.611ZM144.919 143H146.817V137.612C146.817 136.18 147.679 135.23 149.015 135.23C150.333 135.23 150.983 135.995 150.983 137.384V143H152.891V137.015C152.891 134.896 151.722 133.596 149.683 133.596C148.259 133.596 147.274 134.246 146.773 135.301H146.729V133.754H144.919V143Z" fill="#121131"/>
<path d="M59.4023 87.625C66.7266 87.625 71.1602 82 71.1602 72.6641C71.1602 62.3711 65.6133 58.1719 59.4023 58.1719C53.1133 58.1719 48.543 62.332 48.543 68.1719C48.543 73.6602 52.6641 77.3711 57.8984 77.3711C61.5898 77.3711 64.3828 75.5352 65.3984 72.8008H65.5156C65.5547 78.8555 63.6602 82.957 59.4219 82.957C57.0586 82.957 55.3203 81.8828 54.6953 79.8711H48.875C49.6172 84.4414 53.875 87.625 59.4023 87.625ZM59.4219 72.9961C56.4727 72.9961 54.2852 70.8867 54.2852 67.9375C54.2852 65.0859 56.5703 62.8789 59.4805 62.8789C62.3711 62.8789 64.6562 65.125 64.6562 68.0352C64.6562 70.9258 62.3906 72.9961 59.4219 72.9961ZM85.9453 87.625C93.0938 87.625 97.4297 81.9414 97.4297 72.8398C97.4297 63.7383 93.0547 58.1719 85.9453 58.1719C78.8359 58.1719 74.4414 63.7578 74.4414 72.8594C74.4414 81.9805 78.7969 87.625 85.9453 87.625ZM85.9453 82.8984C82.4688 82.8984 80.4375 79.3242 80.4375 72.8594C80.4375 66.4531 82.5078 62.8984 85.9453 62.8984C89.4023 62.8984 91.4336 66.4336 91.4336 72.8594C91.4336 79.3242 89.4219 82.8984 85.9453 82.8984ZM106.688 73.0938C110.75 73.0938 113.406 70.2422 113.406 65.7109C113.406 61.1406 110.73 58.3867 106.688 58.3867C102.625 58.3867 99.9492 61.1406 99.9492 65.7305C99.9492 70.2617 102.605 73.0938 106.688 73.0938ZM109.129 87L128.23 58.8164H124.012L104.891 87H109.129ZM106.688 69.793C105.125 69.793 104.07 68.4453 104.07 65.7305C104.07 62.9766 105.125 61.707 106.688 61.707C108.25 61.707 109.285 62.9766 109.285 65.7305C109.285 68.4453 108.23 69.793 106.688 69.793ZM126.453 87.4102C130.516 87.4102 133.172 84.5586 133.172 80.0273C133.172 75.4375 130.496 72.6836 126.453 72.6836C122.391 72.6836 119.715 75.457 119.715 80.0273C119.715 84.5781 122.371 87.4102 126.453 87.4102ZM126.453 84.0898C124.891 84.0898 123.836 82.7617 123.836 80.0273C123.836 77.2734 124.891 76.0039 126.453 76.0039C128.016 76.0039 129.051 77.293 129.051 80.0273C129.051 82.7617 127.996 84.0898 126.453 84.0898Z" fill="#0099FF"/>
<defs>
<filter id="filter0_d" x="300" y="0" width="329" height="192" filterUnits="userSpaceOnUse" color-interpolation-filters="sRGB">
<feFlood flood-opacity="0" result="BackgroundImageFix"/>
<feColorMatrix in="SourceAlpha" type="matrix" values="0 0 0 0 0 0 0 0 0 0 0 0 0 0 0 0 0 0 127 0"/>
<feOffset dx="-1"/>
<feGaussianBlur stdDeviation="11"/>
<feColorMatrix type="matrix" values="0 0 0 0 0 0 0 0 0 0 0 0 0 0 0 0 0 0 0.08 0"/>
<feBlend mode="normal" in2="BackgroundImageFix" result="effect1_dropShadow"/>
<feBlend mode="normal" in="SourceGraphic" in2="effect1_dropShadow" result="shape"/>
</filter>
<filter id="filter1_d" x="601" y="0" width="329" height="192" filterUnits="userSpaceOnUse" color-interpolation-filters="sRGB">
<feFlood flood-opacity="0" result="BackgroundImageFix"/>
<feColorMatrix in="SourceAlpha" type="matrix" values="0 0 0 0 0 0 0 0 0 0 0 0 0 0 0 0 0 0 127 0"/>
<feOffset dx="-1"/>
<feGaussianBlur stdDeviation="11"/>
<feColorMatrix type="matrix" values="0 0 0 0 0 0 0 0 0 0 0 0 0 0 0 0 0 0 0.08 0"/>
<feBlend mode="normal" in2="BackgroundImageFix" result="effect1_dropShadow"/>
<feBlend mode="normal" in="SourceGraphic" in2="effect1_dropShadow" result="shape"/>
</filter>
<filter id="filter2_d" x="0" y="0" width="329" height="192" filterUnits="userSpaceOnUse" color-interpolation-filters="sRGB">
<feFlood flood-opacity="0" result="BackgroundImageFix"/>
<feColorMatrix in="SourceAlpha" type="matrix" values="0 0 0 0 0 0 0 0 0 0 0 0 0 0 0 0 0 0 127 0"/>
<feOffset dx="-1"/>
<feGaussianBlur stdDeviation="11"/>
<feColorMatrix type="matrix" values="0 0 0 0 0 0 0 0 0 0 0 0 0 0 0 0 0 0 0.08 0"/>
<feBlend mode="normal" in2="BackgroundImageFix" result="effect1_dropShadow"/>
<feBlend mode="normal" in="SourceGraphic" in2="effect1_dropShadow" result="shape"/>
</filter>
</defs>
</svg>
