<svg width="638" height="364" viewBox="0 0 638 364" fill="none" xmlns="http://www.w3.org/2000/svg">
<g filter="url(#filter0_d)">
<rect x="332" y="22" width="285" height="148" rx="16" fill="white"/>
</g>
<path d="M365.22 118.295H359.138V114.357H364.895V112.723H359.138V109.014H365.22V107.317H357.169V120H365.22V118.295ZM370.476 116.599L372.515 120H374.606L371.609 115.324L374.642 110.754H372.55L370.555 114.103H370.52L368.498 110.754H366.371L369.377 115.386L366.327 120H368.384L370.432 116.599H370.476ZM380.653 110.604C379.317 110.604 378.254 111.281 377.709 112.345H377.674V110.754H375.837V123.059H377.735V118.479H377.779C378.307 119.508 379.361 120.158 380.688 120.158C383.009 120.158 384.547 118.304 384.547 115.377C384.547 112.45 383 110.604 380.653 110.604ZM380.152 118.55C378.693 118.55 377.727 117.302 377.727 115.377C377.727 113.47 378.702 112.204 380.152 112.204C381.655 112.204 382.596 113.443 382.596 115.377C382.596 117.319 381.655 118.55 380.152 118.55ZM386.015 120H387.913V114.463C387.913 113.153 388.669 112.336 389.891 112.336C390.26 112.336 390.594 112.38 390.743 112.441V110.675C390.603 110.648 390.365 110.604 390.093 110.604C389.003 110.604 388.177 111.246 387.869 112.327H387.825V110.754H386.015V120ZM397.643 117.284C397.388 118.093 396.588 118.638 395.507 118.638C393.986 118.638 393.02 117.574 393.02 115.966V115.852H399.55V115.201C399.55 112.397 397.95 110.587 395.384 110.587C392.773 110.587 391.104 112.521 391.104 115.421C391.104 118.339 392.747 120.176 395.463 120.176C397.581 120.176 399.181 118.972 399.444 117.284H397.643ZM395.384 112.116C396.711 112.116 397.607 113.109 397.651 114.524H393.028C393.125 113.127 394.057 112.116 395.384 112.116ZM400.859 113.373C400.859 114.718 401.729 115.562 403.487 115.966L404.99 116.317C406.001 116.546 406.344 116.897 406.344 117.495C406.344 118.251 405.641 118.726 404.498 118.726C403.338 118.726 402.679 118.251 402.503 117.284H400.622C400.798 119.042 402.187 120.176 404.498 120.176C406.678 120.176 408.251 119.016 408.251 117.328C408.251 115.992 407.53 115.254 405.641 114.814L404.138 114.472C403.136 114.243 402.714 113.848 402.714 113.268C402.714 112.529 403.399 112.028 404.428 112.028C405.491 112.028 406.15 112.591 406.256 113.487H408.04C407.979 111.782 406.581 110.587 404.428 110.587C402.301 110.587 400.859 111.721 400.859 113.373ZM409.561 113.373C409.561 114.718 410.431 115.562 412.188 115.966L413.691 116.317C414.702 116.546 415.045 116.897 415.045 117.495C415.045 118.251 414.342 118.726 413.199 118.726C412.039 118.726 411.38 118.251 411.204 117.284H409.323C409.499 119.042 410.888 120.176 413.199 120.176C415.379 120.176 416.952 119.016 416.952 117.328C416.952 115.992 416.231 115.254 414.342 114.814L412.839 114.472C411.837 114.243 411.415 113.848 411.415 113.268C411.415 112.529 412.101 112.028 413.129 112.028C414.192 112.028 414.852 112.591 414.957 113.487H416.741C416.68 111.782 415.282 110.587 413.129 110.587C411.002 110.587 409.561 111.721 409.561 113.373ZM424.555 117.284C424.3 118.093 423.5 118.638 422.419 118.638C420.898 118.638 419.932 117.574 419.932 115.966V115.852H426.462V115.201C426.462 112.397 424.862 110.587 422.296 110.587C419.686 110.587 418.016 112.521 418.016 115.421C418.016 118.339 419.659 120.176 422.375 120.176C424.493 120.176 426.093 118.972 426.356 117.284H424.555ZM422.296 112.116C423.623 112.116 424.52 113.109 424.563 114.524H419.94C420.037 113.127 420.969 112.116 422.296 112.116ZM431.41 120.158C432.755 120.158 433.81 119.481 434.354 118.427H434.39V120H436.235V107.317H434.328V112.292H434.293C433.774 111.272 432.72 110.604 431.393 110.604C429.072 110.604 427.525 112.459 427.525 115.377C427.525 118.295 429.072 120.158 431.41 120.158ZM431.911 112.204C433.37 112.204 434.346 113.461 434.346 115.377C434.346 117.311 433.37 118.55 431.911 118.55C430.408 118.55 429.468 117.328 429.468 115.377C429.468 113.435 430.408 112.204 431.911 112.204ZM441.913 120H443.812V114.656C443.812 113.197 444.673 112.23 446.079 112.23C447.415 112.23 448.101 113.048 448.101 114.41V120H450.008V114.041C450.008 111.949 448.795 110.596 446.765 110.596C445.358 110.596 444.348 111.22 443.838 112.301H443.794V107.317H441.913V120ZM452.855 109.26C453.462 109.26 453.945 108.768 453.945 108.17C453.945 107.563 453.462 107.08 452.855 107.08C452.249 107.08 451.757 107.563 451.757 108.17C451.757 108.768 452.249 109.26 452.855 109.26ZM451.906 120H453.805V110.754H451.906V120ZM459.702 123.48C462.339 123.48 464.044 122.039 464.044 119.833V110.754H462.198V112.336H462.163C461.601 111.264 460.528 110.604 459.219 110.604C456.846 110.604 455.334 112.433 455.334 115.342C455.334 118.225 456.854 120.035 459.175 120.035C460.493 120.035 461.583 119.376 462.102 118.374H462.137V119.895C462.137 121.16 461.258 122.004 459.772 122.004C458.691 122.004 457.848 121.494 457.575 120.721H455.668C455.905 122.32 457.522 123.48 459.702 123.48ZM459.685 118.462C458.226 118.462 457.276 117.284 457.276 115.351C457.276 113.426 458.226 112.204 459.685 112.204C461.17 112.204 462.146 113.452 462.146 115.351C462.146 117.258 461.17 118.462 459.685 118.462ZM465.995 120H467.894V114.656C467.894 113.197 468.755 112.23 470.161 112.23C471.497 112.23 472.183 113.048 472.183 114.41V120H474.09V114.041C474.09 111.949 472.877 110.596 470.847 110.596C469.44 110.596 468.43 111.22 467.92 112.301H467.876V107.317H465.995V120ZM482.053 117.284C481.798 118.093 480.998 118.638 479.917 118.638C478.396 118.638 477.43 117.574 477.43 115.966V115.852H483.96V115.201C483.96 112.397 482.36 110.587 479.794 110.587C477.184 110.587 475.514 112.521 475.514 115.421C475.514 118.339 477.157 120.176 479.873 120.176C481.991 120.176 483.591 118.972 483.854 117.284H482.053ZM479.794 112.116C481.121 112.116 482.018 113.109 482.062 114.524H477.438C477.535 113.127 478.467 112.116 479.794 112.116ZM485.437 120H487.335V114.463C487.335 113.153 488.091 112.336 489.312 112.336C489.682 112.336 490.016 112.38 490.165 112.441V110.675C490.024 110.648 489.787 110.604 489.515 110.604C488.425 110.604 487.599 111.246 487.291 112.327H487.247V110.754H485.437V120ZM502.936 113.936C502.769 112.116 501.318 110.587 498.937 110.587C496.309 110.587 494.586 112.441 494.586 115.377C494.586 118.365 496.309 120.176 498.954 120.176C501.178 120.176 502.751 118.84 502.953 116.871H501.125C500.905 117.943 500.141 118.585 498.972 118.585C497.495 118.585 496.52 117.407 496.52 115.377C496.52 113.391 497.486 112.169 498.954 112.169C500.193 112.169 500.932 112.951 501.125 113.936H502.936ZM508.271 120.176C510.916 120.176 512.656 118.356 512.656 115.377C512.656 112.406 510.907 110.587 508.271 110.587C505.634 110.587 503.885 112.406 503.885 115.377C503.885 118.356 505.625 120.176 508.271 120.176ZM508.271 118.611C506.785 118.611 505.818 117.434 505.818 115.377C505.818 113.329 506.785 112.151 508.271 112.151C509.756 112.151 510.723 113.329 510.723 115.377C510.723 117.434 509.765 118.611 508.271 118.611ZM514.124 120H516.022V114.612C516.022 113.18 516.884 112.23 518.22 112.23C519.538 112.23 520.188 112.995 520.188 114.384V120H522.096V114.015C522.096 111.896 520.927 110.596 518.888 110.596C517.464 110.596 516.479 111.246 515.979 112.301H515.935V110.754H514.124V120ZM524.486 120H526.394V112.257H528.239V110.771H526.367V109.901C526.367 109.084 526.754 108.671 527.58 108.671C527.835 108.671 528.09 108.688 528.274 108.724V107.317C528.028 107.273 527.598 107.229 527.211 107.229C525.33 107.229 524.486 108.073 524.486 109.866V110.771H523.212V112.257H524.486V120ZM530.744 109.26C531.351 109.26 531.834 108.768 531.834 108.17C531.834 107.563 531.351 107.08 530.744 107.08C530.138 107.08 529.646 107.563 529.646 108.17C529.646 108.768 530.138 109.26 530.744 109.26ZM529.795 120H531.693V110.754H529.795V120ZM537.107 120.158C538.452 120.158 539.507 119.481 540.052 118.427H540.087V120H541.933V107.317H540.025V112.292H539.99C539.472 111.272 538.417 110.604 537.09 110.604C534.77 110.604 533.223 112.459 533.223 115.377C533.223 118.295 534.77 120.158 537.107 120.158ZM537.608 112.204C539.067 112.204 540.043 113.461 540.043 115.377C540.043 117.311 539.067 118.55 537.608 118.55C536.105 118.55 535.165 117.328 535.165 115.377C535.165 113.435 536.105 112.204 537.608 112.204ZM550.01 117.284C549.755 118.093 548.955 118.638 547.874 118.638C546.354 118.638 545.387 117.574 545.387 115.966V115.852H551.917V115.201C551.917 112.397 550.317 110.587 547.751 110.587C545.141 110.587 543.471 112.521 543.471 115.421C543.471 118.339 545.114 120.176 547.83 120.176C549.948 120.176 551.548 118.972 551.812 117.284H550.01ZM547.751 112.116C549.078 112.116 549.975 113.109 550.019 114.524H545.396C545.492 113.127 546.424 112.116 547.751 112.116ZM553.394 120H555.292V114.612C555.292 113.18 556.153 112.23 557.489 112.23C558.808 112.23 559.458 112.995 559.458 114.384V120H561.365V114.015C561.365 111.896 560.196 110.596 558.157 110.596C556.733 110.596 555.749 111.246 555.248 112.301H555.204V110.754H553.394V120ZM571.139 113.936C570.972 112.116 569.521 110.587 567.14 110.587C564.512 110.587 562.789 112.441 562.789 115.377C562.789 118.365 564.512 120.176 567.157 120.176C569.381 120.176 570.954 118.84 571.156 116.871H569.328C569.108 117.943 568.344 118.585 567.175 118.585C565.698 118.585 564.723 117.407 564.723 115.377C564.723 113.391 565.689 112.169 567.157 112.169C568.396 112.169 569.135 112.951 569.328 113.936H571.139ZM578.627 117.284C578.372 118.093 577.572 118.638 576.491 118.638C574.971 118.638 574.004 117.574 574.004 115.966V115.852H580.534V115.201C580.534 112.397 578.935 110.587 576.368 110.587C573.758 110.587 572.088 112.521 572.088 115.421C572.088 118.339 573.731 120.176 576.447 120.176C578.565 120.176 580.165 118.972 580.429 117.284H578.627ZM576.368 112.116C577.695 112.116 578.592 113.109 578.636 114.524H574.013C574.109 113.127 575.041 112.116 576.368 112.116ZM357.951 133.26C358.558 133.26 359.041 132.768 359.041 132.17C359.041 131.563 358.558 131.08 357.951 131.08C357.345 131.08 356.853 131.563 356.853 132.17C356.853 132.768 357.345 133.26 357.951 133.26ZM357.002 144H358.9V134.754H357.002V144ZM360.843 144H362.741V138.612C362.741 137.18 363.603 136.23 364.938 136.23C366.257 136.23 366.907 136.995 366.907 138.384V144H368.814V138.015C368.814 135.896 367.646 134.596 365.606 134.596C364.183 134.596 363.198 135.246 362.697 136.301H362.653V134.754H360.843V144ZM374.141 137.373C374.141 138.718 375.011 139.562 376.769 139.966L378.271 140.317C379.282 140.546 379.625 140.897 379.625 141.495C379.625 142.251 378.922 142.726 377.779 142.726C376.619 142.726 375.96 142.251 375.784 141.284H373.903C374.079 143.042 375.468 144.176 377.779 144.176C379.959 144.176 381.532 143.016 381.532 141.328C381.532 139.992 380.812 139.254 378.922 138.814L377.419 138.472C376.417 138.243 375.995 137.848 375.995 137.268C375.995 136.529 376.681 136.028 377.709 136.028C378.772 136.028 379.432 136.591 379.537 137.487H381.321C381.26 135.782 379.862 134.587 377.709 134.587C375.582 134.587 374.141 135.721 374.141 137.373ZM387.825 134.604C386.489 134.604 385.426 135.281 384.881 136.345H384.846V134.754H383.009V147.059H384.907V142.479H384.951C385.479 143.508 386.533 144.158 387.86 144.158C390.181 144.158 391.719 142.304 391.719 139.377C391.719 136.45 390.172 134.604 387.825 134.604ZM387.324 142.55C385.865 142.55 384.898 141.302 384.898 139.377C384.898 137.47 385.874 136.204 387.324 136.204C388.827 136.204 389.768 137.443 389.768 139.377C389.768 141.319 388.827 142.55 387.324 142.55ZM399.312 141.284C399.058 142.093 398.258 142.638 397.177 142.638C395.656 142.638 394.689 141.574 394.689 139.966V139.852H401.22V139.201C401.22 136.397 399.62 134.587 397.054 134.587C394.443 134.587 392.773 136.521 392.773 139.421C392.773 142.339 394.417 144.176 397.133 144.176C399.251 144.176 400.851 142.972 401.114 141.284H399.312ZM397.054 136.116C398.381 136.116 399.277 137.109 399.321 138.524H394.698C394.795 137.127 395.727 136.116 397.054 136.116ZM405.403 144.158C406.616 144.158 407.785 143.508 408.321 142.479H408.365V144H410.185V137.628C410.185 135.773 408.752 134.587 406.511 134.587C404.226 134.587 402.802 135.817 402.696 137.487H404.489C404.656 136.661 405.342 136.134 406.44 136.134C407.601 136.134 408.295 136.749 408.295 137.777V138.489L405.764 138.639C403.566 138.762 402.327 139.755 402.327 141.372C402.327 143.033 403.593 144.158 405.403 144.158ZM405.931 142.655C404.911 142.655 404.243 142.128 404.243 141.319C404.243 140.528 404.885 140.027 406.019 139.948L408.295 139.808V140.537C408.295 141.741 407.258 142.655 405.931 142.655ZM414.017 138.718H413.999V131.317H412.101V144H413.999V140.678L414.79 139.896L417.928 144H420.134L416.152 138.735L419.984 134.754H417.752L414.017 138.718ZM422.129 133.26C422.735 133.26 423.219 132.768 423.219 132.17C423.219 131.563 422.735 131.08 422.129 131.08C421.522 131.08 421.03 131.563 421.03 132.17C421.03 132.768 421.522 133.26 422.129 133.26ZM421.18 144H423.078V134.754H421.18V144ZM425.021 144H426.919V138.612C426.919 137.18 427.78 136.23 429.116 136.23C430.435 136.23 431.085 136.995 431.085 138.384V144H432.992V138.015C432.992 135.896 431.823 134.596 429.784 134.596C428.36 134.596 427.376 135.246 426.875 136.301H426.831V134.754H425.021V144ZM438.784 147.48C441.421 147.48 443.126 146.039 443.126 143.833V134.754H441.28V136.336H441.245C440.683 135.264 439.61 134.604 438.301 134.604C435.928 134.604 434.416 136.433 434.416 139.342C434.416 142.225 435.937 144.035 438.257 144.035C439.575 144.035 440.665 143.376 441.184 142.374H441.219V143.895C441.219 145.16 440.34 146.004 438.854 146.004C437.773 146.004 436.93 145.494 436.657 144.721H434.75C434.987 146.32 436.604 147.48 438.784 147.48ZM438.767 142.462C437.308 142.462 436.358 141.284 436.358 139.351C436.358 137.426 437.308 136.204 438.767 136.204C440.252 136.204 441.228 137.452 441.228 139.351C441.228 141.258 440.252 142.462 438.767 142.462ZM454.789 141.284C454.534 142.093 453.734 142.638 452.653 142.638C451.133 142.638 450.166 141.574 450.166 139.966V139.852H456.696V139.201C456.696 136.397 455.097 134.587 452.53 134.587C449.92 134.587 448.25 136.521 448.25 139.421C448.25 142.339 449.894 144.176 452.609 144.176C454.728 144.176 456.327 142.972 456.591 141.284H454.789ZM452.53 136.116C453.857 136.116 454.754 137.109 454.798 138.524H450.175C450.271 137.127 451.203 136.116 452.53 136.116ZM458.173 144H460.071V138.612C460.071 137.18 460.933 136.23 462.269 136.23C463.587 136.23 464.237 136.995 464.237 138.384V144H466.145V138.015C466.145 135.896 464.976 134.596 462.937 134.596C461.513 134.596 460.528 135.246 460.027 136.301H459.983V134.754H458.173V144ZM471.937 147.48C474.573 147.48 476.278 146.039 476.278 143.833V134.754H474.433V136.336H474.397C473.835 135.264 472.763 134.604 471.453 134.604C469.08 134.604 467.568 136.433 467.568 139.342C467.568 142.225 469.089 144.035 471.409 144.035C472.728 144.035 473.817 143.376 474.336 142.374H474.371V143.895C474.371 145.16 473.492 146.004 472.007 146.004C470.926 146.004 470.082 145.494 469.81 144.721H467.902C468.14 146.32 469.757 147.48 471.937 147.48ZM471.919 142.462C470.46 142.462 469.511 141.284 469.511 139.351C469.511 137.426 470.46 136.204 471.919 136.204C473.404 136.204 474.38 137.452 474.38 139.351C474.38 141.258 473.404 142.462 471.919 142.462ZM478.229 144H480.128V131.317H478.229V144ZM483.09 133.26C483.696 133.26 484.18 132.768 484.18 132.17C484.18 131.563 483.696 131.08 483.09 131.08C482.483 131.08 481.991 131.563 481.991 132.17C481.991 132.768 482.483 133.26 483.09 133.26ZM482.141 144H484.039V134.754H482.141V144ZM485.814 137.373C485.814 138.718 486.685 139.562 488.442 139.966L489.945 140.317C490.956 140.546 491.299 140.897 491.299 141.495C491.299 142.251 490.596 142.726 489.453 142.726C488.293 142.726 487.634 142.251 487.458 141.284H485.577C485.753 143.042 487.142 144.176 489.453 144.176C491.633 144.176 493.206 143.016 493.206 141.328C493.206 139.992 492.485 139.254 490.596 138.814L489.093 138.472C488.091 138.243 487.669 137.848 487.669 137.268C487.669 136.529 488.354 136.028 489.383 136.028C490.446 136.028 491.105 136.591 491.211 137.487H492.995C492.934 135.782 491.536 134.587 489.383 134.587C487.256 134.587 485.814 135.721 485.814 137.373ZM494.753 144H496.651V138.656C496.651 137.197 497.513 136.23 498.919 136.23C500.255 136.23 500.94 137.048 500.94 138.41V144H502.848V138.041C502.848 135.949 501.635 134.596 499.604 134.596C498.198 134.596 497.188 135.22 496.678 136.301H496.634V131.317H494.753V144Z" fill="#121131"/>
<path d="M368.402 86.625C375.727 86.625 380.16 81 380.16 71.6641C380.16 61.3711 374.613 57.1719 368.402 57.1719C362.113 57.1719 357.543 61.332 357.543 67.1719C357.543 72.6602 361.664 76.3711 366.898 76.3711C370.59 76.3711 373.383 74.5352 374.398 71.8008H374.516C374.555 77.8555 372.66 81.957 368.422 81.957C366.059 81.957 364.32 80.8828 363.695 78.8711H357.875C358.617 83.4414 362.875 86.625 368.402 86.625ZM368.422 71.9961C365.473 71.9961 363.285 69.8867 363.285 66.9375C363.285 64.0859 365.57 61.8789 368.48 61.8789C371.371 61.8789 373.656 64.125 373.656 67.0352C373.656 69.9258 371.391 71.9961 368.422 71.9961ZM394.438 86.625C400.902 86.625 405.336 82.582 405.336 76.625C405.336 71.2539 401.488 67.3867 396.117 67.3867C393.266 67.3867 390.941 68.5391 389.77 70.4336H389.652L390.336 62.5039H403.637V57.8164H385.648L384.359 74.3594H389.496C390.453 72.6602 392.211 71.6055 394.477 71.6055C397.562 71.6055 399.711 73.7344 399.711 76.7617C399.711 79.8281 397.562 81.957 394.457 81.957C391.742 81.957 389.652 80.3555 389.32 77.9141H383.871C384.027 83.0312 388.402 86.625 394.438 86.625ZM414.242 72.0938C418.305 72.0938 420.961 69.2422 420.961 64.7109C420.961 60.1406 418.285 57.3867 414.242 57.3867C410.18 57.3867 407.504 60.1406 407.504 64.7305C407.504 69.2617 410.16 72.0938 414.242 72.0938ZM416.684 86L435.785 57.8164H431.566L412.445 86H416.684ZM414.242 68.793C412.68 68.793 411.625 67.4453 411.625 64.7305C411.625 61.9766 412.68 60.707 414.242 60.707C415.805 60.707 416.84 61.9766 416.84 64.7305C416.84 67.4453 415.785 68.793 414.242 68.793ZM434.008 86.4102C438.07 86.4102 440.727 83.5586 440.727 79.0273C440.727 74.4375 438.051 71.6836 434.008 71.6836C429.945 71.6836 427.27 74.457 427.27 79.0273C427.27 83.5781 429.926 86.4102 434.008 86.4102ZM434.008 83.0898C432.445 83.0898 431.391 81.7617 431.391 79.0273C431.391 76.2734 432.445 75.0039 434.008 75.0039C435.57 75.0039 436.605 76.293 436.605 79.0273C436.605 81.7617 435.551 83.0898 434.008 83.0898Z" fill="#FF9518"/>
<g filter="url(#filter1_d)">
<rect x="192" y="194" width="285" height="148" rx="16" fill="white"/>
</g>
<path d="M219.138 304V298.691H224.587V297.03H219.138V293.014H225.088V291.317H217.169V304H219.138ZM232.383 301.284C232.128 302.093 231.328 302.638 230.247 302.638C228.727 302.638 227.76 301.574 227.76 299.966V299.852H234.29V299.201C234.29 296.397 232.69 294.587 230.124 294.587C227.514 294.587 225.844 296.521 225.844 299.421C225.844 302.339 227.487 304.176 230.203 304.176C232.321 304.176 233.921 302.972 234.185 301.284H232.383ZM230.124 296.116C231.451 296.116 232.348 297.109 232.392 298.524H227.769C227.865 297.127 228.797 296.116 230.124 296.116ZM235.837 304H237.735V291.317H235.837V304ZM240.24 292.565V294.754H238.896V296.257H240.24V301.565C240.24 303.35 240.97 304.062 242.842 304.062C243.264 304.062 243.686 304.026 243.896 303.974V302.471C243.773 302.497 243.466 302.515 243.272 302.515C242.499 302.515 242.147 302.154 242.147 301.354V296.257H243.905V294.754H242.147V292.565H240.24ZM249.68 292.565V294.754H248.335V296.257H249.68V301.565C249.68 303.35 250.409 304.062 252.281 304.062C252.703 304.062 253.125 304.026 253.336 303.974V302.471C253.213 302.497 252.905 302.515 252.712 302.515C251.938 302.515 251.587 302.154 251.587 301.354V296.257H253.345V294.754H251.587V292.565H249.68ZM254.979 304H256.878V298.656C256.878 297.197 257.739 296.23 259.146 296.23C260.481 296.23 261.167 297.048 261.167 298.41V304H263.074V298.041C263.074 295.949 261.861 294.596 259.831 294.596C258.425 294.596 257.414 295.22 256.904 296.301H256.86V291.317H254.979V304ZM271.037 301.284C270.782 302.093 269.982 302.638 268.901 302.638C267.381 302.638 266.414 301.574 266.414 299.966V299.852H272.944V299.201C272.944 296.397 271.345 294.587 268.778 294.587C266.168 294.587 264.498 296.521 264.498 299.421C264.498 302.339 266.142 304.176 268.857 304.176C270.976 304.176 272.575 302.972 272.839 301.284H271.037ZM268.778 296.116C270.105 296.116 271.002 297.109 271.046 298.524H266.423C266.52 297.127 267.451 296.116 268.778 296.116ZM275.291 307.445C277.207 307.445 278.121 306.725 278.912 304.483L282.375 294.754H280.371L278.033 302.277H277.998L275.66 294.754H273.604L276.943 304.009C276.943 304.018 276.776 304.562 276.776 304.58C276.486 305.529 276.012 305.898 275.133 305.898C274.975 305.898 274.658 305.898 274.518 305.863V307.401C274.658 307.428 275.133 307.445 275.291 307.445ZM286.98 297.373C286.98 298.718 287.851 299.562 289.608 299.966L291.111 300.317C292.122 300.546 292.465 300.897 292.465 301.495C292.465 302.251 291.762 302.726 290.619 302.726C289.459 302.726 288.8 302.251 288.624 301.284H286.743C286.919 303.042 288.308 304.176 290.619 304.176C292.799 304.176 294.372 303.016 294.372 301.328C294.372 299.992 293.651 299.254 291.762 298.814L290.259 298.472C289.257 298.243 288.835 297.848 288.835 297.268C288.835 296.529 289.521 296.028 290.549 296.028C291.612 296.028 292.271 296.591 292.377 297.487H294.161C294.1 295.782 292.702 294.587 290.549 294.587C288.422 294.587 286.98 295.721 286.98 297.373ZM300.665 294.604C299.329 294.604 298.266 295.281 297.721 296.345H297.686V294.754H295.849V307.059H297.747V302.479H297.791C298.318 303.508 299.373 304.158 300.7 304.158C303.021 304.158 304.559 302.304 304.559 299.377C304.559 296.45 303.012 294.604 300.665 294.604ZM300.164 302.55C298.705 302.55 297.738 301.302 297.738 299.377C297.738 297.47 298.714 296.204 300.164 296.204C301.667 296.204 302.607 297.443 302.607 299.377C302.607 301.319 301.667 302.55 300.164 302.55ZM309.999 304.176C312.645 304.176 314.385 302.356 314.385 299.377C314.385 296.406 312.636 294.587 309.999 294.587C307.362 294.587 305.613 296.406 305.613 299.377C305.613 302.356 307.354 304.176 309.999 304.176ZM309.999 302.611C308.514 302.611 307.547 301.434 307.547 299.377C307.547 297.329 308.514 296.151 309.999 296.151C311.484 296.151 312.451 297.329 312.451 299.377C312.451 301.434 311.493 302.611 309.999 302.611ZM317.839 298.718H317.821V291.317H315.923V304H317.821V300.678L318.612 299.896L321.75 304H323.956L319.975 298.735L323.807 294.754H321.574L317.839 298.718ZM330.627 301.284C330.372 302.093 329.572 302.638 328.491 302.638C326.971 302.638 326.004 301.574 326.004 299.966V299.852H332.534V299.201C332.534 296.397 330.935 294.587 328.368 294.587C325.758 294.587 324.088 296.521 324.088 299.421C324.088 302.339 325.731 304.176 328.447 304.176C330.565 304.176 332.165 302.972 332.429 301.284H330.627ZM328.368 296.116C329.695 296.116 330.592 297.109 330.636 298.524H326.013C326.109 297.127 327.041 296.116 328.368 296.116ZM337.667 304H339.565V298.287C339.565 297.101 340.365 296.222 341.49 296.222C342.562 296.222 343.239 296.898 343.239 297.962V304H345.103V298.226C345.103 297.057 345.885 296.222 347.01 296.222C348.135 296.222 348.776 296.907 348.776 298.103V304H350.684V297.646C350.684 295.809 349.488 294.596 347.66 294.596C346.342 294.596 345.252 295.281 344.777 296.406H344.733C344.364 295.255 343.433 294.596 342.149 294.596C340.901 294.596 339.935 295.281 339.521 296.31H339.478V294.754H337.667V304ZM356.493 304.176C359.139 304.176 360.879 302.356 360.879 299.377C360.879 296.406 359.13 294.587 356.493 294.587C353.856 294.587 352.107 296.406 352.107 299.377C352.107 302.356 353.848 304.176 356.493 304.176ZM356.493 302.611C355.008 302.611 354.041 301.434 354.041 299.377C354.041 297.329 355.008 296.151 356.493 296.151C357.979 296.151 358.945 297.329 358.945 299.377C358.945 301.434 357.987 302.611 356.493 302.611ZM362.347 304H364.245V298.463C364.245 297.153 365.001 296.336 366.223 296.336C366.592 296.336 366.926 296.38 367.075 296.441V294.675C366.935 294.648 366.697 294.604 366.425 294.604C365.335 294.604 364.509 295.246 364.201 296.327H364.157V294.754H362.347V304ZM373.975 301.284C373.72 302.093 372.92 302.638 371.839 302.638C370.318 302.638 369.352 301.574 369.352 299.966V299.852H375.882V299.201C375.882 296.397 374.282 294.587 371.716 294.587C369.105 294.587 367.436 296.521 367.436 299.421C367.436 302.339 369.079 304.176 371.795 304.176C373.913 304.176 375.513 302.972 375.776 301.284H373.975ZM371.716 296.116C373.043 296.116 373.939 297.109 373.983 298.524H369.36C369.457 297.127 370.389 296.116 371.716 296.116ZM388.951 297.936C388.784 296.116 387.334 294.587 384.952 294.587C382.324 294.587 380.602 296.441 380.602 299.377C380.602 302.365 382.324 304.176 384.97 304.176C387.193 304.176 388.767 302.84 388.969 300.871H387.141C386.921 301.943 386.156 302.585 384.987 302.585C383.511 302.585 382.535 301.407 382.535 299.377C382.535 297.391 383.502 296.169 384.97 296.169C386.209 296.169 386.947 296.951 387.141 297.936H388.951ZM390.384 304H392.282V291.317H390.384V304ZM400.359 301.284C400.104 302.093 399.305 302.638 398.224 302.638C396.703 302.638 395.736 301.574 395.736 299.966V299.852H402.267V299.201C402.267 296.397 400.667 294.587 398.101 294.587C395.49 294.587 393.82 296.521 393.82 299.421C393.82 302.339 395.464 304.176 398.18 304.176C400.298 304.176 401.897 302.972 402.161 301.284H400.359ZM398.101 296.116C399.428 296.116 400.324 297.109 400.368 298.524H395.745C395.842 297.127 396.773 296.116 398.101 296.116ZM406.45 304.158C407.663 304.158 408.832 303.508 409.368 302.479H409.412V304H411.231V297.628C411.231 295.773 409.799 294.587 407.558 294.587C405.272 294.587 403.849 295.817 403.743 297.487H405.536C405.703 296.661 406.389 296.134 407.487 296.134C408.647 296.134 409.342 296.749 409.342 297.777V298.489L406.811 298.639C404.613 298.762 403.374 299.755 403.374 301.372C403.374 303.033 404.64 304.158 406.45 304.158ZM406.978 302.655C405.958 302.655 405.29 302.128 405.29 301.319C405.29 300.528 405.932 300.027 407.065 299.948L409.342 299.808V300.537C409.342 301.741 408.305 302.655 406.978 302.655ZM413.077 304H414.976V298.463C414.976 297.153 415.731 296.336 416.953 296.336C417.322 296.336 417.656 296.38 417.806 296.441V294.675C417.665 294.648 417.428 294.604 417.155 294.604C416.065 294.604 415.239 295.246 414.932 296.327H414.888V294.754H413.077V304ZM419.054 304H420.952V291.317H419.054V304ZM423.826 307.445C425.742 307.445 426.656 306.725 427.447 304.483L430.91 294.754H428.906L426.568 302.277H426.533L424.195 294.754H422.139L425.479 304.009C425.479 304.018 425.312 304.562 425.312 304.58C425.021 305.529 424.547 305.898 423.668 305.898C423.51 305.898 423.193 305.898 423.053 305.863V307.401C423.193 307.428 423.668 307.445 423.826 307.445Z" fill="#121131"/>
<path d="M229.359 270.625C235.648 270.625 240.219 266.465 240.219 260.625C240.219 255.332 236.488 251.445 231.039 251.445C227.23 251.445 224.457 253.359 223.363 255.977H223.246C223.227 249.805 225.258 245.84 229.359 245.84C231.684 245.84 233.363 247.012 234.027 249.023H239.848C239.066 244.375 234.848 241.172 229.379 241.172C222.055 241.172 217.602 246.797 217.602 256.133C217.602 265.859 222.621 270.625 229.359 270.625ZM229.281 265.938C226.391 265.938 224.125 263.672 224.125 260.762C224.125 257.891 226.352 255.801 229.34 255.801C232.289 255.801 234.477 257.91 234.477 260.879C234.457 263.711 232.172 265.938 229.281 265.938ZM254.789 270.625C261.508 270.625 266.215 267.266 266.215 262.383C266.215 258.672 263.5 255.938 259.652 255.176V255.059C262.953 254.238 265.18 251.816 265.18 248.789C265.18 244.375 260.902 241.191 254.789 241.191C248.676 241.191 244.379 244.395 244.379 248.77C244.379 251.836 246.625 254.258 249.945 255.059V255.176C246.098 255.918 243.363 258.652 243.363 262.363C243.363 267.246 248.051 270.625 254.789 270.625ZM254.789 253.281C252.113 253.281 250.219 251.68 250.219 249.375C250.219 247.051 252.113 245.449 254.789 245.449C257.445 245.449 259.359 247.051 259.359 249.375C259.359 251.68 257.445 253.281 254.789 253.281ZM254.789 266.328C251.684 266.328 249.516 264.492 249.516 261.934C249.516 259.414 251.684 257.578 254.789 257.578C257.895 257.578 260.043 259.395 260.043 261.934C260.043 264.492 257.895 266.328 254.789 266.328ZM275.453 256.094C279.516 256.094 282.172 253.242 282.172 248.711C282.172 244.141 279.496 241.387 275.453 241.387C271.391 241.387 268.715 244.141 268.715 248.73C268.715 253.262 271.371 256.094 275.453 256.094ZM277.895 270L296.996 241.816H292.777L273.656 270H277.895ZM275.453 252.793C273.891 252.793 272.836 251.445 272.836 248.73C272.836 245.977 273.891 244.707 275.453 244.707C277.016 244.707 278.051 245.977 278.051 248.73C278.051 251.445 276.996 252.793 275.453 252.793ZM295.219 270.41C299.281 270.41 301.938 267.559 301.938 263.027C301.938 258.438 299.262 255.684 295.219 255.684C291.156 255.684 288.48 258.457 288.48 263.027C288.48 267.578 291.137 270.41 295.219 270.41ZM295.219 267.09C293.656 267.09 292.602 265.762 292.602 263.027C292.602 260.273 293.656 259.004 295.219 259.004C296.781 259.004 297.816 260.293 297.816 263.027C297.816 265.762 296.762 267.09 295.219 267.09Z" fill="#00BB13"/>
<g filter="url(#filter2_d)">
<rect x="23" y="22" width="285" height="148" rx="16" fill="white"/>
</g>
<path d="M47.5977 115.52C47.7207 117.778 49.6279 119.211 52.4932 119.211C55.4463 119.211 57.3271 117.708 57.3271 115.317C57.3271 113.472 56.2373 112.408 53.583 111.846L52.1943 111.556C50.5508 111.204 49.9004 110.589 49.9004 109.666C49.9004 108.506 50.9902 107.785 52.4756 107.785C54.0137 107.785 55.0596 108.567 55.1826 109.842H57.0898C57.0283 107.627 55.1914 106.106 52.502 106.106C49.8037 106.106 47.8965 107.601 47.8965 109.771C47.8965 111.6 49.0479 112.777 51.5879 113.313L52.9678 113.604C54.6641 113.973 55.332 114.588 55.332 115.572C55.332 116.706 54.1807 117.532 52.5723 117.532C50.8848 117.532 49.6895 116.776 49.5137 115.52H47.5977ZM61.5811 119.158C62.7939 119.158 63.9629 118.508 64.499 117.479H64.543V119H66.3623V112.628C66.3623 110.773 64.9297 109.587 62.6885 109.587C60.4033 109.587 58.9795 110.817 58.874 112.487H60.667C60.834 111.661 61.5195 111.134 62.6182 111.134C63.7783 111.134 64.4727 111.749 64.4727 112.777V113.489L61.9414 113.639C59.7441 113.762 58.5049 114.755 58.5049 116.372C58.5049 118.033 59.7705 119.158 61.5811 119.158ZM62.1084 117.655C61.0889 117.655 60.4209 117.128 60.4209 116.319C60.4209 115.528 61.0625 115.027 62.1963 114.948L64.4727 114.808V115.537C64.4727 116.741 63.4355 117.655 62.1084 117.655ZM80.3896 109.754H78.5088L76.8213 117.031H76.7773L74.8438 109.754H73.0156L71.0908 117.031H71.0557L69.3682 109.754H67.4697L70.0098 119H71.9697L73.8945 112.074H73.9385L75.8809 119H77.8584L80.3896 109.754ZM87.9131 119.158C89.126 119.158 90.2949 118.508 90.8311 117.479H90.875V119H92.6943V112.628C92.6943 110.773 91.2617 109.587 89.0205 109.587C86.7354 109.587 85.3115 110.817 85.2061 112.487H86.999C87.166 111.661 87.8516 111.134 88.9502 111.134C90.1104 111.134 90.8047 111.749 90.8047 112.777V113.489L88.2734 113.639C86.0762 113.762 84.8369 114.755 84.8369 116.372C84.8369 118.033 86.1025 119.158 87.9131 119.158ZM88.4404 117.655C87.4209 117.655 86.7529 117.128 86.7529 116.319C86.7529 115.528 87.3945 115.027 88.5283 114.948L90.8047 114.808V115.537C90.8047 116.741 89.7676 117.655 88.4404 117.655ZM94.54 119H96.4385V113.612C96.4385 112.18 97.2998 111.23 98.6357 111.23C99.9541 111.23 100.604 111.995 100.604 113.384V119H102.512V113.015C102.512 110.896 101.343 109.596 99.3037 109.596C97.8799 109.596 96.8955 110.246 96.3945 111.301H96.3506V109.754H94.54V119ZM109.016 108.26C109.622 108.26 110.105 107.768 110.105 107.17C110.105 106.563 109.622 106.08 109.016 106.08C108.409 106.08 107.917 106.563 107.917 107.17C107.917 107.768 108.409 108.26 109.016 108.26ZM108.066 119H109.965V109.754H108.066V119ZM111.907 119H113.806V113.287C113.806 112.101 114.605 111.222 115.73 111.222C116.803 111.222 117.479 111.898 117.479 112.962V119H119.343V113.226C119.343 112.057 120.125 111.222 121.25 111.222C122.375 111.222 123.017 111.907 123.017 113.103V119H124.924V112.646C124.924 110.809 123.729 109.596 121.9 109.596C120.582 109.596 119.492 110.281 119.018 111.406H118.974C118.604 110.255 117.673 109.596 116.39 109.596C115.142 109.596 114.175 110.281 113.762 111.31H113.718V109.754H111.907V119ZM131.577 109.604C130.241 109.604 129.178 110.281 128.633 111.345H128.598V109.754H126.761V122.059H128.659V117.479H128.703C129.23 118.508 130.285 119.158 131.612 119.158C133.933 119.158 135.471 117.304 135.471 114.377C135.471 111.45 133.924 109.604 131.577 109.604ZM131.076 117.55C129.617 117.55 128.65 116.302 128.65 114.377C128.65 112.47 129.626 111.204 131.076 111.204C132.579 111.204 133.52 112.443 133.52 114.377C133.52 116.319 132.579 117.55 131.076 117.55ZM136.938 119H138.837V113.463C138.837 112.153 139.593 111.336 140.814 111.336C141.184 111.336 141.518 111.38 141.667 111.441V109.675C141.526 109.648 141.289 109.604 141.017 109.604C139.927 109.604 139.101 110.246 138.793 111.327H138.749V109.754H136.938V119ZM146.413 119.176C149.059 119.176 150.799 117.356 150.799 114.377C150.799 111.406 149.05 109.587 146.413 109.587C143.776 109.587 142.027 111.406 142.027 114.377C142.027 117.356 143.768 119.176 146.413 119.176ZM146.413 117.611C144.928 117.611 143.961 116.434 143.961 114.377C143.961 112.329 144.928 111.151 146.413 111.151C147.898 111.151 148.865 112.329 148.865 114.377C148.865 116.434 147.907 117.611 146.413 117.611ZM159.913 109.754H157.927L155.606 117.146H155.571L153.251 109.754H151.229L154.561 119H156.6L159.913 109.754ZM166.865 116.284C166.61 117.093 165.811 117.638 164.729 117.638C163.209 117.638 162.242 116.574 162.242 114.966V114.852H168.772V114.201C168.772 111.397 167.173 109.587 164.606 109.587C161.996 109.587 160.326 111.521 160.326 114.421C160.326 117.339 161.97 119.176 164.686 119.176C166.804 119.176 168.403 117.972 168.667 116.284H166.865ZM164.606 111.116C165.934 111.116 166.83 112.109 166.874 113.524H162.251C162.348 112.127 163.279 111.116 164.606 111.116ZM170.249 119H172.147V113.287C172.147 112.101 172.947 111.222 174.072 111.222C175.145 111.222 175.821 111.898 175.821 112.962V119H177.685V113.226C177.685 112.057 178.467 111.222 179.592 111.222C180.717 111.222 181.358 111.907 181.358 113.103V119H183.266V112.646C183.266 110.809 182.07 109.596 180.242 109.596C178.924 109.596 177.834 110.281 177.359 111.406H177.315C176.946 110.255 176.015 109.596 174.731 109.596C173.483 109.596 172.517 110.281 172.104 111.31H172.06V109.754H170.249V119ZM191.229 116.284C190.974 117.093 190.174 117.638 189.093 117.638C187.572 117.638 186.605 116.574 186.605 114.966V114.852H193.136V114.201C193.136 111.397 191.536 109.587 188.97 109.587C186.359 109.587 184.689 111.521 184.689 114.421C184.689 117.339 186.333 119.176 189.049 119.176C191.167 119.176 192.767 117.972 193.03 116.284H191.229ZM188.97 111.116C190.297 111.116 191.193 112.109 191.237 113.524H186.614C186.711 112.127 187.643 111.116 188.97 111.116ZM194.612 119H196.511V113.612C196.511 112.18 197.372 111.23 198.708 111.23C200.026 111.23 200.677 111.995 200.677 113.384V119H202.584V113.015C202.584 110.896 201.415 109.596 199.376 109.596C197.952 109.596 196.968 110.246 196.467 111.301H196.423V109.754H194.612V119ZM204.975 107.565V109.754H203.63V111.257H204.975V116.565C204.975 118.35 205.704 119.062 207.576 119.062C207.998 119.062 208.42 119.026 208.631 118.974V117.471C208.508 117.497 208.2 117.515 208.007 117.515C207.233 117.515 206.882 117.154 206.882 116.354V111.257H208.64V109.754H206.882V107.565H204.975ZM214.871 108.26C215.478 108.26 215.961 107.768 215.961 107.17C215.961 106.563 215.478 106.08 214.871 106.08C214.265 106.08 213.772 106.563 213.772 107.17C213.772 107.768 214.265 108.26 214.871 108.26ZM213.922 119H215.82V109.754H213.922V119ZM217.763 119H219.661V113.612C219.661 112.18 220.522 111.23 221.858 111.23C223.177 111.23 223.827 111.995 223.827 113.384V119H225.734V113.015C225.734 110.896 224.565 109.596 222.526 109.596C221.103 109.596 220.118 110.246 219.617 111.301H219.573V109.754H217.763V119ZM52.7568 133.604C51.4209 133.604 50.3574 134.281 49.8125 135.345H49.7773V133.754H47.9404V146.059H49.8389V141.479H49.8828C50.4102 142.508 51.4648 143.158 52.792 143.158C55.1123 143.158 56.6504 141.304 56.6504 138.377C56.6504 135.45 55.1035 133.604 52.7568 133.604ZM52.2559 141.55C50.7969 141.55 49.8301 140.302 49.8301 138.377C49.8301 136.47 50.8057 135.204 52.2559 135.204C53.7588 135.204 54.6992 136.443 54.6992 138.377C54.6992 140.319 53.7588 141.55 52.2559 141.55ZM58.1182 143H60.0166V137.463C60.0166 136.153 60.7725 135.336 61.9941 135.336C62.3633 135.336 62.6973 135.38 62.8467 135.441V133.675C62.7061 133.648 62.4688 133.604 62.1963 133.604C61.1064 133.604 60.2803 134.246 59.9727 135.327H59.9287V133.754H58.1182V143ZM67.5928 143.176C70.2383 143.176 71.9785 141.356 71.9785 138.377C71.9785 135.406 70.2295 133.587 67.5928 133.587C64.9561 133.587 63.207 135.406 63.207 138.377C63.207 141.356 64.9473 143.176 67.5928 143.176ZM67.5928 141.611C66.1074 141.611 65.1406 140.434 65.1406 138.377C65.1406 136.329 66.1074 135.151 67.5928 135.151C69.0781 135.151 70.0449 136.329 70.0449 138.377C70.0449 140.434 69.0869 141.611 67.5928 141.611ZM73.4463 143H75.3447V137.612C75.3447 136.18 76.2061 135.23 77.542 135.23C78.8604 135.23 79.5107 135.995 79.5107 137.384V143H81.418V137.015C81.418 134.896 80.249 133.596 78.21 133.596C76.7861 133.596 75.8018 134.246 75.3008 135.301H75.2568V133.754H73.4463V143ZM91.1826 133.754H89.2842V139.142C89.2842 140.583 88.458 141.532 87.0869 141.532C85.7773 141.532 85.1094 140.776 85.1094 139.37V133.754H83.2109V139.739C83.2109 141.857 84.4414 143.167 86.4541 143.167C87.8691 143.167 88.8096 142.543 89.3193 141.436H89.3633V143H91.1826V133.754ZM93.0635 143H94.9619V137.612C94.9619 136.18 95.8232 135.23 97.1592 135.23C98.4775 135.23 99.1279 135.995 99.1279 137.384V143H101.035V137.015C101.035 134.896 99.8662 133.596 97.8271 133.596C96.4033 133.596 95.4189 134.246 94.918 135.301H94.874V133.754H93.0635V143ZM110.809 136.936C110.642 135.116 109.191 133.587 106.81 133.587C104.182 133.587 102.459 135.441 102.459 138.377C102.459 141.365 104.182 143.176 106.827 143.176C109.051 143.176 110.624 141.84 110.826 139.871H108.998C108.778 140.943 108.014 141.585 106.845 141.585C105.368 141.585 104.393 140.407 104.393 138.377C104.393 136.391 105.359 135.169 106.827 135.169C108.066 135.169 108.805 135.951 108.998 136.936H110.809ZM113.182 132.26C113.788 132.26 114.271 131.768 114.271 131.17C114.271 130.563 113.788 130.08 113.182 130.08C112.575 130.08 112.083 130.563 112.083 131.17C112.083 131.768 112.575 132.26 113.182 132.26ZM112.232 143H114.131V133.754H112.232V143ZM118.78 143.158C119.993 143.158 121.162 142.508 121.698 141.479H121.742V143H123.562V136.628C123.562 134.773 122.129 133.587 119.888 133.587C117.603 133.587 116.179 134.817 116.073 136.487H117.866C118.033 135.661 118.719 135.134 119.817 135.134C120.978 135.134 121.672 135.749 121.672 136.777V137.489L119.141 137.639C116.943 137.762 115.704 138.755 115.704 140.372C115.704 142.033 116.97 143.158 118.78 143.158ZM119.308 141.655C118.288 141.655 117.62 141.128 117.62 140.319C117.62 139.528 118.262 139.027 119.396 138.948L121.672 138.808V139.537C121.672 140.741 120.635 141.655 119.308 141.655ZM125.961 131.565V133.754H124.616V135.257H125.961V140.565C125.961 142.35 126.69 143.062 128.562 143.062C128.984 143.062 129.406 143.026 129.617 142.974V141.471C129.494 141.497 129.187 141.515 128.993 141.515C128.22 141.515 127.868 141.154 127.868 140.354V135.257H129.626V133.754H127.868V131.565H125.961ZM132.201 132.26C132.808 132.26 133.291 131.768 133.291 131.17C133.291 130.563 132.808 130.08 132.201 130.08C131.595 130.08 131.103 130.563 131.103 131.17C131.103 131.768 131.595 132.26 132.201 132.26ZM131.252 143H133.15V133.754H131.252V143ZM139.065 143.176C141.711 143.176 143.451 141.356 143.451 138.377C143.451 135.406 141.702 133.587 139.065 133.587C136.429 133.587 134.68 135.406 134.68 138.377C134.68 141.356 136.42 143.176 139.065 143.176ZM139.065 141.611C137.58 141.611 136.613 140.434 136.613 138.377C136.613 136.329 137.58 135.151 139.065 135.151C140.551 135.151 141.518 136.329 141.518 138.377C141.518 140.434 140.56 141.611 139.065 141.611ZM144.919 143H146.817V137.612C146.817 136.18 147.679 135.23 149.015 135.23C150.333 135.23 150.983 135.995 150.983 137.384V143H152.891V137.015C152.891 134.896 151.722 133.596 149.683 133.596C148.259 133.596 147.274 134.246 146.773 135.301H146.729V133.754H144.919V143Z" fill="#121131"/>
<path d="M59.4023 87.625C66.7266 87.625 71.1602 82 71.1602 72.6641C71.1602 62.3711 65.6133 58.1719 59.4023 58.1719C53.1133 58.1719 48.543 62.332 48.543 68.1719C48.543 73.6602 52.6641 77.3711 57.8984 77.3711C61.5898 77.3711 64.3828 75.5352 65.3984 72.8008H65.5156C65.5547 78.8555 63.6602 82.957 59.4219 82.957C57.0586 82.957 55.3203 81.8828 54.6953 79.8711H48.875C49.6172 84.4414 53.875 87.625 59.4023 87.625ZM59.4219 72.9961C56.4727 72.9961 54.2852 70.8867 54.2852 67.9375C54.2852 65.0859 56.5703 62.8789 59.4805 62.8789C62.3711 62.8789 64.6562 65.125 64.6562 68.0352C64.6562 70.9258 62.3906 72.9961 59.4219 72.9961ZM85.9453 87.625C93.0938 87.625 97.4297 81.9414 97.4297 72.8398C97.4297 63.7383 93.0547 58.1719 85.9453 58.1719C78.8359 58.1719 74.4414 63.7578 74.4414 72.8594C74.4414 81.9805 78.7969 87.625 85.9453 87.625ZM85.9453 82.8984C82.4688 82.8984 80.4375 79.3242 80.4375 72.8594C80.4375 66.4531 82.5078 62.8984 85.9453 62.8984C89.4023 62.8984 91.4336 66.4336 91.4336 72.8594C91.4336 79.3242 89.4219 82.8984 85.9453 82.8984ZM106.688 73.0938C110.75 73.0938 113.406 70.2422 113.406 65.7109C113.406 61.1406 110.73 58.3867 106.688 58.3867C102.625 58.3867 99.9492 61.1406 99.9492 65.7305C99.9492 70.2617 102.605 73.0938 106.688 73.0938ZM109.129 87L128.23 58.8164H124.012L104.891 87H109.129ZM106.688 69.793C105.125 69.793 104.07 68.4453 104.07 65.7305C104.07 62.9766 105.125 61.707 106.688 61.707C108.25 61.707 109.285 62.9766 109.285 65.7305C109.285 68.4453 108.23 69.793 106.688 69.793ZM126.453 87.4102C130.516 87.4102 133.172 84.5586 133.172 80.0273C133.172 75.4375 130.496 72.6836 126.453 72.6836C122.391 72.6836 119.715 75.457 119.715 80.0273C119.715 84.5781 122.371 87.4102 126.453 87.4102ZM126.453 84.0898C124.891 84.0898 123.836 82.7617 123.836 80.0273C123.836 77.2734 124.891 76.0039 126.453 76.0039C128.016 76.0039 129.051 77.293 129.051 80.0273C129.051 82.7617 127.996 84.0898 126.453 84.0898Z" fill="#0099FF"/>
<defs>
<filter id="filter0_d" x="309" y="0" width="329" height="192" filterUnits="userSpaceOnUse" color-interpolation-filters="sRGB">
<feFlood flood-opacity="0" result="BackgroundImageFix"/>
<feColorMatrix in="SourceAlpha" type="matrix" values="0 0 0 0 0 0 0 0 0 0 0 0 0 0 0 0 0 0 127 0"/>
<feOffset dx="-1"/>
<feGaussianBlur stdDeviation="11"/>
<feColorMatrix type="matrix" values="0 0 0 0 0 0 0 0 0 0 0 0 0 0 0 0 0 0 0.08 0"/>
<feBlend mode="normal" in2="BackgroundImageFix" result="effect1_dropShadow"/>
<feBlend mode="normal" in="SourceGraphic" in2="effect1_dropShadow" result="shape"/>
</filter>
<filter id="filter1_d" x="169" y="172" width="329" height="192" filterUnits="userSpaceOnUse" color-interpolation-filters="sRGB">
<feFlood flood-opacity="0" result="BackgroundImageFix"/>
<feColorMatrix in="SourceAlpha" type="matrix" values="0 0 0 0 0 0 0 0 0 0 0 0 0 0 0 0 0 0 127 0"/>
<feOffset dx="-1"/>
<feGaussianBlur stdDeviation="11"/>
<feColorMatrix type="matrix" values="0 0 0 0 0 0 0 0 0 0 0 0 0 0 0 0 0 0 0.08 0"/>
<feBlend mode="normal" in2="BackgroundImageFix" result="effect1_dropShadow"/>
<feBlend mode="normal" in="SourceGraphic" in2="effect1_dropShadow" result="shape"/>
</filter>
<filter id="filter2_d" x="0" y="0" width="329" height="192" filterUnits="userSpaceOnUse" color-interpolation-filters="sRGB">
<feFlood flood-opacity="0" result="BackgroundImageFix"/>
<feColorMatrix in="SourceAlpha" type="matrix" values="0 0 0 0 0 0 0 0 0 0 0 0 0 0 0 0 0 0 127 0"/>
<feOffset dx="-1"/>
<feGaussianBlur stdDeviation="11"/>
<feColorMatrix type="matrix" values="0 0 0 0 0 0 0 0 0 0 0 0 0 0 0 0 0 0 0.08 0"/>
<feBlend mode="normal" in2="BackgroundImageFix" result="effect1_dropShadow"/>
<feBlend mode="normal" in="SourceGraphic" in2="effect1_dropShadow" result="shape"/>
</filter>
</defs>
</svg>
