<svg width="34" height="34" viewBox="0 0 34 34" fill="none" xmlns="http://www.w3.org/2000/svg">
<g clip-path="url(#clip0)">
<path fill-rule="evenodd" clip-rule="evenodd" d="M2.19881 14.1812H31.9702V14.2235C33.0726 14.2155 33.9769 15.0947 34 16.197V32.154C34 32.691 33.7857 33.2059 33.4046 33.5843C33.0236 33.9628 32.5072 34.1735 31.9702 34.1697H2.19881C1.66176 34.1735 1.14541 33.9628 0.764325 33.5843C0.383241 33.2059 0.168932 32.691 0.168945 32.154V16.197C0.168932 15.6599 0.383241 15.145 0.764325 14.7666C1.14541 14.3882 1.66176 14.1774 2.19881 14.1812ZM31.4629 31.632V16.7182H2.70651V31.632H31.4629Z" fill="#478DFF"/>
<path d="M30.335 9.51536H3.83397C3.13331 9.51536 2.56531 8.94736 2.56531 8.24669C2.56531 7.54603 3.13331 6.97803 3.83397 6.97803H30.335C31.0357 6.97803 31.6037 7.54603 31.6037 8.24669C31.6037 8.94736 31.0357 9.51536 30.335 9.51536Z" fill="#478DFF"/>
<path d="M27.6851 2.66477H6.5407C5.84003 2.66477 5.27203 2.09677 5.27203 1.39611C5.27203 0.695442 5.84003 0.127441 6.5407 0.127441H27.6851C28.3858 0.127441 28.9538 0.695442 28.9538 1.39611C28.9538 2.09677 28.3858 2.66477 27.6851 2.66477Z" fill="#478DFF"/>
</g>
<defs>
<clipPath id="clip0">
<rect width="34" height="34" fill="white"/>
</clipPath>
</defs>
</svg>
