<svg width="30" height="30" viewBox="0 0 30 30" fill="none" xmlns="http://www.w3.org/2000/svg">
<path d="M15.0001 30C23.2617 30 30 23.2618 30 15.0001C30 6.73828 23.2617 0 15.0001 0C6.73834 0 0 6.73828 0 15.0001C0 23.2618 6.73834 30 15.0001 30Z" fill="url(#paint0_linear)"/>
<path d="M14.6694 11.3101C12.3507 12.5731 9.9131 9.80656 9.61583 8.48345C9.31857 7.16034 12.648 6.61907 14.1937 8.54359C15.7395 10.4681 16.2746 10.4681 14.6694 11.3101Z" fill="#FF4B2B"/>
<path opacity="0.2" d="M10.151 8.60365C9.97263 7.70153 11.2212 7.2204 12.5886 7.40082C11.0428 6.97983 9.43755 7.46096 9.61591 8.48336C9.85373 9.50577 11.2806 11.3701 13.0048 11.6709C11.5779 11.1296 10.3888 9.50577 10.151 8.60365Z" fill="#FFAFA1"/>
<path d="M22.1011 23.9999H8.01066C7.77284 23.9999 7.59448 23.8194 7.59448 23.5789V12.7534H22.6362V23.5789C22.5767 23.8194 22.3984 23.9999 22.1011 23.9999Z" fill="#FFC445"/>
<path d="M15.3235 10.3479C13.9561 9.92687 12.0536 8.48347 11.8158 7.88206C11.6374 7.28065 12.6481 7.34079 13.6588 8.30305C14.6101 9.26531 15.2641 10.1674 15.2641 10.1674L15.3235 10.3479Z" fill="#CC2929"/>
<path d="M15.8585 11.1899C18.2367 12.3927 20.5554 9.56607 20.7932 8.18282C21.031 6.79957 17.7016 6.37858 16.2153 8.3031C14.7289 10.2878 14.1938 10.3479 15.8585 11.1899Z" fill="#FF4B2B"/>
<path opacity="0.3" d="M17.9988 7.16033C19.3068 6.91977 20.5553 7.4009 20.377 8.30302C20.1986 9.26528 18.9501 11.0094 17.4043 11.4905C19.1284 11.1898 20.5553 9.32542 20.7337 8.24288C20.912 7.28062 19.4257 6.79949 17.9988 7.16033Z" fill="#FFC9BF"/>
<path d="M15.5018 9.98702C16.5126 10.408 18.2962 8.30306 18.5934 7.70164C18.8907 7.10023 17.88 7.16037 16.9287 8.06249C16.0369 8.96461 15.3235 9.86673 15.3235 9.86673L15.5018 9.98702Z" fill="#CC2929"/>
<path opacity="0.1" d="M22.1012 23.2784H8.01078C7.77297 23.2784 7.53516 23.098 7.53516 22.8574V23.5791C7.53516 23.8197 7.77297 24.0001 8.01078 24.0001H22.1012C22.3391 24.0001 22.5769 23.8197 22.5769 23.5791V22.8574C22.5769 23.098 22.3391 23.2784 22.1012 23.2784Z" fill="#FF6145"/>
<path d="M16.9881 12.7534H13.1831V23.9999H16.9881V12.7534Z" fill="#FF4B2B"/>
<path opacity="0.3" d="M12.8122 23.9971H13.1689L13.1689 12.7506H12.8122L12.8122 23.9971Z" fill="#FF4545"/>
<path opacity="0.3" d="M22.1012 23.8795H8.01078C7.77297 23.8795 7.53516 23.6991 7.53516 23.4585V23.5788C7.53516 23.8193 7.77297 23.9998 8.01078 23.9998H22.1012C22.3391 23.9998 22.5769 23.8193 22.5769 23.5788V23.4585C22.5769 23.6991 22.3391 23.8795 22.1012 23.8795Z" fill="#FFE9BA"/>
<path d="M22.7552 13.8359H7.35672C7.17836 13.8359 7 13.6555 7 13.415V10.2876C7 10.047 7.17836 9.92676 7.35672 9.92676H22.6957C22.9335 9.92676 23.0524 10.1072 23.0524 10.2876V13.415C23.1119 13.6555 22.9335 13.8359 22.7552 13.8359Z" fill="#FFC445"/>
<path opacity="0.4" d="M8.48633 12.994C8.24852 12.994 8.07016 12.8135 8.07016 12.6331V9.92676H7.41617C7.17836 9.92676 7 10.1072 7 10.2876V13.4751C7 13.6555 7.17836 13.8359 7.41617 13.8359H22.6957C22.9335 13.8359 23.1119 13.6555 23.1119 13.4751V12.994H8.48633Z" fill="#FFAE00"/>
<path opacity="0.3" d="M16.6314 9.92676H12.8264V13.8359H16.6314V9.92676Z" fill="#FF4545"/>
<path d="M16.9881 9.92676H13.1831V13.8359H16.9881V9.92676Z" fill="#FF4B2B"/>
<path opacity="0.2" d="M22.5769 13.8359H7.53516V14.3171H22.5769V13.8359Z" fill="#CC3737"/>
<path opacity="0.3" d="M22.6957 9.92676H7.41617C7.23781 9.92676 7.05945 10.047 7 10.1673H7.05945H22.339C22.5768 10.1673 22.7551 10.3477 22.7551 10.5282V13.7157C22.7551 13.7758 22.7551 13.7758 22.7551 13.8359C22.9335 13.8359 23.1119 13.6555 23.1119 13.4751V10.2876C23.1119 10.1072 22.9335 9.92676 22.6957 9.92676Z" fill="#FFE09E"/>
<path opacity="0.1" d="M15.9775 9.92676L16.9288 23.9998V9.92676H15.9775Z" fill="#FFE09E"/>
<path opacity="0.4" d="M14.2533 9.92676H13.1831V23.9998H14.2533V9.92676Z" fill="#FF4545"/>
<defs>
<linearGradient id="paint0_linear" x1="15" y1="-3.85714" x2="15" y2="35.1429" gradientUnits="userSpaceOnUse">
<stop stop-color="#A965EF"/>
<stop offset="1" stop-color="#7F6EF4"/>
</linearGradient>
</defs>
</svg>
