<svg width="207" height="62" viewBox="0 0 207 62" fill="none" xmlns="http://www.w3.org/2000/svg">
<path d="M199.333 62H7.66667C3.45 62 0 58.5125 0 54.25V7.75C0 3.4875 3.45 0 7.66667 0H199.333C203.55 0 207 3.4875 207 7.75V54.25C207 58.5125 203.55 62 199.333 62Z" fill="black"/>
<path d="M199.333 1.24C202.891 1.24 205.773 4.154 205.773 7.75V54.25C205.773 57.846 202.891 60.76 199.333 60.76H7.66667C4.10933 60.76 1.22667 57.846 1.22667 54.25V7.75C1.22667 4.154 4.10933 1.24 7.66667 1.24H199.333ZM199.333 0H7.66667C3.45 0 0 3.4875 0 7.75V54.25C0 58.5125 3.45 62 7.66667 62H199.333C203.55 62 207 58.5125 207 54.25V7.75C207 3.4875 203.55 0 199.333 0Z" fill="#A6A6A6"/>
<path d="M72.71 15.8719C72.71 17.1739 72.3267 18.2124 71.56 18.9719C70.7014 19.8864 69.5667 20.3514 68.1867 20.3514C66.8527 20.3514 65.7334 19.8864 64.798 18.9564C63.8627 18.0264 63.4027 16.8639 63.4027 15.4999C63.4027 14.1204 63.8627 12.9734 64.798 12.0434C65.7334 11.1134 66.8527 10.6484 68.1867 10.6484C68.846 10.6484 69.4747 10.7724 70.0727 11.0359C70.6707 11.2994 71.146 11.6404 71.514 12.0744L70.7014 12.8959C70.088 12.1674 69.26 11.7954 68.1867 11.7954C67.2207 11.7954 66.3774 12.1364 65.672 12.8339C64.9667 13.5159 64.614 14.4149 64.614 15.5154C64.614 16.6159 64.9667 17.5149 65.672 18.1969C66.3774 18.8789 67.2207 19.2354 68.1867 19.2354C69.214 19.2354 70.0727 18.8944 70.7627 18.1969C71.2074 17.7474 71.468 17.1119 71.5294 16.3059H68.1867V15.1744H72.6487C72.6794 15.4224 72.71 15.6549 72.71 15.8719Z" fill="white" stroke="white" stroke-width="0.2" stroke-miterlimit="10"/>
<path d="M79.7776 11.9969H75.5916V14.9419H79.3636V16.0579H75.5916V19.0029H79.7776V20.1499H74.4109V10.8499H79.7776V11.9969Z" fill="white" stroke="white" stroke-width="0.2" stroke-miterlimit="10"/>
<path d="M84.762 20.1499H83.5814V11.9969H81.0054V10.8499H87.3227V11.9969H84.7467V20.1499H84.762Z" fill="white" stroke="white" stroke-width="0.2" stroke-miterlimit="10"/>
<path d="M91.9065 20.1499V10.8499H93.0872V20.1499H91.9065Z" fill="white" stroke="white" stroke-width="0.2" stroke-miterlimit="10"/>
<path d="M98.3315 20.1499H97.1508V11.9969H94.5748V10.8499H100.892V11.9969H98.3162V20.1499H98.3315Z" fill="white" stroke="white" stroke-width="0.2" stroke-miterlimit="10"/>
<path d="M112.868 18.9409C111.963 19.8864 110.844 20.3514 109.495 20.3514C108.145 20.3514 107.026 19.8864 106.121 18.9409C105.217 17.9954 104.772 16.8484 104.772 15.4999C104.772 14.1514 105.217 12.9889 106.121 12.0589C107.026 11.1134 108.145 10.6484 109.495 10.6484C110.829 10.6484 111.948 11.1134 112.868 12.0589C113.773 13.0044 114.233 14.1514 114.233 15.4999C114.217 16.8639 113.773 18.0109 112.868 18.9409ZM106.995 18.1659C107.67 18.8634 108.513 19.2044 109.495 19.2044C110.476 19.2044 111.319 18.8634 111.994 18.1659C112.669 17.4684 113.021 16.5849 113.021 15.4999C113.021 14.4149 112.684 13.5314 111.994 12.8339C111.319 12.1364 110.476 11.7799 109.495 11.7799C108.513 11.7799 107.67 12.1209 106.995 12.8184C106.321 13.5314 105.968 14.4149 105.968 15.4999C105.968 16.5849 106.321 17.4684 106.995 18.1659Z" fill="white" stroke="white" stroke-width="0.2" stroke-miterlimit="10"/>
<path d="M115.889 20.1499V10.8499H117.33L121.807 18.0884H121.853L121.807 16.2904V10.8499H122.988V20.1499H121.761L117.085 12.5704H117.039L117.085 14.3684V20.1499H115.889Z" fill="white" stroke="white" stroke-width="0.2" stroke-miterlimit="10"/>
<path d="M104.48 33.7122C100.877 33.7122 97.9325 36.4867 97.9325 40.2997C97.9325 44.0972 100.877 46.8872 104.48 46.8872C108.083 46.8872 111.027 44.0972 111.027 40.2997C111.027 36.4867 108.083 33.7122 104.48 33.7122ZM104.48 44.2987C102.502 44.2987 100.8 42.6557 100.8 40.2997C100.8 37.9282 102.502 36.3007 104.48 36.3007C106.458 36.3007 108.16 37.9282 108.16 40.2997C108.16 42.6557 106.443 44.2987 104.48 44.2987ZM90.1892 33.7122C86.5858 33.7122 83.6418 36.4867 83.6418 40.2997C83.6418 44.0972 86.5858 46.8872 90.1892 46.8872C93.7925 46.8872 96.7365 44.0972 96.7365 40.2997C96.7365 36.4867 93.7925 33.7122 90.1892 33.7122ZM90.1892 44.2987C88.2112 44.2987 86.5092 42.6557 86.5092 40.2997C86.5092 37.9282 88.2112 36.3007 90.1892 36.3007C92.1672 36.3007 93.8692 37.9282 93.8692 40.2997C93.8692 42.6557 92.1672 44.2987 90.1892 44.2987ZM73.1998 35.7427V38.5328H79.8238C79.6245 40.0982 79.1032 41.2607 78.3212 42.0512C77.3552 43.0277 75.8525 44.0972 73.2152 44.0972C69.1365 44.0972 65.9472 40.7802 65.9472 36.6572C65.9472 32.5342 69.1365 29.2172 73.2152 29.2172C75.4078 29.2172 77.0178 30.0852 78.1985 31.2167L80.1458 29.2482C78.4898 27.6517 76.2972 26.4272 73.1998 26.4272C67.6185 26.4272 62.9265 31.0152 62.9265 36.6727C62.9265 42.3147 67.6185 46.9183 73.1998 46.9183C76.2205 46.9183 78.4898 45.9263 80.2685 44.0507C82.0932 42.2062 82.6605 39.6023 82.6605 37.5097C82.6605 36.8587 82.6145 36.2542 82.5072 35.7582H73.1998V35.7427ZM142.675 37.9127C142.139 36.4402 140.483 33.7122 137.094 33.7122C133.736 33.7122 130.945 36.3782 130.945 40.2997C130.945 43.9888 133.705 46.8872 137.416 46.8872C140.406 46.8872 142.139 45.0428 142.844 43.9733L140.621 42.4697C139.885 43.5702 138.873 44.2987 137.416 44.2987C135.959 44.2987 134.917 43.6168 134.257 42.2993L142.982 38.6567L142.675 37.9127ZM133.782 40.1137C133.705 37.5717 135.729 36.2697 137.186 36.2697C138.321 36.2697 139.287 36.8432 139.609 37.6647L133.782 40.1137ZM126.698 46.4998H129.565V27.1247H126.698V46.4998ZM122.006 35.1847H121.899C121.255 34.4097 120.028 33.7122 118.464 33.7122C115.198 33.7122 112.208 36.6107 112.208 40.3307C112.208 44.0198 115.198 46.9028 118.464 46.9028C120.013 46.9028 121.255 46.2053 121.899 45.3993H121.991V46.3447C121.991 48.8713 120.657 50.2198 118.51 50.2198C116.762 50.2198 115.673 48.9487 115.229 47.8792L112.729 48.9333C113.45 50.6847 115.351 52.8238 118.51 52.8238C121.868 52.8238 124.705 50.8242 124.705 45.9572V34.1152H121.991V35.1847H122.006ZM118.709 44.2987C116.731 44.2987 115.075 42.6248 115.075 40.3307C115.075 38.0057 116.731 36.3162 118.709 36.3162C120.657 36.3162 122.19 38.0212 122.19 40.3307C122.205 42.6248 120.672 44.2987 118.709 44.2987ZM156.107 27.1247H149.253V46.4998H152.12V39.1527H156.123C159.297 39.1527 162.409 36.8277 162.409 33.1387C162.409 29.4497 159.266 27.1247 156.107 27.1247ZM156.169 36.4557H152.105V29.8062H156.169C158.315 29.8062 159.527 31.6042 159.527 33.1232C159.527 34.6423 158.315 36.4557 156.169 36.4557ZM173.863 33.6812C171.793 33.6812 169.646 34.6112 168.757 36.6417L171.303 37.7112C171.839 36.6417 172.851 36.2852 173.909 36.2852C175.396 36.2852 176.899 37.1842 176.914 38.7807V38.9822C176.393 38.6877 175.289 38.2382 173.924 38.2382C171.18 38.2382 168.405 39.7572 168.405 42.5937C168.405 45.1822 170.643 46.8562 173.158 46.8562C175.075 46.8562 176.148 45.9883 176.807 44.9653H176.899V46.4687H179.659V39.0442C179.674 35.6032 177.129 33.6812 173.863 33.6812ZM173.511 44.2987C172.575 44.2987 171.272 43.8183 171.272 42.6558C171.272 41.1677 172.897 40.5942 174.308 40.5942C175.565 40.5942 176.163 40.8733 176.914 41.2452C176.7 43.0278 175.167 44.2987 173.511 44.2987ZM189.733 34.0997L186.452 42.5007H186.36L182.956 34.0997H179.874L184.98 45.8487L182.066 52.3743H185.057L192.923 34.0997H189.733ZM163.973 46.4998H166.84V27.1247H163.973V46.4998Z" fill="white"/>
<path d="M16.0079 11.6871C15.5633 12.1676 15.3026 12.9116 15.3026 13.8571V48.1431C15.3026 49.1041 15.5633 49.8481 16.0079 50.3131L16.1153 50.4216L35.1133 31.2326V31.0001V30.7676L16.1153 11.5786L16.0079 11.6871Z" fill="url(#paint0_linear)"/>
<path d="M41.4458 37.6342L35.1132 31.2327V31.0002V30.7677L41.4458 24.3662L41.5838 24.4437L49.0818 28.7527C51.2285 29.9772 51.2285 31.9922 49.0818 33.2322L41.5838 37.5412L41.4458 37.6342Z" fill="url(#paint1_linear)"/>
<path d="M41.5854 37.5565L35.1147 31L16.0094 50.313C16.7147 51.0725 17.8801 51.1655 19.1987 50.406L41.5854 37.5565Z" fill="url(#paint2_linear)"/>
<path d="M41.5857 24.4589L19.1837 11.5939C17.8651 10.8344 16.6997 10.9274 15.9944 11.6869L35.1151 30.9999L41.5857 24.4589Z" fill="url(#paint3_linear)"/>
<path opacity="0.2" d="M41.4468 37.4011L19.1828 50.1886C17.9408 50.9016 16.8215 50.8551 16.1161 50.2041L16.0088 50.3126L16.1161 50.4211C16.8368 51.0721 17.9408 51.1186 19.1828 50.4056L41.5848 37.5406L41.4468 37.4011Z" fill="black"/>
<path opacity="0.12" d="M16.0073 50.0958C15.5627 49.6153 15.302 48.8713 15.302 47.9258V48.1583C15.302 49.1193 15.5627 49.8633 16.0073 50.3283L16.1147 50.2198L16.0073 50.0958Z" fill="black"/>
<path opacity="0.12" d="M49.0835 33.015L41.4321 37.4015L41.5701 37.541L49.0681 33.232C50.1415 32.612 50.6781 31.806 50.6781 31C50.6015 31.7285 50.0648 32.457 49.0835 33.015Z" fill="black"/>
<path opacity="0.25" d="M19.1823 11.811L49.0823 28.985C50.0483 29.543 50.6003 30.256 50.6923 31C50.6923 30.194 50.1556 29.3725 49.0823 28.768L19.1823 11.594C17.0356 10.3695 15.2876 11.3925 15.2876 13.8725V14.105C15.2876 11.6095 17.0509 10.5865 19.1823 11.811Z" fill="white"/>
<defs>
<linearGradient id="paint0_linear" x1="33.426" y1="13.5003" x2="7.4148" y2="39.2318" gradientUnits="userSpaceOnUse">
<stop stop-color="#00A0FF"/>
<stop offset="0.00657445" stop-color="#00A1FF"/>
<stop offset="0.2601" stop-color="#00BEFF"/>
<stop offset="0.5122" stop-color="#00D2FF"/>
<stop offset="0.7604" stop-color="#00DFFF"/>
<stop offset="1" stop-color="#00E3FF"/>
</linearGradient>
<linearGradient id="paint1_linear" x1="51.8791" y1="31.0025" x2="14.7772" y2="31.0025" gradientUnits="userSpaceOnUse">
<stop stop-color="#FFE000"/>
<stop offset="0.4087" stop-color="#FFBD00"/>
<stop offset="0.7754" stop-color="#FFA500"/>
<stop offset="1" stop-color="#FF9C00"/>
</linearGradient>
<linearGradient id="paint2_linear" x1="38.0693" y1="34.5591" x2="2.79599" y2="69.4531" gradientUnits="userSpaceOnUse">
<stop stop-color="#FF3A44"/>
<stop offset="1" stop-color="#C31162"/>
</linearGradient>
<linearGradient id="paint3_linear" x1="11.1908" y1="0.273123" x2="26.9419" y2="15.8547" gradientUnits="userSpaceOnUse">
<stop stop-color="#32A071"/>
<stop offset="0.0685" stop-color="#2DA771"/>
<stop offset="0.4762" stop-color="#15CF74"/>
<stop offset="0.8009" stop-color="#06E775"/>
<stop offset="1" stop-color="#00F076"/>
</linearGradient>
</defs>
</svg>
