<svg width="232" height="42" viewBox="0 0 232 42" fill="none" xmlns="http://www.w3.org/2000/svg">
<path d="M20.7749 0C19.7708 0 17.529 0.264151 15.2287 7.42751C8.34845 4.05611 6.83899 5.38381 6.08598 6.15194C5.38111 6.86445 3.97824 8.6579 7.34787 15.3451C0.195989 17.8059 0 20.291 0 21C0 21.6604 0.264756 24.2185 7.32724 26.5924C3.98855 33.4533 5.58741 35.351 6.0791 35.855C6.53985 36.3208 8.52037 37.9404 15.1668 34.5725C17.5703 41.8019 19.8087 42 20.7714 42C21.7754 42 24.0138 41.7359 26.3072 34.6038C33.0603 37.9995 34.7829 36.5397 35.4603 35.855C36.1652 35.139 37.568 33.3491 34.1984 26.6549C41.3503 24.1941 41.5463 21.709 41.5463 21C41.5463 20.3396 41.2815 17.7815 34.219 15.4076C37.5577 8.55015 35.9589 6.64896 35.4603 6.15194C34.9961 5.6862 33.0121 4.06306 26.3451 7.44836C23.8419 0.135551 21.8442 0 20.7749 0ZM7.92209 8.00795C8.14559 7.78203 8.8986 6.80536 14.7164 9.15144C14.6889 9.25223 14.6579 9.34955 14.6339 9.4573C13.7983 12.5089 11.976 13.9583 9.40748 14.6986C9.27682 14.7368 9.15304 14.7716 9.02926 14.8098C6.5708 9.09235 7.64014 8.29643 7.92209 8.00795ZM25.2207 9.90219C25.2826 9.8709 25.3411 9.8431 25.4029 9.81877C25.4408 9.90914 25.4717 9.99603 25.5061 10.0864C26.6958 13.1415 28.6007 15.1887 31.6815 16.3287C31.7502 16.3565 31.8121 16.3774 31.874 16.4017C31.8328 16.4921 31.7949 16.5755 31.7537 16.6693C30.4024 19.6584 30.3164 22.5189 31.7537 25.501C31.7846 25.5636 31.8121 25.6261 31.8431 25.6887C31.7537 25.7269 31.6608 25.7582 31.5714 25.7929C28.5319 26.933 26.4654 28.8898 25.3961 32.0248C25.3754 32.0943 25.3479 32.1569 25.3273 32.2229C25.2379 32.1812 25.1519 32.143 25.0557 32.1013C22.0883 30.7562 19.2963 30.7041 16.3187 32.1013C16.2568 32.1326 16.1949 32.1604 16.1364 32.1847C16.0986 32.0943 16.0677 32.0075 16.0333 31.9101C14.8745 28.8446 12.9387 26.8078 9.85791 25.6678C9.78914 25.64 9.72725 25.6192 9.66536 25.5948C9.70318 25.5045 9.74444 25.4211 9.7857 25.3307C11.137 22.3416 11.1989 19.4985 9.7857 16.499C9.75476 16.4364 9.72725 16.3739 9.69631 16.3113C9.7857 16.2731 9.87854 16.2418 9.96794 16.2071C13.0109 15.0636 15.0465 13.0929 16.1502 9.96822C16.1708 9.90566 16.1983 9.8431 16.219 9.78054C16.3084 9.81877 16.3943 9.86048 16.4906 9.89523C19.4614 11.216 22.2465 11.2994 25.2207 9.90219ZM2.596 21C2.596 20.6316 2.41032 19.3317 8.18341 16.9265C8.24186 17.0273 8.29688 17.1316 8.35533 17.2324C9.89917 19.9851 9.61722 22.3138 8.32438 24.6703C8.26249 24.7815 8.20404 24.8893 8.14215 25.0005C2.46878 22.6753 2.596 21.3371 2.596 21ZM7.92209 33.9955C7.66077 33.7314 6.62237 32.9459 9.02238 27.1172C9.13241 27.1485 9.239 27.1797 9.3559 27.211C12.3748 28.0556 13.8018 29.8977 14.541 32.494C14.5788 32.6192 14.6132 32.7408 14.6442 32.8625C9.00175 35.2746 8.1559 34.2354 7.92209 33.9955ZM20.7749 39.3759C20.4688 39.3759 19.2276 39.6922 16.7554 33.721C16.8482 33.6688 16.9479 33.6097 17.0476 33.5576C19.7708 31.997 22.0746 32.282 24.4058 33.5889C24.5262 33.6584 24.6431 33.7244 24.7634 33.787C22.5525 39.5392 21.0706 39.3759 20.7749 39.3759ZM33.6311 33.9955C33.4144 34.2145 32.7543 35.3232 26.8333 32.8729C26.8643 32.7686 26.8952 32.6574 26.9227 32.5462C27.7583 29.4945 29.5806 28.0452 32.1491 27.3049C32.2832 27.2666 32.4139 27.2249 32.5445 27.1902C34.9961 32.8451 33.8442 33.7835 33.6311 33.9955ZM38.9537 21C38.9537 21.3684 39.1394 22.6683 33.3663 25.0735C33.3078 24.9727 33.2563 24.8754 33.2013 24.7676C31.6574 22.0149 31.9394 19.6862 33.2322 17.3297C33.2941 17.215 33.356 17.1038 33.4144 16.9926C39.0844 19.3247 38.9537 20.6663 38.9537 21ZM33.6311 8.00795C33.8924 8.2721 34.9308 9.0576 32.5308 14.8863C32.4207 14.855 32.3141 14.8237 32.1972 14.7925C29.1783 13.9479 27.7926 12.0884 27.0121 9.50943C26.9743 9.38779 26.9399 9.26961 26.9021 9.14796C32.5514 6.73237 33.3972 7.7716 33.6311 8.00795ZM24.7806 8.28947C24.6912 8.34161 24.5984 8.39027 24.5055 8.44588C21.7823 10.0065 19.4992 9.68322 17.1473 8.4146C17.027 8.35204 16.9135 8.28947 16.7932 8.22691C19.0625 2.42602 20.376 2.62413 20.7783 2.62413C21.0877 2.62413 22.3015 2.46773 24.7806 8.28947Z" fill="url(#paint0_linear)"/>
<path fill-rule="evenodd" clip-rule="evenodd" d="M55.3447 27.3745C55.3447 27.7394 55.6267 28.0383 55.974 28.0383H66.5024C66.5505 28.0383 66.5883 27.9966 66.5883 27.948V26.9991C66.5883 26.9504 66.5505 26.9087 66.5024 26.9087H56.8095C56.696 26.9087 56.6032 26.8114 56.6032 26.6898V21.3581C56.6032 21.2364 56.696 21.1426 56.8095 21.1426H65.8594C65.9075 21.1426 65.9453 21.1009 65.9453 21.0522V20.1312C65.9453 20.0825 65.9075 20.0408 65.8594 20.0408H56.8095C56.696 20.0408 56.6032 19.9435 56.6032 19.8253V15.3139C56.6032 15.1922 56.696 15.0984 56.8095 15.0984H66.3579C66.4061 15.0984 66.4439 15.0567 66.4439 15.008V14.0557C66.4439 14.007 66.4061 13.9653 66.3579 13.9653H55.974C55.6267 13.9653 55.3447 14.2642 55.3447 14.6292V27.3745Z" fill="#042132"/>
<path fill-rule="evenodd" clip-rule="evenodd" d="M72.8569 28.0346H83.3647C83.4128 28.0346 83.4541 27.9929 83.4541 27.9442V26.9954C83.4541 26.9432 83.4128 26.905 83.3647 26.905H73.603C73.4861 26.905 73.3898 26.8077 73.3898 26.686V14.0555C73.3898 14.0068 73.3486 13.9651 73.3004 13.9651H72.2964C72.2483 13.9651 72.207 14.0068 72.207 14.0555V27.3742C72.2105 27.7392 72.4993 28.0346 72.8569 28.0346Z" fill="#042132"/>
<path fill-rule="evenodd" clip-rule="evenodd" d="M110.311 22.8629L114.056 15.4284C114.097 15.3519 114.18 15.3241 114.242 15.3241C114.307 15.3241 114.389 15.3519 114.427 15.4284L118.165 22.8629C118.199 22.9289 118.196 23.0123 118.158 23.0749C118.12 23.1409 118.051 23.1826 117.976 23.1826H110.494C110.422 23.1826 110.353 23.1444 110.315 23.0784C110.277 23.0123 110.277 22.9324 110.311 22.8629ZM109.706 24.2879H118.77C118.849 24.2879 118.918 24.3331 118.956 24.4026L120.75 27.986C120.764 28.0173 120.795 28.0347 120.83 28.0347H121.913C121.944 28.0347 121.971 28.0173 121.988 27.9895C122.002 27.9617 122.006 27.9269 121.992 27.8991L115.311 14.6464C115.277 14.5769 114.946 13.9617 114.235 13.9617C113.509 13.9617 113.176 14.6151 113.162 14.6429L106.485 27.9026C106.471 27.9304 106.471 27.9651 106.488 27.993C106.505 28.0208 106.533 28.0381 106.564 28.0381H107.647C107.681 28.0381 107.709 28.0208 107.726 27.9895L109.521 24.4095C109.558 24.3331 109.627 24.2879 109.706 24.2879Z" fill="#042132"/>
<path fill-rule="evenodd" clip-rule="evenodd" d="M100.553 23.0957C100.353 22.7377 100.082 22.4145 99.7446 22.1364C99.4076 21.8619 99.0087 21.6151 98.5549 21.4066C98.1044 21.198 97.6196 21.0103 97.1142 20.84C96.6087 20.6732 96.0827 20.5133 95.5463 20.3708C95.0099 20.2248 94.4872 20.0823 93.9818 19.9398C93.4901 19.8043 93.0087 19.6513 92.5445 19.4845C92.0975 19.3246 91.6987 19.1439 91.3652 18.9458C91.0316 18.7511 90.7669 18.5218 90.5709 18.268C90.3749 18.0143 90.2786 17.7258 90.2786 17.3852C90.2786 16.9786 90.3783 16.6379 90.5881 16.346C90.7944 16.054 91.097 15.8073 91.489 15.6161C91.8706 15.4284 92.3451 15.3276 92.94 15.2303C93.4867 15.1434 94.1159 15.0947 94.8104 15.0947H99.7205C99.7411 15.0947 99.7617 15.0843 99.7789 15.0669C99.7927 15.0496 99.803 15.0287 99.803 15.0044V14.052C99.803 14.0034 99.7652 13.9617 99.7239 13.9617H99.6448H94.8173C94.3359 13.9617 92.9296 13.9964 92.1354 14.205C91.7159 14.3058 91.3136 14.4483 90.9457 14.622C90.5743 14.7958 90.2477 15.0183 89.9726 15.2755C89.6975 15.5327 89.474 15.842 89.3159 16.2C89.1577 16.5545 89.0752 16.9681 89.0752 17.4269C89.0752 17.8927 89.1749 18.3063 89.3743 18.6608C89.5738 19.0118 89.8454 19.3246 90.1824 19.5923C90.5159 19.8564 90.9147 20.0928 91.3686 20.2943C91.819 20.4925 92.3039 20.6732 92.8024 20.8296C93.301 20.986 93.8271 21.1355 94.3634 21.271C94.8998 21.4066 95.4225 21.5456 95.921 21.6846C96.4265 21.8271 96.9079 21.9835 97.3514 22.1469C97.8019 22.3102 98.1973 22.5014 98.5308 22.7134C98.8643 22.9254 99.1291 23.1757 99.3251 23.4537C99.5211 23.7353 99.6139 24.0515 99.6139 24.4234C99.6139 24.8892 99.4936 25.2715 99.2494 25.5913C99.0087 25.911 98.6649 26.1717 98.2282 26.3698C97.7778 26.5749 97.2276 26.6687 96.6603 26.7556C96.1067 26.8425 95.4603 26.8877 94.6832 26.8946H89.2265C89.1818 26.8946 89.1474 26.9363 89.1474 26.985V27.9373C89.1474 27.9895 89.1818 28.0277 89.2265 28.0277L94.6454 28.0312C95.1165 28.0312 95.6047 28.0103 96.0895 27.9651C96.5778 27.9234 97.0557 27.847 97.513 27.7427L97.6162 27.7184C98.0322 27.6245 98.4276 27.5307 98.8059 27.3639C99.2116 27.1831 99.5658 26.9503 99.8683 26.6757C100.171 26.4011 100.412 26.0674 100.59 25.6886C100.769 25.3063 100.859 24.8544 100.859 24.3435C100.852 23.8743 100.752 23.4537 100.553 23.0957Z" fill="#042132"/>
<path d="M165.864 25V16.408H168.972C169.652 16.408 170.236 16.632 170.724 17.08C171.212 17.52 171.456 18.076 171.456 18.748C171.456 19.596 171.068 20.192 170.292 20.536V20.584C170.732 20.728 171.084 20.98 171.348 21.34C171.612 21.692 171.744 22.096 171.744 22.552C171.744 23.256 171.488 23.84 170.976 24.304C170.48 24.768 169.868 25 169.14 25H165.864ZM166.968 17.464V20.092H168.972C169.364 20.092 169.692 19.96 169.956 19.696C170.22 19.424 170.352 19.116 170.352 18.772C170.352 18.436 170.224 18.132 169.968 17.86C169.712 17.596 169.396 17.464 169.02 17.464H166.968ZM166.968 21.124V23.944H169.188C169.588 23.944 169.928 23.804 170.208 23.524C170.48 23.244 170.616 22.912 170.616 22.528C170.616 22.152 170.476 21.824 170.196 21.544C169.916 21.264 169.564 21.124 169.14 21.124H166.968ZM177.977 25.192C177.025 25.192 176.257 24.88 175.673 24.256C175.089 23.64 174.797 22.824 174.797 21.808V16.408H175.901V21.856C175.901 22.56 176.085 23.116 176.453 23.524C176.821 23.932 177.329 24.136 177.977 24.136C178.625 24.136 179.133 23.932 179.501 23.524C179.869 23.116 180.053 22.56 180.053 21.856V16.408H181.157V21.808C181.157 22.848 180.869 23.672 180.293 24.28C179.717 24.888 178.945 25.192 177.977 25.192ZM189.992 22.708C189.992 23.46 189.716 24.064 189.164 24.52C188.604 24.968 187.924 25.192 187.124 25.192C186.412 25.192 185.784 24.984 185.24 24.568C184.696 24.152 184.32 23.584 184.112 22.864L185.168 22.432C185.24 22.688 185.34 22.92 185.468 23.128C185.596 23.336 185.744 23.516 185.912 23.668C186.088 23.812 186.28 23.928 186.488 24.016C186.696 24.096 186.916 24.136 187.148 24.136C187.652 24.136 188.064 24.008 188.384 23.752C188.704 23.488 188.864 23.14 188.864 22.708C188.864 22.348 188.732 22.04 188.468 21.784C188.22 21.536 187.756 21.296 187.076 21.064C186.388 20.816 185.96 20.648 185.792 20.56C184.88 20.096 184.424 19.412 184.424 18.508C184.424 17.876 184.676 17.336 185.18 16.888C185.692 16.44 186.32 16.216 187.064 16.216C187.72 16.216 188.288 16.384 188.768 16.72C189.248 17.048 189.568 17.46 189.728 17.956L188.696 18.388C188.6 18.068 188.408 17.804 188.12 17.596C187.84 17.38 187.496 17.272 187.088 17.272C186.656 17.272 186.292 17.392 185.996 17.632C185.7 17.856 185.552 18.148 185.552 18.508C185.552 18.804 185.668 19.06 185.9 19.276C186.156 19.492 186.712 19.748 187.568 20.044C188.44 20.34 189.06 20.704 189.428 21.136C189.804 21.56 189.992 22.084 189.992 22.708ZM194.425 25H193.321V16.408H194.425V25ZM199.261 25H198.157V16.408H199.501L203.677 23.092H203.725L203.677 21.436V16.408H204.781V25H203.629L199.261 17.992H199.213L199.261 19.648V25ZM213.528 16.408V17.464H209.616V20.188H213.144V21.22H209.616V23.944H213.528V25H208.512V16.408H213.528ZM222.32 22.708C222.32 23.46 222.044 24.064 221.492 24.52C220.932 24.968 220.252 25.192 219.452 25.192C218.74 25.192 218.112 24.984 217.568 24.568C217.024 24.152 216.648 23.584 216.44 22.864L217.496 22.432C217.568 22.688 217.668 22.92 217.796 23.128C217.924 23.336 218.072 23.516 218.24 23.668C218.416 23.812 218.608 23.928 218.816 24.016C219.024 24.096 219.244 24.136 219.476 24.136C219.98 24.136 220.392 24.008 220.712 23.752C221.032 23.488 221.192 23.14 221.192 22.708C221.192 22.348 221.06 22.04 220.796 21.784C220.548 21.536 220.084 21.296 219.404 21.064C218.716 20.816 218.288 20.648 218.12 20.56C217.208 20.096 216.752 19.412 216.752 18.508C216.752 17.876 217.004 17.336 217.508 16.888C218.02 16.44 218.648 16.216 219.392 16.216C220.048 16.216 220.616 16.384 221.096 16.72C221.576 17.048 221.896 17.46 222.056 17.956L221.024 18.388C220.928 18.068 220.736 17.804 220.448 17.596C220.168 17.38 219.824 17.272 219.416 17.272C218.984 17.272 218.62 17.392 218.324 17.632C218.028 17.856 217.88 18.148 217.88 18.508C217.88 18.804 217.996 19.06 218.228 19.276C218.484 19.492 219.04 19.748 219.896 20.044C220.768 20.34 221.388 20.704 221.756 21.136C222.132 21.56 222.32 22.084 222.32 22.708ZM230.953 22.708C230.953 23.46 230.677 24.064 230.125 24.52C229.565 24.968 228.885 25.192 228.085 25.192C227.373 25.192 226.745 24.984 226.201 24.568C225.657 24.152 225.281 23.584 225.073 22.864L226.129 22.432C226.201 22.688 226.301 22.92 226.429 23.128C226.557 23.336 226.705 23.516 226.873 23.668C227.049 23.812 227.241 23.928 227.449 24.016C227.657 24.096 227.877 24.136 228.109 24.136C228.613 24.136 229.025 24.008 229.345 23.752C229.665 23.488 229.825 23.14 229.825 22.708C229.825 22.348 229.693 22.04 229.429 21.784C229.181 21.536 228.717 21.296 228.037 21.064C227.349 20.816 226.921 20.648 226.753 20.56C225.841 20.096 225.385 19.412 225.385 18.508C225.385 17.876 225.637 17.336 226.141 16.888C226.653 16.44 227.281 16.216 228.025 16.216C228.681 16.216 229.249 16.384 229.729 16.72C230.209 17.048 230.529 17.46 230.689 17.956L229.657 18.388C229.561 18.068 229.369 17.804 229.081 17.596C228.801 17.38 228.457 17.272 228.049 17.272C227.617 17.272 227.253 17.392 226.957 17.632C226.661 17.856 226.513 18.148 226.513 18.508C226.513 18.804 226.629 19.06 226.861 19.276C227.117 19.492 227.673 19.748 228.529 20.044C229.401 20.34 230.021 20.704 230.389 21.136C230.765 21.56 230.953 22.084 230.953 22.708Z" fill="#121131"/>
<path opacity="0.5" d="M149 8H148L138 32H139L149 8Z" fill="#121131"/>
<defs>
<linearGradient id="paint0_linear" x1="20.7731" y1="42" x2="20.7731" y2="0" gradientUnits="userSpaceOnUse">
<stop stop-color="#007DF7"/>
<stop offset="0.5028" stop-color="#46DF83"/>
<stop offset="1" stop-color="#F8DA49"/>
</linearGradient>
</defs>
</svg>
