<svg width="34" height="34" viewBox="0 0 34 34" fill="none" xmlns="http://www.w3.org/2000/svg">
<g clip-path="url(#clip0)">
<path d="M6.17391 16.1138C6.17391 15.4879 5.68727 14.9805 5.08696 14.9805C4.48665 14.9805 4 15.4879 4 16.1138C4 22.7972 9.03977 28.2373 15.413 28.7975V31.7331H10.1594C9.55908 31.7331 9.07243 32.2405 9.07243 32.8664C9.07243 33.4924 9.55908 33.9998 10.1594 33.9998H16.4958L16.5 33.9998L16.5042 33.9998H22.8405C23.4409 33.9998 23.9275 33.4924 23.9275 32.8664C23.9275 32.2405 23.4409 31.7331 22.8405 31.7331H17.587V28.7975C23.9602 28.2373 29 22.7972 29 16.1138C29 15.4879 28.5134 14.9805 27.913 14.9805C27.3127 14.9805 26.8261 15.4879 26.8261 16.1138C26.8261 21.8665 22.23 26.5784 16.5 26.5784C10.77 26.5784 6.17391 21.8665 6.17391 16.1138Z" fill="#121131"/>
<rect x="10.25" y="1.25" width="12.5" height="21.5" rx="6.25" stroke="#121131" stroke-width="2.5"/>
</g>
<defs>
<clipPath id="clip0">
<rect width="34" height="34" fill="white"/>
</clipPath>
</defs>
</svg>
