<svg width="24" height="24" viewBox="0 0 24 24" fill="none" xmlns="http://www.w3.org/2000/svg">
<mask id="mask0" mask-type="alpha" maskUnits="userSpaceOnUse" x="0" y="0" width="24" height="24">
<circle cx="12" cy="12" r="12" fill="#C4C4C4"/>
</mask>
<g mask="url(#mask0)">
<rect x="-6" y="-0.571426" width="38" height="27.1429" rx="2" fill="white"/>
<mask id="mask1" mask-type="alpha" maskUnits="userSpaceOnUse" x="-6" y="-1" width="38" height="28">
<rect x="-6" y="-0.571426" width="38" height="27.1429" rx="2" fill="white"/>
</mask>
<g mask="url(#mask1)">
<path fill-rule="evenodd" clip-rule="evenodd" d="M32 -0.571426H-6V1.2381H32V-0.571426ZM32 3.04761H-6V4.85714H32V3.04761ZM-6 6.66668H32V8.4762H-6V6.66668ZM32 10.2857H-6V12.0952H32V10.2857ZM-6 13.9048H32V15.7143H-6V13.9048ZM32 17.5238H-6V19.3333H32V17.5238ZM-6 21.1429H32V22.9524H-6V21.1429ZM32 24.7619H-6V26.5714H32V24.7619Z" fill="#D02F44"/>
<rect x="-6" y="-0.571426" width="16.2857" height="12.6667" fill="#46467F"/>
<g filter="url(#filter0_d)">
<path fill-rule="evenodd" clip-rule="evenodd" d="M-2.38091 2.14287C-2.38091 2.64256 -2.78598 3.04763 -3.28567 3.04763C-3.78535 3.04763 -4.19043 2.64256 -4.19043 2.14287C-4.19043 1.64318 -3.78535 1.23811 -3.28567 1.23811C-2.78598 1.23811 -2.38091 1.64318 -2.38091 2.14287ZM1.23808 2.14287C1.23808 2.64256 0.833002 3.04763 0.333316 3.04763C-0.16637 3.04763 -0.571446 2.64256 -0.571446 2.14287C-0.571446 1.64318 -0.16637 1.23811 0.333316 1.23811C0.833002 1.23811 1.23808 1.64318 1.23808 2.14287ZM3.95244 3.04763C4.45213 3.04763 4.8572 2.64256 4.8572 2.14287C4.8572 1.64318 4.45213 1.23811 3.95244 1.23811C3.45275 1.23811 3.04768 1.64318 3.04768 2.14287C3.04768 2.64256 3.45275 3.04763 3.95244 3.04763ZM8.47626 2.14287C8.47626 2.64256 8.07118 3.04763 7.5715 3.04763C7.07181 3.04763 6.66673 2.64256 6.66673 2.14287C6.66673 1.64318 7.07181 1.23811 7.5715 1.23811C8.07118 1.23811 8.47626 1.64318 8.47626 2.14287ZM-1.47614 4.85716C-0.976455 4.85716 -0.571379 4.45209 -0.571379 3.9524C-0.571379 3.45272 -0.976455 3.04764 -1.47614 3.04764C-1.97583 3.04764 -2.3809 3.45272 -2.3809 3.9524C-2.3809 4.45209 -1.97583 4.85716 -1.47614 4.85716ZM3.04768 3.9524C3.04768 4.45209 2.6426 4.85716 2.14291 4.85716C1.64323 4.85716 1.23815 4.45209 1.23815 3.9524C1.23815 3.45272 1.64323 3.04764 2.14291 3.04764C2.6426 3.04764 3.04768 3.45272 3.04768 3.9524ZM5.7619 4.85716C6.26158 4.85716 6.66666 4.45209 6.66666 3.9524C6.66666 3.45272 6.26158 3.04764 5.7619 3.04764C5.26221 3.04764 4.85714 3.45272 4.85714 3.9524C4.85714 4.45209 5.26221 4.85716 5.7619 4.85716ZM8.47626 5.76191C8.47626 6.26159 8.07118 6.66667 7.5715 6.66667C7.07181 6.66667 6.66673 6.26159 6.66673 5.76191C6.66673 5.26222 7.07181 4.85715 7.5715 4.85715C8.07118 4.85715 8.47626 5.26222 8.47626 5.76191ZM3.95244 6.66667C4.45213 6.66667 4.8572 6.26159 4.8572 5.76191C4.8572 5.26222 4.45213 4.85715 3.95244 4.85715C3.45275 4.85715 3.04768 5.26222 3.04768 5.76191C3.04768 6.26159 3.45275 6.66667 3.95244 6.66667ZM1.23808 5.76191C1.23808 6.26159 0.833002 6.66667 0.333316 6.66667C-0.16637 6.66667 -0.571446 6.26159 -0.571446 5.76191C-0.571446 5.26222 -0.16637 4.85715 0.333316 4.85715C0.833002 4.85715 1.23808 5.26222 1.23808 5.76191ZM-3.28567 6.66667C-2.78598 6.66667 -2.38091 6.26159 -2.38091 5.76191C-2.38091 5.26222 -2.78598 4.85715 -3.28567 4.85715C-3.78535 4.85715 -4.19043 5.26222 -4.19043 5.76191C-4.19043 6.26159 -3.78535 6.66667 -3.28567 6.66667ZM-0.571379 7.57144C-0.571379 8.07113 -0.976455 8.4762 -1.47614 8.4762C-1.97583 8.4762 -2.3809 8.07113 -2.3809 7.57144C-2.3809 7.07175 -1.97583 6.66668 -1.47614 6.66668C-0.976455 6.66668 -0.571379 7.07175 -0.571379 7.57144ZM2.14291 8.4762C2.6426 8.4762 3.04768 8.07113 3.04768 7.57144C3.04768 7.07175 2.6426 6.66668 2.14291 6.66668C1.64323 6.66668 1.23815 7.07175 1.23815 7.57144C1.23815 8.07113 1.64323 8.4762 2.14291 8.4762ZM6.66666 7.57144C6.66666 8.07113 6.26158 8.4762 5.7619 8.4762C5.26221 8.4762 4.85714 8.07113 4.85714 7.57144C4.85714 7.07175 5.26221 6.66668 5.7619 6.66668C6.26158 6.66668 6.66666 7.07175 6.66666 7.57144ZM7.5715 10.2857C8.07118 10.2857 8.47626 9.88066 8.47626 9.38097C8.47626 8.88129 8.07118 8.47621 7.5715 8.47621C7.07181 8.47621 6.66673 8.88129 6.66673 9.38097C6.66673 9.88066 7.07181 10.2857 7.5715 10.2857ZM4.8572 9.38097C4.8572 9.88066 4.45213 10.2857 3.95244 10.2857C3.45275 10.2857 3.04768 9.88066 3.04768 9.38097C3.04768 8.88129 3.45275 8.47621 3.95244 8.47621C4.45213 8.47621 4.8572 8.88129 4.8572 9.38097ZM0.333316 10.2857C0.833002 10.2857 1.23808 9.88066 1.23808 9.38097C1.23808 8.88129 0.833002 8.47621 0.333316 8.47621C-0.16637 8.47621 -0.571446 8.88129 -0.571446 9.38097C-0.571446 9.88066 -0.16637 10.2857 0.333316 10.2857ZM-2.38091 9.38097C-2.38091 9.88066 -2.78598 10.2857 -3.28567 10.2857C-3.78535 10.2857 -4.19043 9.88066 -4.19043 9.38097C-4.19043 8.88129 -3.78535 8.47621 -3.28567 8.47621C-2.78598 8.47621 -2.38091 8.88129 -2.38091 9.38097Z" fill="url(#paint0_linear)"/>
</g>
</g>
<circle cx="12" cy="12" r="11" stroke="white" stroke-width="2"/>
</g>
<defs>
<filter id="filter0_d" x="-4.19043" y="1.23811" width="12.6667" height="11.0476" filterUnits="userSpaceOnUse" color-interpolation-filters="sRGB">
<feFlood flood-opacity="0" result="BackgroundImageFix"/>
<feColorMatrix in="SourceAlpha" type="matrix" values="0 0 0 0 0 0 0 0 0 0 0 0 0 0 0 0 0 0 127 0"/>
<feOffset dy="2"/>
<feColorMatrix type="matrix" values="0 0 0 0 0 0 0 0 0 0 0 0 0 0 0 0 0 0 0.06 0"/>
<feBlend mode="normal" in2="BackgroundImageFix" result="effect1_dropShadow"/>
<feBlend mode="normal" in="SourceGraphic" in2="effect1_dropShadow" result="shape"/>
</filter>
<linearGradient id="paint0_linear" x1="-4.19043" y1="1.23811" x2="-4.19043" y2="10.2857" gradientUnits="userSpaceOnUse">
<stop stop-color="white"/>
<stop offset="1" stop-color="#F0F0F0"/>
</linearGradient>
</defs>
</svg>
