<svg width="143" height="48" viewBox="0 0 143 48" fill="none" xmlns="http://www.w3.org/2000/svg">
<path d="M24.3509 0C23.174 0 20.5463 0.301887 17.85 8.48858C9.78548 4.63555 8.01619 6.15293 7.13357 7.03079C6.30736 7.84508 4.66301 9.89474 8.61267 17.5372C0.229725 20.3496 0 23.1897 0 24C0 24.7547 0.310329 27.6783 8.58849 30.3913C4.6751 38.2324 6.54918 40.4012 7.12551 40.9772C7.66556 41.5094 9.98699 43.3605 17.7775 39.5114C20.5946 47.7736 23.2183 48 24.3468 48C25.5237 48 28.1474 47.6981 30.8355 39.5472C38.751 43.428 40.7701 41.7597 41.5641 40.9772C42.3903 40.1589 44.0347 38.1132 40.085 30.4628C48.468 27.6504 48.6977 24.8103 48.6977 24C48.6977 23.2453 48.3873 20.3217 40.1092 17.6087C44.0226 9.7716 42.1485 7.59881 41.5641 7.03079C41.02 6.49851 38.6946 4.6435 30.8799 8.51241C27.9458 0.154915 25.6043 0 24.3509 0ZM9.28573 9.15194C9.54769 8.89374 10.4303 7.77756 17.2495 10.4588C17.2173 10.574 17.181 10.6852 17.1528 10.8083C16.1734 14.2959 14.0374 15.9523 11.0268 16.7984C10.8737 16.8421 10.7286 16.8818 10.5835 16.9255C7.70183 10.3913 8.95525 9.48163 9.28573 9.15194ZM29.562 11.3168C29.6345 11.281 29.703 11.2493 29.7756 11.2215C29.8199 11.3247 29.8562 11.424 29.8965 11.5273C31.291 15.0189 33.5237 17.3585 37.1348 18.6614C37.2155 18.6931 37.288 18.717 37.3605 18.7448C37.3122 18.8481 37.2678 18.9434 37.2195 19.0506C35.6356 22.4667 35.5348 25.7359 37.2195 29.144C37.2558 29.2155 37.288 29.287 37.3243 29.3585C37.2195 29.4022 37.1107 29.4379 37.0059 29.4777C33.4431 30.7805 31.0209 33.0169 29.7675 36.5998C29.7433 36.6792 29.7111 36.7507 29.6869 36.8262C29.5821 36.7786 29.4814 36.7349 29.3685 36.6872C25.8904 35.15 22.6178 35.0904 19.1276 36.6872C19.0551 36.7229 18.9825 36.7547 18.914 36.7825C18.8697 36.6792 18.8334 36.5799 18.7931 36.4687C17.4349 32.9652 15.1659 30.6375 11.5548 29.3347C11.4742 29.3029 11.4016 29.279 11.3291 29.2512C11.3734 29.148 11.4218 29.0526 11.4701 28.9494C13.054 25.5333 13.1266 22.284 11.4701 18.856C11.4339 18.7845 11.4016 18.713 11.3653 18.6415C11.4701 18.5978 11.5789 18.5621 11.6837 18.5223C15.2505 17.2155 17.6364 14.9633 18.9301 11.3923C18.9543 11.3208 18.9866 11.2493 19.0108 11.1778C19.1155 11.2215 19.2163 11.2691 19.3291 11.3088C22.8113 12.8183 26.0758 12.9136 29.562 11.3168ZM3.04285 24C3.04285 23.5789 2.82521 22.0933 9.59203 19.3446C9.66054 19.4598 9.72503 19.5789 9.79354 19.6941C11.6031 22.8401 11.2726 25.5015 9.75727 28.1946C9.68472 28.3218 9.61621 28.4449 9.54366 28.572C2.89373 25.9146 3.04285 24.3853 3.04285 24ZM9.28573 38.852C8.97943 38.5501 7.76229 37.6524 10.5754 30.9911C10.7044 31.0268 10.8293 31.0626 10.9663 31.0983C14.5049 32.0636 16.1775 34.1688 17.044 37.136C17.0883 37.279 17.1286 37.4181 17.1649 37.5571C10.5512 40.3138 9.55979 39.1261 9.28573 38.852ZM24.3509 45.001C23.9922 45.001 22.5372 45.3625 19.6395 38.5382C19.7483 38.4786 19.8652 38.4111 19.982 38.3515C23.174 36.568 25.8743 36.8937 28.6068 38.3873C28.7479 38.4667 28.8849 38.5422 29.026 38.6137C26.4345 45.1877 24.6975 45.001 24.3509 45.001ZM39.42 38.852C39.1661 39.1023 38.3923 40.3694 31.4522 37.569C31.4884 37.4499 31.5247 37.3227 31.557 37.1956C32.5363 33.708 34.6724 32.0516 37.683 31.2056C37.8401 31.1619 37.9933 31.1142 38.1464 31.0745C41.02 37.5372 39.6699 38.6097 39.42 38.852ZM45.6589 24C45.6589 24.4211 45.8765 25.9067 39.1097 28.6554C39.0412 28.5402 38.9807 28.429 38.9162 28.3059C37.1066 25.1599 37.4371 22.4985 38.9525 19.8054C39.025 19.6743 39.0976 19.5472 39.1661 19.4201C45.812 22.0854 45.6589 23.6187 45.6589 24ZM39.42 9.15194C39.7263 9.45382 40.9434 10.3515 38.1303 17.0129C38.0014 16.9772 37.8764 16.9414 37.7394 16.9057C34.2008 15.9404 32.5766 13.8153 31.6617 10.8679C31.6174 10.7289 31.5771 10.5938 31.5328 10.4548C38.1545 7.69414 39.1459 8.88183 39.42 9.15194ZM29.0461 9.47368C28.9413 9.53327 28.8325 9.58888 28.7237 9.65243C25.5317 11.4359 22.8556 11.0665 20.0989 9.61668C19.9579 9.54518 19.8249 9.47368 19.6838 9.40219C22.3438 2.77259 23.8833 2.99901 24.3549 2.99901C24.7176 2.99901 26.1403 2.82026 29.0461 9.47368Z" fill="url(#paint0_linear)"/>
<path fill-rule="evenodd" clip-rule="evenodd" d="M64.8711 31.2852C64.8711 31.7023 65.2016 32.0439 65.6086 32.0439H77.9493C78.0057 32.0439 78.0501 31.9962 78.0501 31.9406V30.8562C78.0501 30.8006 78.0057 30.7529 77.9493 30.7529H66.588C66.455 30.7529 66.3462 30.6417 66.3462 30.5027V24.4093C66.3462 24.2703 66.455 24.163 66.588 24.163H77.1956C77.2521 24.163 77.2964 24.1154 77.2964 24.0598V23.0071C77.2964 22.9515 77.2521 22.9038 77.1956 22.9038H66.588C66.455 22.9038 66.3462 22.7926 66.3462 22.6576V17.5017C66.3462 17.3626 66.455 17.2554 66.588 17.2554H77.78C77.8365 17.2554 77.8808 17.2077 77.8808 17.1521V16.0637C77.8808 16.0081 77.8365 15.9604 77.78 15.9604H65.6086C65.2016 15.9604 64.8711 16.3021 64.8711 16.7191V31.2852V31.2852Z" fill="white"/>
<path fill-rule="evenodd" clip-rule="evenodd" d="M85.3972 32.0399H97.7137C97.7701 32.0399 97.8185 31.9922 97.8185 31.9366V30.8522C97.8185 30.7926 97.7701 30.7489 97.7137 30.7489H86.2718C86.1348 30.7489 86.0219 30.6377 86.0219 30.4987V16.0637C86.0219 16.0081 85.9735 15.9604 85.9171 15.9604H84.7403C84.6839 15.9604 84.6355 16.0081 84.6355 16.0637V31.2852C84.6395 31.7023 84.9781 32.0399 85.3972 32.0399Z" fill="white"/>
<path fill-rule="evenodd" clip-rule="evenodd" d="M129.299 26.1293L133.688 17.6328C133.736 17.5454 133.833 17.5136 133.905 17.5136C133.982 17.5136 134.079 17.5454 134.123 17.6328L138.504 26.1293C138.544 26.2048 138.54 26.3001 138.496 26.3716C138.452 26.4471 138.371 26.4948 138.282 26.4948H129.512C129.428 26.4948 129.347 26.4511 129.303 26.3756C129.259 26.3001 129.259 26.2088 129.299 26.1293ZM128.59 27.7579H139.213C139.306 27.7579 139.387 27.8096 139.431 27.889L141.535 31.9844C141.551 32.0201 141.587 32.04 141.627 32.04H142.897C142.933 32.04 142.965 32.0201 142.986 31.9883C143.002 31.9565 143.006 31.9168 142.99 31.885L135.159 16.7391C135.119 16.6596 134.732 15.9565 133.897 15.9565C133.047 15.9565 132.656 16.7033 132.64 16.7351L124.813 31.889C124.797 31.9208 124.797 31.9605 124.817 31.9923C124.837 32.0241 124.87 32.0439 124.906 32.0439H126.175C126.216 32.0439 126.248 32.0241 126.268 31.9883L128.372 27.897C128.416 27.8096 128.497 27.7579 128.59 27.7579Z" fill="white"/>
<path fill-rule="evenodd" clip-rule="evenodd" d="M117.861 26.3955C117.627 25.9863 117.309 25.6169 116.914 25.2991C116.519 24.9853 116.051 24.7033 115.519 24.465C114.991 24.2267 114.423 24.0122 113.831 23.8175C113.238 23.6269 112.622 23.4441 111.993 23.2813C111.364 23.1144 110.752 22.9516 110.159 22.7887C109.583 22.6338 109.019 22.459 108.474 22.2684C107.951 22.0856 107.483 21.8791 107.092 21.6527C106.701 21.4302 106.391 21.1681 106.161 20.8781C105.931 20.5881 105.819 20.2584 105.819 19.8692C105.819 19.4044 105.935 19.0151 106.181 18.6815C106.423 18.3478 106.778 18.0658 107.237 17.8473C107.685 17.6328 108.241 17.5176 108.938 17.4064C109.579 17.3071 110.316 17.2515 111.13 17.2515H116.886C116.91 17.2515 116.934 17.2396 116.954 17.2197C116.97 17.1998 116.982 17.176 116.982 17.1482V16.0598C116.982 16.0042 116.938 15.9565 116.89 15.9565H116.797H111.138C110.574 15.9565 108.926 15.9963 107.995 16.2346C107.503 16.3498 107.032 16.5127 106.6 16.7113C106.165 16.9099 105.782 17.1641 105.46 17.458C105.137 17.752 104.875 18.1055 104.69 18.5146C104.505 18.9198 104.408 19.3925 104.408 19.9168C104.408 20.4491 104.525 20.9218 104.759 21.327C104.992 21.7281 105.311 22.0856 105.706 22.3915C106.097 22.6934 106.564 22.9635 107.096 23.1939C107.624 23.4203 108.192 23.6269 108.777 23.8056C109.361 23.9844 109.978 24.1552 110.606 24.3101C111.235 24.465 111.848 24.6239 112.432 24.7828C113.025 24.9456 113.589 25.1244 114.109 25.3111C114.637 25.4978 115.1 25.7162 115.491 25.9585C115.882 26.2008 116.192 26.4868 116.422 26.8046C116.652 27.1264 116.761 27.4878 116.761 27.9129C116.761 28.4451 116.62 28.8821 116.333 29.2475C116.051 29.613 115.648 29.9109 115.137 30.1373C114.609 30.3716 113.964 30.4789 113.299 30.5782C112.65 30.6775 111.892 30.7291 110.981 30.7371H104.585C104.533 30.7371 104.493 30.7847 104.493 30.8404V31.9287C104.493 31.9883 104.533 32.032 104.585 32.032L110.937 32.036C111.489 32.036 112.061 32.0122 112.63 31.9605C113.202 31.9129 113.762 31.8255 114.298 31.7063L114.419 31.6785C114.907 31.5712 115.37 31.464 115.814 31.2733C116.289 31.0668 116.704 30.8006 117.059 30.4868C117.414 30.173 117.696 29.7917 117.905 29.3587C118.115 28.9218 118.22 28.4054 118.22 27.8215C118.212 27.2852 118.095 26.8046 117.861 26.3955Z" fill="white"/>
<defs>
<linearGradient id="paint0_linear" x1="24.3488" y1="48" x2="24.3488" y2="0" gradientUnits="userSpaceOnUse">
<stop stop-color="#007DF7"/>
<stop offset="0.5028" stop-color="#46DF83"/>
<stop offset="1" stop-color="#F8DA49"/>
</linearGradient>
</defs>
</svg>
