<svg width="149" height="42" viewBox="0 0 149 42" fill="none" xmlns="http://www.w3.org/2000/svg">
<path d="M20.7749 0C19.7708 0 17.529 0.264151 15.2287 7.42751C8.34845 4.05611 6.83899 5.38381 6.08598 6.15194C5.38111 6.86445 3.97824 8.6579 7.34787 15.3451C0.195989 17.8059 0 20.291 0 21C0 21.6604 0.264756 24.2185 7.32724 26.5924C3.98855 33.4533 5.58741 35.351 6.0791 35.855C6.53985 36.3208 8.52037 37.9404 15.1668 34.5725C17.5703 41.8019 19.8087 42 20.7714 42C21.7754 42 24.0138 41.7359 26.3072 34.6038C33.0603 37.9995 34.7829 36.5397 35.4603 35.855C36.1652 35.139 37.568 33.3491 34.1984 26.6549C41.3503 24.1941 41.5463 21.709 41.5463 21C41.5463 20.3396 41.2815 17.7815 34.219 15.4076C37.5577 8.55015 35.9589 6.64896 35.4603 6.15194C34.9961 5.6862 33.0121 4.06306 26.3451 7.44836C23.8419 0.135551 21.8442 0 20.7749 0ZM7.92209 8.00795C8.14559 7.78203 8.8986 6.80536 14.7164 9.15144C14.6889 9.25223 14.6579 9.34955 14.6339 9.4573C13.7983 12.5089 11.976 13.9583 9.40748 14.6986C9.27682 14.7368 9.15304 14.7716 9.02926 14.8098C6.5708 9.09235 7.64014 8.29643 7.92209 8.00795ZM25.2207 9.90219C25.2826 9.8709 25.3411 9.8431 25.4029 9.81877C25.4408 9.90914 25.4717 9.99603 25.5061 10.0864C26.6958 13.1415 28.6007 15.1887 31.6815 16.3287C31.7502 16.3565 31.8121 16.3774 31.874 16.4017C31.8328 16.4921 31.7949 16.5755 31.7537 16.6693C30.4024 19.6584 30.3164 22.5189 31.7537 25.501C31.7846 25.5636 31.8121 25.6261 31.8431 25.6887C31.7537 25.7269 31.6608 25.7582 31.5714 25.793C28.5319 26.933 26.4654 28.8898 25.3961 32.0248C25.3754 32.0943 25.3479 32.1569 25.3273 32.2229C25.2379 32.1812 25.1519 32.143 25.0557 32.1013C22.0883 30.7562 19.2963 30.7041 16.3187 32.1013C16.2568 32.1326 16.1949 32.1604 16.1364 32.1847C16.0986 32.0943 16.0677 32.0074 16.0333 31.9101C14.8745 28.8446 12.9387 26.8078 9.85791 25.6678C9.78914 25.64 9.72725 25.6192 9.66536 25.5948C9.70318 25.5045 9.74444 25.4211 9.7857 25.3307C11.137 22.3416 11.1989 19.4985 9.7857 16.499C9.75476 16.4364 9.72725 16.3739 9.69631 16.3113C9.7857 16.2731 9.87854 16.2418 9.96794 16.2071C13.0109 15.0636 15.0465 13.0929 16.1502 9.96822C16.1708 9.90566 16.1983 9.8431 16.219 9.78054C16.3084 9.81877 16.3943 9.86048 16.4906 9.89523C19.4614 11.216 22.2465 11.2994 25.2207 9.90219ZM2.596 21C2.596 20.6316 2.41032 19.3317 8.18341 16.9265C8.24186 17.0273 8.29688 17.1316 8.35533 17.2324C9.89917 19.9851 9.61722 22.3138 8.32438 24.6703C8.26249 24.7815 8.20404 24.8893 8.14215 25.0005C2.46878 22.6753 2.596 21.3371 2.596 21ZM7.92209 33.9955C7.66077 33.7314 6.62237 32.9459 9.02238 27.1172C9.13241 27.1485 9.239 27.1797 9.3559 27.211C12.3748 28.0556 13.8018 29.8977 14.541 32.494C14.5788 32.6192 14.6132 32.7408 14.6442 32.8625C9.00175 35.2746 8.1559 34.2354 7.92209 33.9955ZM20.7749 39.3759C20.4688 39.3759 19.2276 39.6922 16.7554 33.721C16.8482 33.6688 16.9479 33.6097 17.0476 33.5576C19.7708 31.997 22.0746 32.282 24.4058 33.5889C24.5262 33.6584 24.6431 33.7244 24.7634 33.787C22.5525 39.5392 21.0706 39.3759 20.7749 39.3759ZM33.6311 33.9955C33.4144 34.2145 32.7543 35.3232 26.8333 32.8729C26.8643 32.7686 26.8952 32.6574 26.9227 32.5462C27.7583 29.4945 29.5806 28.0452 32.1491 27.3049C32.2832 27.2666 32.4139 27.2249 32.5445 27.1902C34.9961 32.8451 33.8442 33.7835 33.6311 33.9955ZM38.9537 21C38.9537 21.3684 39.1394 22.6683 33.3663 25.0735C33.3078 24.9727 33.2563 24.8754 33.2013 24.7676C31.6574 22.0149 31.9394 19.6862 33.2322 17.3297C33.2941 17.215 33.356 17.1038 33.4144 16.9926C39.0844 19.3247 38.9537 20.6663 38.9537 21ZM33.6311 8.00795C33.8924 8.2721 34.9308 9.0576 32.5308 14.8863C32.4207 14.855 32.3141 14.8237 32.1972 14.7925C29.1783 13.9479 27.7926 12.0884 27.0121 9.50943C26.9743 9.38779 26.9399 9.26961 26.9021 9.14796C32.5514 6.73237 33.3972 7.7716 33.6311 8.00795ZM24.7806 8.28947C24.6912 8.34161 24.5984 8.39027 24.5055 8.44588C21.7823 10.0065 19.4992 9.68322 17.1473 8.4146C17.027 8.35204 16.9135 8.28947 16.7932 8.22691C19.0625 2.42602 20.376 2.62413 20.7783 2.62413C21.0877 2.62413 22.3015 2.46773 24.7806 8.28947Z" fill="url(#paint0_linear)"/>
<path fill-rule="evenodd" clip-rule="evenodd" d="M55.3447 27.3745C55.3447 27.7394 55.6267 28.0383 55.974 28.0383H66.5024C66.5505 28.0383 66.5883 27.9966 66.5883 27.948V26.9991C66.5883 26.9504 66.5505 26.9087 66.5024 26.9087H56.8095C56.696 26.9087 56.6032 26.8114 56.6032 26.6898V21.3581C56.6032 21.2364 56.696 21.1426 56.8095 21.1426H65.8594C65.9075 21.1426 65.9453 21.1009 65.9453 21.0522V20.1312C65.9453 20.0825 65.9075 20.0408 65.8594 20.0408H56.8095C56.696 20.0408 56.6032 19.9435 56.6032 19.8253V15.3139C56.6032 15.1922 56.696 15.0984 56.8095 15.0984H66.3579C66.4061 15.0984 66.4439 15.0567 66.4439 15.008V14.0557C66.4439 14.007 66.4061 13.9653 66.3579 13.9653H55.974C55.6267 13.9653 55.3447 14.2642 55.3447 14.6292V27.3745V27.3745Z" fill="#042132"/>
<path fill-rule="evenodd" clip-rule="evenodd" d="M72.8564 28.0347H83.3642C83.4123 28.0347 83.4536 27.993 83.4536 27.9444V26.9955C83.4536 26.9434 83.4123 26.9051 83.3642 26.9051H73.6025C73.4856 26.9051 73.3894 26.8078 73.3894 26.6862V14.0556C73.3894 14.0069 73.3481 13.9652 73.3 13.9652H72.2959C72.2478 13.9652 72.2065 14.0069 72.2065 14.0556V27.3743C72.21 27.7393 72.4988 28.0347 72.8564 28.0347Z" fill="#042132"/>
<path fill-rule="evenodd" clip-rule="evenodd" d="M110.311 22.863L114.055 15.4285C114.097 15.3521 114.179 15.3243 114.241 15.3243C114.306 15.3243 114.389 15.3521 114.427 15.4285L118.164 22.863C118.199 22.929 118.195 23.0124 118.157 23.075C118.12 23.141 118.051 23.1827 117.975 23.1827H110.493C110.421 23.1827 110.352 23.1445 110.314 23.0785C110.277 23.0124 110.277 22.9325 110.311 22.863ZM109.706 24.288H118.769C118.849 24.288 118.917 24.3332 118.955 24.4027L120.75 27.9861C120.764 28.0174 120.795 28.0348 120.829 28.0348H121.912C121.943 28.0348 121.971 28.0174 121.988 27.9896C122.002 27.9618 122.005 27.927 121.991 27.8992L115.31 14.6465C115.276 14.577 114.946 13.9618 114.234 13.9618C113.509 13.9618 113.175 14.6152 113.161 14.643L106.484 27.9027C106.47 27.9305 106.47 27.9653 106.487 27.9931C106.505 28.0209 106.532 28.0383 106.563 28.0383H107.646C107.681 28.0383 107.708 28.0209 107.725 27.9896L109.52 24.4097C109.558 24.3332 109.627 24.288 109.706 24.288Z" fill="#042132"/>
<path fill-rule="evenodd" clip-rule="evenodd" d="M100.553 23.0959C100.354 22.7379 100.082 22.4146 99.745 22.1366C99.4081 21.862 99.0092 21.6152 98.5554 21.4067C98.1049 21.1981 97.6201 21.0105 97.1147 20.8401C96.6092 20.6733 96.0831 20.5134 95.5467 20.3709C95.0104 20.225 94.4877 20.0824 93.9823 19.9399C93.4906 19.8044 93.0092 19.6515 92.545 19.4846C92.098 19.3248 91.6992 19.144 91.3657 18.9459C91.0321 18.7513 90.7674 18.5219 90.5714 18.2681C90.3754 18.0144 90.2791 17.7259 90.2791 17.3853C90.2791 16.9787 90.3788 16.6381 90.5886 16.3461C90.7949 16.0541 91.0975 15.8074 91.4894 15.6162C91.8711 15.4285 92.3456 15.3277 92.9404 15.2304C93.4872 15.1435 94.1164 15.0949 94.8109 15.0949H99.721C99.7416 15.0949 99.7622 15.0844 99.7794 15.0671C99.7932 15.0497 99.8035 15.0288 99.8035 15.0045V14.0522C99.8035 14.0035 99.7657 13.9618 99.7244 13.9618H99.6453H94.8178C94.3364 13.9618 92.9301 13.9965 92.1359 14.2051C91.7164 14.3059 91.3141 14.4484 90.9462 14.6222C90.5748 14.796 90.2482 15.0184 89.9731 15.2756C89.698 15.5328 89.4745 15.8421 89.3164 16.2001C89.1582 16.5546 89.0757 16.9682 89.0757 17.427C89.0757 17.8928 89.1754 18.3064 89.3748 18.6609C89.5743 19.0119 89.8459 19.3248 90.1828 19.5924C90.5164 19.8565 90.9152 20.0929 91.3691 20.2945C91.8195 20.4926 92.3043 20.6733 92.8029 20.8297C93.3015 20.9861 93.8275 21.1356 94.3639 21.2711C94.9003 21.4067 95.423 21.5457 95.9215 21.6847C96.427 21.8272 96.9084 21.9836 97.3519 22.147C97.8023 22.3104 98.1978 22.5015 98.5313 22.7135C98.8648 22.9255 99.1296 23.1758 99.3256 23.4539C99.5215 23.7354 99.6144 24.0517 99.6144 24.4236C99.6144 24.8893 99.494 25.2716 99.2499 25.5914C99.0092 25.9111 98.6654 26.1718 98.2287 26.3699C97.7783 26.575 97.2281 26.6688 96.6608 26.7557C96.1072 26.8426 95.4608 26.8878 94.6837 26.8948H89.227C89.1823 26.8948 89.1479 26.9365 89.1479 26.9851V27.9375C89.1479 27.9896 89.1823 28.0278 89.227 28.0278L94.6459 28.0313C95.117 28.0313 95.6052 28.0105 96.09 27.9653C96.5783 27.9236 97.0562 27.8471 97.5135 27.7428L97.6167 27.7185C98.0327 27.6247 98.4281 27.5308 98.8064 27.364C99.2121 27.1832 99.5662 26.9504 99.8688 26.6758C100.171 26.4012 100.412 26.0676 100.591 25.6887C100.77 25.3064 100.859 24.8545 100.859 24.3436C100.852 23.8744 100.752 23.4538 100.553 23.0959Z" fill="#042132"/>
<path opacity="0.3" d="M149 8H148L138 32H139L149 8Z" fill="#E6E6E6"/>
<defs>
<linearGradient id="paint0_linear" x1="20.7731" y1="42" x2="20.7731" y2="0" gradientUnits="userSpaceOnUse">
<stop stop-color="#007DF7"/>
<stop offset="0.5028" stop-color="#46DF83"/>
<stop offset="1" stop-color="#F8DA49"/>
</linearGradient>
</defs>
</svg>
