<svg width="50" height="50" viewBox="0 0 50 50" fill="none" xmlns="http://www.w3.org/2000/svg">
<path d="M9.69092 46L5.9538 41.5819C4.76906 40.1009 4.1238 38.2606 4.12421 36.364L4.12421 26.7689C4.12421 26.0307 4.41746 25.3227 4.93944 24.8008C5.46142 24.2788 6.16937 23.9855 6.90756 23.9855C7.64575 23.9855 8.35371 24.2788 8.87569 24.8008C9.39767 25.3227 9.69092 26.0307 9.69092 26.7689L9.69092 33.7273" stroke="#478DFF" stroke-width="3" stroke-linecap="round" stroke-linejoin="round"/>
<path d="M18.041 46L18.041 40.4333C18.0425 38.782 17.5536 37.1674 16.6363 35.7944L14.5173 32.6139C14.3365 32.3124 14.0964 32.0508 13.8115 31.8448C13.5266 31.6388 13.2028 31.4928 12.8599 31.4156C12.5169 31.3384 12.1618 31.3316 11.8161 31.3957C11.4705 31.4597 11.1414 31.5933 10.8488 31.7882C10.3207 32.1401 9.9396 32.6732 9.77756 33.2868C9.61552 33.9004 9.68372 34.5522 9.96929 35.1189L12.4743 39.294" stroke="#478DFF" stroke-width="3" stroke-linecap="round" stroke-linejoin="round"/>
<path d="M40.3083 46L44.0454 41.5819C45.2302 40.1009 45.8754 38.2606 45.875 36.364L45.875 26.7689C45.875 26.0307 45.5818 25.3227 45.0598 24.8008C44.5378 24.2788 43.8298 23.9855 43.0916 23.9855C42.3535 23.9855 41.6455 24.2788 41.1235 24.8008C40.6015 25.3227 40.3083 26.0307 40.3083 26.7689L40.3083 33.7273" stroke="#478DFF" stroke-width="3" stroke-linecap="round" stroke-linejoin="round"/>
<path d="M31.959 46L31.959 40.4333C31.9575 38.782 32.4464 37.1674 33.3637 35.7944L35.4828 32.6139C35.6636 32.3124 35.9037 32.0508 36.1886 31.8448C36.4735 31.6388 36.7972 31.4928 37.1402 31.4156C37.4832 31.3384 37.8383 31.3316 38.1839 31.3957C38.5296 31.4597 38.8587 31.5932 39.1512 31.7882C39.6794 32.1401 40.0605 32.6732 40.2225 33.2868C40.3845 33.9004 40.3163 34.5522 40.0308 35.1189L37.5258 39.294" stroke="#478DFF" stroke-width="3" stroke-linecap="round" stroke-linejoin="round"/>
<path d="M24.9992 25.7655L15.5098 15.866C14.6766 15.033 14.1266 13.959 13.9378 12.796C13.749 11.6331 13.9309 10.4402 14.4577 9.38636C14.8557 8.59073 15.437 7.90104 16.1538 7.37414C16.8706 6.84724 17.7024 6.49819 18.5805 6.35576C19.4586 6.21333 20.3581 6.28159 21.2046 6.55492C22.0512 6.82825 22.8207 7.29883 23.4498 7.92788L24.9992 9.47728L26.5486 7.92788C27.1777 7.29883 27.9472 6.82825 28.7938 6.55492C29.6404 6.28159 30.5398 6.21333 31.4179 6.35576C32.2961 6.49819 33.1278 6.84724 33.8446 7.37414C34.5614 7.90104 35.1427 8.59073 35.5407 9.38636C36.0675 10.4402 36.2494 11.6331 36.0606 12.796C35.8718 13.959 35.3218 15.033 34.4886 15.866L24.9992 25.7655Z" stroke="#478DFF" stroke-width="3" stroke-linecap="round" stroke-linejoin="round"/>
</svg>
