<svg width="48" height="48" viewBox="0 0 48 48" fill="none" xmlns="http://www.w3.org/2000/svg">
<path d="M15.2272 34.011C14.7088 32.7992 13.9248 31.7193 12.9331 30.8511C11.9414 29.9829 10.7674 29.3485 9.49768 28.9949C8.22797 28.6412 6.89503 28.5773 5.5973 28.8078C4.29957 29.0384 3.07021 29.5575 2 30.3268M32.7728 34.011C33.2912 32.7992 34.0752 31.7193 35.0669 30.8511C36.0586 29.9829 37.2326 29.3485 38.5023 28.9949C39.772 28.6412 41.105 28.5773 42.4027 28.8078C43.7004 29.0384 44.9298 29.5575 46 30.3268M33.2203 34.5312C32.1082 33.1577 30.7033 32.05 29.1082 31.2891C27.5131 30.5282 25.7682 30.1333 24.0009 30.1333C22.2336 30.1333 20.4887 30.5282 18.8936 31.2891C17.2986 32.05 15.8936 33.1577 14.7816 34.5312M12.2665 22.0665C12.2665 24.9016 9.96828 27.1998 7.13326 27.1998C4.29824 27.1998 2 24.9016 2 22.0665C2 19.2315 4.29824 16.9333 7.13326 16.9333C9.96828 16.9333 12.2665 19.2315 12.2665 22.0665ZM45.9994 22.0665C45.9994 24.9016 43.7011 27.1998 40.8661 27.1998C38.0311 27.1998 35.7328 24.9016 35.7328 22.0665C35.7328 19.2315 38.0311 16.9333 40.8661 16.9333C43.7011 16.9333 45.9994 19.2315 45.9994 22.0665ZM30.5996 20.5999C30.5996 24.2449 27.6447 27.1998 23.9997 27.1998C20.3547 27.1998 17.3998 24.2449 17.3998 20.5999C17.3998 16.9549 20.3547 14 23.9997 14C27.6447 14 30.5996 16.9549 30.5996 20.5999Z" stroke="#478DFF" stroke-width="3" stroke-linecap="round" stroke-linejoin="round"/>
</svg>
