<svg width="40" height="40" viewBox="0 0 40 40" fill="none" xmlns="http://www.w3.org/2000/svg">
<path fill-rule="evenodd" clip-rule="evenodd" d="M32.3027 20.1486C32.3027 23.3965 31.0375 26.4498 28.7407 28.7466C25.2075 32.2798 20.0231 33.176 15.6484 31.4426C19.6528 28.2682 23.2133 24.7639 23.9856 23.9916C26.8041 21.1731 29.3473 18.3172 31.441 15.6529C32.0029 17.065 32.3027 18.5823 32.3027 20.1486ZM5.35467 34.4195C5.3345 33.8633 5.82585 32.1255 8.15006 28.7192C8.61836 29.3719 9.13133 30.0016 9.71059 30.5808C10.1126 30.9814 10.5348 31.3474 10.9671 31.6932C8.12845 33.6284 6.13853 34.5117 5.35467 34.4195ZM11.5449 11.5507C13.8418 9.25247 16.8951 7.98878 20.1429 7.98878C23.3908 7.98878 26.4441 9.25247 28.7409 11.5507C29.2424 12.0522 29.6862 12.5954 30.0868 13.1617C28.1415 15.7352 25.5219 18.7885 22.153 22.1574C18.787 25.5219 15.7395 28.1473 13.1732 30.0969C12.6026 29.6977 12.0536 29.2539 11.5449 28.7467C9.24811 26.4499 7.98298 23.3966 7.98298 20.1487C7.98298 16.8995 9.24811 13.8476 11.5449 11.5507ZM34.382 5.35944H34.4151C34.4829 6.13034 33.6025 8.11881 31.6745 10.956C31.3316 10.5266 30.9699 10.1102 30.5751 9.7168C29.9958 9.13611 29.369 8.62602 28.7177 8.15772C32.0592 5.87674 33.797 5.35944 34.382 5.35944ZM34.1703 11.9009C37.0262 7.56802 37.6977 4.89079 36.2871 3.48012C35.715 2.90952 33.9744 1.16888 26.2899 6.68186C26.2726 6.69338 26.2654 6.71356 26.2481 6.72652C24.3548 5.86341 22.287 5.39511 20.1429 5.39511C16.202 5.39511 12.4974 6.92969 9.71064 9.71644C6.9239 12.5017 5.38931 16.2078 5.38931 20.1487C5.38931 22.2885 5.85761 24.3534 6.71784 26.2453C1.1674 33.9614 2.89795 35.715 3.47576 36.2929C3.95127 36.7684 4.58095 36.9802 5.32591 36.9802C7.39796 36.9787 10.3519 35.3404 13.3058 33.2208C15.4398 34.3361 17.7913 34.8937 20.1429 34.8937C23.921 34.8937 27.6991 33.4557 30.5752 30.581C33.362 27.7943 34.8966 24.0882 34.8966 20.1487C34.8966 17.7208 34.3115 15.3865 33.2121 13.2986C33.5507 12.8231 33.8706 12.3562 34.1703 11.9009Z" fill="#121131"/>
</svg>
