<svg width="40" height="40" viewBox="0 0 40 40" fill="none" xmlns="http://www.w3.org/2000/svg">
<path fill-rule="evenodd" clip-rule="evenodd" d="M32.3028 20.1486C32.3028 23.3965 31.0376 26.4498 28.7408 28.7466C25.2077 32.2798 20.0232 33.176 15.6486 31.4426C19.6529 28.2682 23.2134 24.7639 23.9858 23.9916C26.8042 21.1731 29.3474 18.3172 31.4411 15.6529C32.0031 17.065 32.3028 18.5823 32.3028 20.1486ZM5.35479 34.4195C5.33462 33.8633 5.82597 32.1255 8.15019 28.7192C8.61849 29.3719 9.13146 30.0016 9.71071 30.5808C10.1127 30.9814 10.5349 31.3474 10.9672 31.6932C8.12857 33.6284 6.13866 34.5117 5.35479 34.4195ZM11.5451 11.5507C13.8419 9.25247 16.8952 7.98878 20.1431 7.98878C23.3909 7.98878 26.4442 9.25247 28.7411 11.5507C29.2425 12.0522 29.6863 12.5954 30.0869 13.1617C28.1416 15.7352 25.522 18.7885 22.1532 22.1574C18.7872 25.5219 15.7396 28.1473 13.1733 30.0969C12.6027 29.6977 12.0537 29.2539 11.5451 28.7467C9.24823 26.4499 7.9831 23.3966 7.9831 20.1487C7.9831 16.8995 9.24823 13.8476 11.5451 11.5507ZM34.3821 5.35944H34.4153C34.483 6.13034 33.6026 8.11881 31.6746 10.956C31.3317 10.5266 30.97 10.1102 30.5752 9.7168C29.996 9.13611 29.3692 8.62602 28.7179 8.15772C32.0594 5.87674 33.7971 5.35944 34.3821 5.35944ZM34.1705 11.9009C37.0264 7.56802 37.6978 4.89079 36.2872 3.48012C35.7151 2.90952 33.9745 1.16888 26.29 6.68186C26.2728 6.69338 26.2655 6.71356 26.2483 6.72652C24.3549 5.86341 22.2872 5.39511 20.1431 5.39511C16.2021 5.39511 12.4975 6.92969 9.71077 9.71644C6.92402 12.5017 5.38943 16.2078 5.38943 20.1487C5.38943 22.2885 5.85773 24.3534 6.71797 26.2453C1.16752 33.9614 2.89807 35.715 3.47589 36.2929C3.95139 36.7684 4.58107 36.9802 5.32603 36.9802C7.39808 36.9787 10.352 35.3404 13.3059 33.2208C15.4399 34.3361 17.7915 34.8937 20.1431 34.8937C23.9212 34.8937 27.6993 33.4557 30.5754 30.581C33.3621 27.7943 34.8967 24.0882 34.8967 20.1487C34.8967 17.7208 34.3117 15.3865 33.2122 13.2986C33.5509 12.8231 33.8707 12.3562 34.1705 11.9009Z" fill="#478DFF"/>
</svg>
