<svg width="40" height="40" viewBox="0 0 40 40" fill="none" xmlns="http://www.w3.org/2000/svg">
<path fill-rule="evenodd" clip-rule="evenodd" d="M20 35C28.2843 35 35 28.2843 35 20C35 11.7157 28.2843 5 20 5C11.7157 5 5 11.7157 5 20C5 28.2843 11.7157 35 20 35ZM38 20C38 29.9411 29.9411 38 20 38C10.0589 38 2 29.9411 2 20C2 10.0589 10.0589 2 20 2C29.9411 2 38 10.0589 38 20Z" fill="#121131"/>
<path fill-rule="evenodd" clip-rule="evenodd" d="M17.2062 14.6582L26.0205 12.0703C27.1222 11.75 28.1472 12.7749 27.8269 13.8767L25.239 22.6909C24.8931 23.8696 23.9706 24.792 22.792 25.1379L13.9778 27.7258C12.876 28.0461 11.8511 27.0212 12.1714 25.9194L14.7593 17.1052C15.1052 15.9265 16.0276 15.0041 17.2062 14.6582ZM21.9728 19.8856C21.9728 20.9752 21.0894 21.8585 19.9998 21.8585C18.9102 21.8585 18.0269 20.9752 18.0269 19.8856C18.0269 18.7959 18.9102 17.9126 19.9998 17.9126C21.0894 17.9126 21.9728 18.7959 21.9728 19.8856Z" fill="#121131"/>
</svg>
