<svg width="24" height="24" viewBox="0 0 24 24" fill="none" xmlns="http://www.w3.org/2000/svg">
<path d="M17.6361 7.80121H6.34837C6.07732 7.79016 5.81147 7.87788 5.60022 8.04808C5.38898 8.21828 5.24671 8.45939 5.19984 8.72659L3.60023 19.8559C3.59194 20.0087 3.61605 20.1615 3.67098 20.3043C3.72591 20.4471 3.81041 20.5767 3.91894 20.6846C4.02747 20.7924 4.15757 20.8761 4.30072 20.9301C4.44387 20.9842 4.59683 21.0073 4.74955 20.9981H19.2349C19.3876 21.0073 19.5405 20.9842 19.6836 20.9301C19.8267 20.8761 19.9568 20.7924 20.0653 20.6845C20.1737 20.5767 20.2582 20.4471 20.313 20.3043C20.3678 20.1615 20.3918 20.0087 20.3834 19.8559L18.7838 8.72659C18.737 8.45953 18.5948 8.21854 18.3837 8.04835C18.1727 7.87817 17.907 7.79035 17.6361 7.80121Z" stroke="white" stroke-width="2" stroke-linecap="round" stroke-linejoin="round"/>
<path d="M14.9273 5.44736C14.7959 4.76107 14.4299 4.14183 13.892 3.69575C13.3542 3.24968 12.6779 3.00454 11.9792 3.00235C11.2838 3.0054 10.611 3.2491 10.0751 3.69205C9.53909 4.135 9.17302 4.74987 9.03906 5.43217" stroke="white" stroke-width="2" stroke-linecap="round" stroke-linejoin="round"/>
</svg>
